<ttFont>
    <TTGlyph name=".notdef" xMin="228" yMin="0" xMax="1644" yMax="1416">
      <contour>
        <pt x="1644" y="1416" on="1"/>
        <pt x="1644" y="0" on="1"/>
        <pt x="228" y="0" on="1"/>
        <pt x="228" y="1416" on="1"/>
      </contour>
      <contour>
        <pt x="1295" y="219" on="1"/>
        <pt x="1417" y="341" on="1"/>
        <pt x="1054" y="709" on="1"/>
        <pt x="1417" y="1067" on="1"/>
        <pt x="1289" y="1191" on="1"/>
        <pt x="937" y="825" on="1"/>
        <pt x="580" y="1193" on="1"/>
        <pt x="457" y="1068" on="1"/>
        <pt x="816" y="705" on="1"/>
        <pt x="458" y="363" on="1"/>
        <pt x="586" y="219" on="1"/>
        <pt x="933" y="587" on="1"/>
      </contour>
    </TTGlyph>
    <TTGlyph name="A" xMin="33" yMin="0" xMax="1361" yMax="1538">
      <contour>
        <pt x="1031" y="418" on="1"/>
        <pt x="366" y="418" on="1"/>
        <pt x="213" y="0" on="1"/>
        <pt x="33" y="0" on="1"/>
        <pt x="621" y="1538" on="1"/>
        <pt x="787" y="1538" on="1"/>
        <pt x="1361" y="0" on="1"/>
        <pt x="1178" y="0" on="1"/>
      </contour>
      <contour>
        <pt x="987" y="545" on="1"/>
        <pt x="743" y="1240" on="1"/>
        <pt x="705" y="1360" on="1"/>
        <pt x="667" y="1239" on="1"/>
        <pt x="413" y="545" on="1"/>
      </contour>
    </TTGlyph>
    <TTGlyph name="AE" xMin="-55" yMin="0" xMax="1784" yMax="1522">
      <contour>
        <pt x="1784" y="133" on="1"/>
        <pt x="1784" y="0" on="1"/>
        <pt x="839" y="0" on="1"/>
        <pt x="839" y="417" on="1"/>
        <pt x="333" y="417" on="1"/>
        <pt x="134" y="0" on="1"/>
        <pt x="-55" y="0" on="1"/>
        <pt x="676" y="1522" on="1"/>
        <pt x="1710" y="1522" on="1"/>
        <pt x="1710" y="1391" on="1"/>
        <pt x="1008" y="1391" on="1"/>
        <pt x="1008" y="850" on="1"/>
        <pt x="1534" y="850" on="1"/>
        <pt x="1534" y="719" on="1"/>
        <pt x="1008" y="719" on="1"/>
        <pt x="1008" y="133" on="1"/>
      </contour>
      <contour>
        <pt x="839" y="544" on="1"/>
        <pt x="839" y="1410" on="1"/>
        <pt x="808" y="1410" on="1"/>
        <pt x="394" y="544" on="1"/>
      </contour>
    </TTGlyph>
    <TTGlyph name="AEacute" xMin="-55" yMin="0" xMax="1784" yMax="1975">
      <component glyphName="acute.cap" x="843" y="0" flags="0x0"/>
      <component glyphName="AE" x="0" y="0" flags="0x0"/>
    </TTGlyph>
    <TTGlyph name="Aacute" xMin="33" yMin="0" xMax="1361" yMax="1975">
      <component glyphName="A" x="0" y="0" flags="0x0"/>
      <component glyphName="acute.cap" x="523" y="0" flags="0x0"/>
    </TTGlyph>
    <TTGlyph name="Abreve" xMin="33" yMin="0" xMax="1361" yMax="1967">
      <component glyphName="A" x="0" y="0" flags="0x0"/>
      <component glyphName="breve.cap" x="311" y="0" flags="0x0"/>
    </TTGlyph>
    <TTGlyph name="Acircumflex" xMin="33" yMin="0" xMax="1361" yMax="1982">
      <component glyphName="A" x="0" y="0" flags="0x0"/>
      <component glyphName="circumflex.cap" x="297" y="0" flags="0x0"/>
    </TTGlyph>
    <TTGlyph name="Adieresis" xMin="33" yMin="0" xMax="1361" yMax="1922">
      <component glyphName="A" x="0" y="0" flags="0x0"/>
      <component glyphName="dieresis.cap" x="296" y="0" flags="0x0"/>
    </TTGlyph>
    <TTGlyph name="Agrave" xMin="33" yMin="0" xMax="1361" yMax="1975">
      <component glyphName="A" x="0" y="0" flags="0x0"/>
      <component glyphName="grave.cap" x="310" y="0" flags="0x0"/>
    </TTGlyph>
    <TTGlyph name="Amacron" xMin="33" yMin="0" xMax="1361" yMax="1867">
      <component glyphName="A" x="0" y="0" flags="0x0"/>
      <component glyphName="macron.cap" x="379" y="0" flags="0x0"/>
    </TTGlyph>
    <TTGlyph name="Aogonek" xMin="33" yMin="-512" xMax="1377" yMax="1538">
      <contour>
        <pt x="1297" y="-397" on="0"/>
        <pt x="1377" y="-358" on="1"/>
        <pt x="1377" y="-450" on="1"/>
        <pt x="1338" y="-480" on="0"/>
        <pt x="1209" y="-512" on="0"/>
        <pt x="1143" y="-512" on="1"/>
        <pt x="1037" y="-512" on="0"/>
        <pt x="902" y="-408" on="0"/>
        <pt x="902" y="-310" on="1"/>
        <pt x="902" y="-217" on="0"/>
        <pt x="1076" y="-58" on="0"/>
        <pt x="1191" y="0" on="1"/>
        <pt x="1178" y="0" on="1"/>
        <pt x="1031" y="418" on="1"/>
        <pt x="366" y="418" on="1"/>
        <pt x="213" y="0" on="1"/>
        <pt x="33" y="0" on="1"/>
        <pt x="621" y="1538" on="1"/>
        <pt x="787" y="1538" on="1"/>
        <pt x="1361" y="0" on="1"/>
        <pt x="1324" y="0" on="1"/>
        <pt x="1222" y="-56" on="0"/>
        <pt x="1066" y="-201" on="0"/>
        <pt x="1066" y="-279" on="1"/>
        <pt x="1066" y="-345" on="0"/>
        <pt x="1146" y="-399" on="0"/>
        <pt x="1216" y="-399" on="1"/>
      </contour>
      <contour>
        <pt x="987" y="545" on="1"/>
        <pt x="743" y="1240" on="1"/>
        <pt x="705" y="1360" on="1"/>
        <pt x="667" y="1239" on="1"/>
        <pt x="413" y="545" on="1"/>
      </contour>
    </TTGlyph>
    <TTGlyph name="Aring" xMin="33" yMin="0" xMax="1361" yMax="1972">
      <contour>
        <pt x="1031" y="418" on="1"/>
        <pt x="366" y="418" on="1"/>
        <pt x="213" y="0" on="1"/>
        <pt x="33" y="0" on="1"/>
        <pt x="595" y="1469" on="1"/>
        <pt x="497" y="1492" on="0"/>
        <pt x="388" y="1620" on="0"/>
        <pt x="388" y="1716" on="1"/>
        <pt x="388" y="1805" on="0"/>
        <pt x="476" y="1920" on="0"/>
        <pt x="617" y="1972" on="0"/>
        <pt x="699" y="1972" on="1"/>
        <pt x="842" y="1972" on="0"/>
        <pt x="1007" y="1842" on="0"/>
        <pt x="1007" y="1721" on="1"/>
        <pt x="1007" y="1622" on="0"/>
        <pt x="900" y="1498" on="0"/>
        <pt x="811" y="1474" on="1"/>
        <pt x="1361" y="0" on="1"/>
        <pt x="1178" y="0" on="1"/>
      </contour>
      <contour>
        <pt x="507" y="1643" on="0"/>
        <pt x="609" y="1556" on="0"/>
        <pt x="699" y="1556" on="1"/>
        <pt x="785" y="1556" on="0"/>
        <pt x="889" y="1635" on="0"/>
        <pt x="889" y="1718" on="1"/>
        <pt x="889" y="1794" on="0"/>
        <pt x="785" y="1876" on="0"/>
        <pt x="698" y="1877" on="1"/>
        <pt x="617" y="1877" on="0"/>
        <pt x="507" y="1803" on="0"/>
        <pt x="507" y="1719" on="1"/>
      </contour>
      <contour>
        <pt x="987" y="545" on="1"/>
        <pt x="743" y="1240" on="1"/>
        <pt x="705" y="1360" on="1"/>
        <pt x="667" y="1239" on="1"/>
        <pt x="413" y="545" on="1"/>
      </contour>
    </TTGlyph>
    <TTGlyph name="Atilde" xMin="33" yMin="0" xMax="1361" yMax="1944">
      <component glyphName="A" x="0" y="0" flags="0x0"/>
      <component glyphName="tilde.cap" x="240" y="0" flags="0x0"/>
    </TTGlyph>
    <TTGlyph name="B" xMin="206" yMin="-14" xMax="1241" yMax="1535">
      <contour>
        <pt x="298" y="1522" on="1"/>
        <pt x="358" y="1522" on="0"/>
        <pt x="460" y="1528" on="1"/>
        <pt x="553" y="1535" on="0"/>
        <pt x="638" y="1535" on="1"/>
        <pt x="885" y="1535" on="0"/>
        <pt x="1136" y="1350" on="0"/>
        <pt x="1136" y="1179" on="1"/>
        <pt x="1136" y="1101" on="0"/>
        <pt x="1086" y="950" on="0"/>
        <pt x="977" y="835" on="0"/>
        <pt x="892" y="814" on="1"/>
        <pt x="985" y="810" on="0"/>
        <pt x="1145" y="712" on="0"/>
        <pt x="1241" y="550" on="0"/>
        <pt x="1241" y="453" on="1"/>
        <pt x="1241" y="225" on="0"/>
        <pt x="962" y="-14" on="0"/>
        <pt x="641" y="-14" on="1"/>
        <pt x="579" y="-14" on="0"/>
        <pt x="401" y="-5" on="1"/>
        <pt x="322" y="-1" on="0"/>
        <pt x="295" y="0" on="1"/>
        <pt x="206" y="0" on="1"/>
        <pt x="206" y="1523" on="1"/>
      </contour>
      <contour>
        <pt x="839" y="853" on="0"/>
        <pt x="972" y="1018" on="0"/>
        <pt x="972" y="1155" on="1"/>
        <pt x="972" y="1415" on="0"/>
        <pt x="606" y="1415" on="1"/>
        <pt x="556" y="1415" on="0"/>
        <pt x="411" y="1408" on="0"/>
        <pt x="374" y="1403" on="1"/>
        <pt x="374" y="848" on="1"/>
        <pt x="413" y="843" on="0"/>
        <pt x="533" y="843" on="1"/>
        <pt x="721" y="844" on="1"/>
      </contour>
      <contour>
        <pt x="864" y="110" on="0"/>
        <pt x="1069" y="259" on="0"/>
        <pt x="1069" y="433" on="1"/>
        <pt x="1069" y="580" on="0"/>
        <pt x="881" y="720" on="0"/>
        <pt x="703" y="723" on="1"/>
        <pt x="569" y="723" on="1"/>
        <pt x="405" y="723" on="0"/>
        <pt x="374" y="719" on="1"/>
        <pt x="374" y="130" on="1"/>
        <pt x="479" y="110" on="0"/>
        <pt x="660" y="110" on="1"/>
      </contour>
    </TTGlyph>
    <TTGlyph name="C" xMin="107" yMin="-16" xMax="1200" yMax="1538">
      <contour>
        <pt x="927" y="1538" on="0"/>
        <pt x="1088" y="1511" on="0"/>
        <pt x="1160" y="1490" on="1"/>
        <pt x="1200" y="1480" on="1"/>
        <pt x="1176" y="1330" on="1"/>
        <pt x="1149" y="1340" on="1"/>
        <pt x="1087" y="1366" on="0"/>
        <pt x="937" y="1400" on="0"/>
        <pt x="812" y="1400" on="1"/>
        <pt x="653" y="1400" on="0"/>
        <pt x="410" y="1251" on="0"/>
        <pt x="275" y="965" on="0"/>
        <pt x="275" y="766" on="1"/>
        <pt x="275" y="579" on="0"/>
        <pt x="401" y="285" on="0"/>
        <pt x="639" y="118" on="0"/>
        <pt x="802" y="118" on="1"/>
        <pt x="890" y="118" on="0"/>
        <pt x="1050" y="147" on="0"/>
        <pt x="1167" y="188" on="0"/>
        <pt x="1197" y="208" on="1"/>
        <pt x="1199" y="64" on="1"/>
        <pt x="1152" y="48" on="1"/>
        <pt x="1068" y="18" on="0"/>
        <pt x="914" y="-16" on="0"/>
        <pt x="795" y="-16" on="1"/>
        <pt x="588" y="-16" on="0"/>
        <pt x="277" y="176" on="0"/>
        <pt x="107" y="525" on="0"/>
        <pt x="107" y="754" on="1"/>
        <pt x="107" y="998" on="0"/>
        <pt x="293" y="1353" on="0"/>
        <pt x="610" y="1538" on="0"/>
        <pt x="803" y="1538" on="1"/>
      </contour>
    </TTGlyph>
    <TTGlyph name="Cacute" xMin="107" yMin="-16" xMax="1200" yMax="1975">
      <component glyphName="C" x="0" y="0" flags="0x0"/>
      <component glyphName="acute.cap" x="627" y="0" flags="0x0"/>
    </TTGlyph>
    <TTGlyph name="Ccaron" xMin="107" yMin="-16" xMax="1200" yMax="1982">
      <component glyphName="C" x="0" y="0" flags="0x0"/>
      <component glyphName="caron.cap" x="412" y="0" flags="0x0"/>
    </TTGlyph>
    <TTGlyph name="Ccedilla" xMin="107" yMin="-464" xMax="1200" yMax="1538">
      <contour>
        <pt x="1199" y="64" on="1"/>
        <pt x="1183" y="59" on="0"/>
        <pt x="1151" y="47" on="1"/>
        <pt x="1072" y="20" on="0"/>
        <pt x="944" y="-11" on="0"/>
        <pt x="849" y="-15" on="1"/>
        <pt x="880" y="-83" on="0"/>
        <pt x="880" y="-190" on="1"/>
        <pt x="880" y="-218" on="0"/>
        <pt x="879" y="-232" on="1"/>
        <pt x="872" y="-351" on="0"/>
        <pt x="745" y="-464" on="0"/>
        <pt x="650" y="-464" on="1"/>
        <pt x="612" y="-464" on="0"/>
        <pt x="527" y="-448" on="0"/>
        <pt x="510" y="-436" on="1"/>
        <pt x="522" y="-327" on="1"/>
        <pt x="535" y="-335" on="0"/>
        <pt x="584" y="-345" on="0"/>
        <pt x="612" y="-345" on="1"/>
        <pt x="675" y="-345" on="0"/>
        <pt x="751" y="-265" on="0"/>
        <pt x="755" y="-180" on="1"/>
        <pt x="758" y="-149" on="0"/>
        <pt x="758" y="-122" on="1"/>
        <pt x="758" y="-61" on="0"/>
        <pt x="744" y="-14" on="1"/>
        <pt x="551" y="-2" on="0"/>
        <pt x="263" y="195" on="0"/>
        <pt x="107" y="535" on="0"/>
        <pt x="107" y="754" on="1"/>
        <pt x="107" y="998" on="0"/>
        <pt x="293" y="1353" on="0"/>
        <pt x="610" y="1538" on="0"/>
        <pt x="803" y="1538" on="1"/>
        <pt x="927" y="1538" on="0"/>
        <pt x="1088" y="1511" on="0"/>
        <pt x="1160" y="1490" on="1"/>
        <pt x="1200" y="1480" on="1"/>
        <pt x="1176" y="1330" on="1"/>
        <pt x="1149" y="1340" on="1"/>
        <pt x="1087" y="1366" on="0"/>
        <pt x="937" y="1400" on="0"/>
        <pt x="812" y="1400" on="1"/>
        <pt x="653" y="1400" on="0"/>
        <pt x="410" y="1251" on="0"/>
        <pt x="275" y="965" on="0"/>
        <pt x="275" y="766" on="1"/>
        <pt x="275" y="579" on="0"/>
        <pt x="401" y="285" on="0"/>
        <pt x="639" y="118" on="0"/>
        <pt x="802" y="118" on="1"/>
        <pt x="890" y="118" on="0"/>
        <pt x="1050" y="147" on="0"/>
        <pt x="1167" y="188" on="0"/>
        <pt x="1197" y="208" on="1"/>
      </contour>
    </TTGlyph>
    <TTGlyph name="Ccircumflex" xMin="107" yMin="-16" xMax="1200" yMax="1982">
      <component glyphName="C" x="0" y="0" flags="0x0"/>
      <component glyphName="circumflex.cap" x="401" y="0" flags="0x0"/>
    </TTGlyph>
    <TTGlyph name="Cdotaccent" xMin="107" yMin="-16" xMax="1200" yMax="1926">
      <component glyphName="dotaccent.cap" x="638" y="0" flags="0x0"/>
      <component glyphName="C" x="0" y="0" flags="0x0"/>
    </TTGlyph>
    <TTGlyph name="D" xMin="206" yMin="-16" xMax="1385" yMax="1536">
      <contour>
        <pt x="313" y="1522" on="0"/>
        <pt x="326" y="1523" on="1"/>
        <pt x="368" y="1523" on="0"/>
        <pt x="476" y="1529" on="1"/>
        <pt x="616" y="1536" on="0"/>
        <pt x="664" y="1536" on="1"/>
        <pt x="903" y="1536" on="0"/>
        <pt x="1225" y="1364" on="0"/>
        <pt x="1385" y="1037" on="0"/>
        <pt x="1384" y="805" on="1"/>
        <pt x="1384" y="557" on="0"/>
        <pt x="1213" y="187" on="0"/>
        <pt x="884" y="-16" on="0"/>
        <pt x="655" y="-16" on="1"/>
        <pt x="617" y="-16" on="0"/>
        <pt x="497" y="-10" on="1"/>
        <pt x="397" y="-3" on="0"/>
        <pt x="317" y="-2" on="1"/>
        <pt x="277" y="0" on="0"/>
        <pt x="206" y="0" on="1"/>
        <pt x="206" y="1522" on="1"/>
      </contour>
      <contour>
        <pt x="830" y="112" on="0"/>
        <pt x="1074" y="259" on="0"/>
        <pt x="1208" y="561" on="0"/>
        <pt x="1208" y="787" on="1"/>
        <pt x="1208" y="1113" on="0"/>
        <pt x="919" y="1413" on="0"/>
        <pt x="624" y="1413" on="1"/>
        <pt x="513" y="1413" on="0"/>
        <pt x="375" y="1399" on="1"/>
        <pt x="375" y="128" on="1"/>
        <pt x="433" y="120" on="0"/>
        <pt x="600" y="109" on="0"/>
        <pt x="665" y="110" on="1"/>
      </contour>
    </TTGlyph>
    <TTGlyph name="Dcaron" xMin="206" yMin="-16" xMax="1385" yMax="1982">
      <component glyphName="caron.cap" x="324" y="0" flags="0x0"/>
      <component glyphName="D" x="0" y="0" flags="0x0"/>
    </TTGlyph>
    <TTGlyph name="Dcroat" xMin="62" yMin="-16" xMax="1385" yMax="1536">
      <contour>
        <pt x="903" y="1536" on="0"/>
        <pt x="1225" y="1364" on="0"/>
        <pt x="1385" y="1037" on="0"/>
        <pt x="1384" y="805" on="1"/>
        <pt x="1384" y="557" on="0"/>
        <pt x="1213" y="187" on="0"/>
        <pt x="884" y="-16" on="0"/>
        <pt x="655" y="-16" on="1"/>
        <pt x="617" y="-16" on="0"/>
        <pt x="497" y="-10" on="1"/>
        <pt x="397" y="-3" on="0"/>
        <pt x="317" y="-2" on="1"/>
        <pt x="277" y="0" on="0"/>
        <pt x="206" y="0" on="1"/>
        <pt x="206" y="737" on="1"/>
        <pt x="62" y="737" on="1"/>
        <pt x="62" y="851" on="1"/>
        <pt x="206" y="851" on="1"/>
        <pt x="206" y="1522" on="1"/>
        <pt x="313" y="1522" on="0"/>
        <pt x="326" y="1523" on="1"/>
        <pt x="368" y="1523" on="0"/>
        <pt x="476" y="1529" on="1"/>
        <pt x="616" y="1536" on="0"/>
        <pt x="664" y="1536" on="1"/>
      </contour>
      <contour>
        <pt x="1208" y="1113" on="0"/>
        <pt x="919" y="1413" on="0"/>
        <pt x="624" y="1413" on="1"/>
        <pt x="513" y="1413" on="0"/>
        <pt x="375" y="1399" on="1"/>
        <pt x="375" y="851" on="1"/>
        <pt x="809" y="851" on="1"/>
        <pt x="809" y="737" on="1"/>
        <pt x="375" y="737" on="1"/>
        <pt x="375" y="128" on="1"/>
        <pt x="433" y="120" on="0"/>
        <pt x="600" y="109" on="0"/>
        <pt x="665" y="110" on="1"/>
        <pt x="830" y="112" on="0"/>
        <pt x="1074" y="259" on="0"/>
        <pt x="1208" y="561" on="0"/>
        <pt x="1208" y="787" on="1"/>
      </contour>
    </TTGlyph>
    <TTGlyph name="E" xMin="206" yMin="0" xMax="1137" yMax="1522">
      <contour>
        <pt x="1064" y="1522" on="1"/>
        <pt x="1064" y="1391" on="1"/>
        <pt x="375" y="1391" on="1"/>
        <pt x="375" y="852" on="1"/>
        <pt x="878" y="852" on="1"/>
        <pt x="878" y="721" on="1"/>
        <pt x="375" y="721" on="1"/>
        <pt x="375" y="133" on="1"/>
        <pt x="1137" y="133" on="1"/>
        <pt x="1137" y="0" on="1"/>
        <pt x="206" y="0" on="1"/>
        <pt x="206" y="1522" on="1"/>
      </contour>
    </TTGlyph>
    <TTGlyph name="Eacute" xMin="206" yMin="0" xMax="1137" yMax="1975">
      <component glyphName="acute.cap" x="497" y="0" flags="0x0"/>
      <component glyphName="E" x="0" y="0" flags="0x0"/>
    </TTGlyph>
    <TTGlyph name="Ebreve" xMin="206" yMin="0" xMax="1137" yMax="1967">
      <component glyphName="breve.cap" x="286" y="0" flags="0x0"/>
      <component glyphName="E" x="0" y="0" flags="0x0"/>
    </TTGlyph>
    <TTGlyph name="Ecaron" xMin="206" yMin="0" xMax="1137" yMax="1982">
      <component glyphName="caron.cap" x="283" y="0" flags="0x0"/>
      <component glyphName="E" x="0" y="0" flags="0x0"/>
    </TTGlyph>
    <TTGlyph name="Ecircumflex" xMin="206" yMin="0" xMax="1137" yMax="1982">
      <component glyphName="E" x="0" y="0" flags="0x0"/>
      <component glyphName="circumflex.cap" x="272" y="0" flags="0x0"/>
    </TTGlyph>
    <TTGlyph name="Edieresis" xMin="206" yMin="0" xMax="1137" yMax="1922">
      <component glyphName="dieresis.cap" x="271" y="0" flags="0x0"/>
      <component glyphName="E" x="0" y="0" flags="0x0"/>
    </TTGlyph>
    <TTGlyph name="Edotaccent" xMin="206" yMin="0" xMax="1137" yMax="1926">
      <component glyphName="dotaccent.cap" x="509" y="0" flags="0x0"/>
      <component glyphName="E" x="0" y="0" flags="0x0"/>
    </TTGlyph>
    <TTGlyph name="Egrave" xMin="206" yMin="0" xMax="1137" yMax="1975">
      <component glyphName="grave.cap" x="285" y="0" flags="0x0"/>
      <component glyphName="E" x="0" y="0" flags="0x0"/>
    </TTGlyph>
    <TTGlyph name="Emacron" xMin="206" yMin="0" xMax="1137" yMax="1867">
      <component glyphName="macron.cap" x="353" y="0" flags="0x0"/>
      <component glyphName="E" x="0" y="0" flags="0x0"/>
    </TTGlyph>
    <TTGlyph name="Eng" xMin="205" yMin="-403" xMax="1368" yMax="1522">
      <contour>
        <pt x="1368" y="1522" on="1"/>
        <pt x="1368" y="405" on="1"/>
        <pt x="1368" y="270" on="0"/>
        <pt x="1350" y="75" on="0"/>
        <pt x="1321" y="-8" on="1"/>
        <pt x="1288" y="-116" on="0"/>
        <pt x="1126" y="-285" on="0"/>
        <pt x="920" y="-388" on="0"/>
        <pt x="822" y="-403" on="1"/>
        <pt x="778" y="-323" on="1"/>
        <pt x="877" y="-295" on="0"/>
        <pt x="1067" y="-175" on="0"/>
        <pt x="1188" y="-30" on="0"/>
        <pt x="1189" y="35" on="1"/>
        <pt x="506" y="1040" on="1"/>
        <pt x="362" y="1286" on="1"/>
        <pt x="371" y="972" on="1"/>
        <pt x="371" y="0" on="1"/>
        <pt x="206" y="0" on="1"/>
        <pt x="205" y="1522" on="1"/>
        <pt x="363" y="1522" on="1"/>
        <pt x="1083" y="455" on="1"/>
        <pt x="1217" y="219" on="1"/>
        <pt x="1202" y="523" on="1"/>
        <pt x="1202" y="1522" on="1"/>
      </contour>
    </TTGlyph>
    <TTGlyph name="Eogonek" xMin="206" yMin="-512" xMax="1137" yMax="1522">
      <contour>
        <pt x="953" y="-55" on="0"/>
        <pt x="791" y="-200" on="0"/>
        <pt x="791" y="-278" on="1"/>
        <pt x="791" y="-345" on="0"/>
        <pt x="870" y="-399" on="0"/>
        <pt x="940" y="-399" on="1"/>
        <pt x="1020" y="-397" on="0"/>
        <pt x="1099" y="-358" on="1"/>
        <pt x="1099" y="-450" on="1"/>
        <pt x="1061" y="-479" on="0"/>
        <pt x="933" y="-512" on="0"/>
        <pt x="868" y="-512" on="1"/>
        <pt x="760" y="-512" on="0"/>
        <pt x="627" y="-415" on="0"/>
        <pt x="627" y="-316" on="1"/>
        <pt x="627" y="-251" on="0"/>
        <pt x="713" y="-128" on="0"/>
        <pt x="848" y="-31" on="0"/>
        <pt x="923" y="0" on="1"/>
        <pt x="206" y="0" on="1"/>
        <pt x="206" y="1522" on="1"/>
        <pt x="1064" y="1522" on="1"/>
        <pt x="1064" y="1391" on="1"/>
        <pt x="375" y="1391" on="1"/>
        <pt x="375" y="852" on="1"/>
        <pt x="878" y="852" on="1"/>
        <pt x="878" y="721" on="1"/>
        <pt x="375" y="721" on="1"/>
        <pt x="375" y="133" on="1"/>
        <pt x="1137" y="133" on="1"/>
        <pt x="1137" y="0" on="1"/>
        <pt x="1058" y="0" on="1"/>
      </contour>
    </TTGlyph>
    <TTGlyph name="Eth" xMin="62" yMin="-16" xMax="1385" yMax="1536">
      <contour>
        <pt x="903" y="1536" on="0"/>
        <pt x="1225" y="1364" on="0"/>
        <pt x="1385" y="1037" on="0"/>
        <pt x="1384" y="805" on="1"/>
        <pt x="1384" y="557" on="0"/>
        <pt x="1213" y="187" on="0"/>
        <pt x="884" y="-16" on="0"/>
        <pt x="655" y="-16" on="1"/>
        <pt x="617" y="-16" on="0"/>
        <pt x="497" y="-10" on="1"/>
        <pt x="397" y="-3" on="0"/>
        <pt x="317" y="-2" on="1"/>
        <pt x="277" y="0" on="0"/>
        <pt x="206" y="0" on="1"/>
        <pt x="206" y="737" on="1"/>
        <pt x="62" y="737" on="1"/>
        <pt x="62" y="851" on="1"/>
        <pt x="206" y="851" on="1"/>
        <pt x="206" y="1522" on="1"/>
        <pt x="313" y="1522" on="0"/>
        <pt x="326" y="1523" on="1"/>
        <pt x="368" y="1523" on="0"/>
        <pt x="476" y="1529" on="1"/>
        <pt x="616" y="1536" on="0"/>
        <pt x="664" y="1536" on="1"/>
      </contour>
      <contour>
        <pt x="1208" y="1113" on="0"/>
        <pt x="919" y="1413" on="0"/>
        <pt x="624" y="1413" on="1"/>
        <pt x="513" y="1413" on="0"/>
        <pt x="375" y="1399" on="1"/>
        <pt x="375" y="851" on="1"/>
        <pt x="809" y="851" on="1"/>
        <pt x="809" y="737" on="1"/>
        <pt x="375" y="737" on="1"/>
        <pt x="375" y="128" on="1"/>
        <pt x="433" y="120" on="0"/>
        <pt x="600" y="109" on="0"/>
        <pt x="665" y="110" on="1"/>
        <pt x="830" y="112" on="0"/>
        <pt x="1074" y="259" on="0"/>
        <pt x="1208" y="561" on="0"/>
        <pt x="1208" y="787" on="1"/>
      </contour>
    </TTGlyph>
    <TTGlyph name="Euro" xMin="119" yMin="-28" xMax="1371" yMax="1539">
      <contour>
        <pt x="1371" y="61" on="1"/>
        <pt x="1348" y="57" on="0"/>
        <pt x="1295" y="38" on="0"/>
        <pt x="1290" y="36" on="1"/>
        <pt x="1214" y="7" on="0"/>
        <pt x="1053" y="-28" on="0"/>
        <pt x="919" y="-28" on="1"/>
        <pt x="751" y="-28" on="0"/>
        <pt x="503" y="108" on="0"/>
        <pt x="352" y="357" on="0"/>
        <pt x="325" y="527" on="1"/>
        <pt x="119" y="527" on="1"/>
        <pt x="119" y="637" on="1"/>
        <pt x="313" y="637" on="1"/>
        <pt x="311" y="691" on="0"/>
        <pt x="311" y="720" on="1"/>
        <pt x="311" y="815" on="0"/>
        <pt x="323" y="899" on="1"/>
        <pt x="150" y="899" on="1"/>
        <pt x="150" y="1008" on="1"/>
        <pt x="343" y="1008" on="1"/>
        <pt x="383" y="1172" on="0"/>
        <pt x="558" y="1407" on="0"/>
        <pt x="813" y="1534" on="0"/>
        <pt x="973" y="1538" on="1"/>
        <pt x="1007" y="1539" on="1"/>
        <pt x="1098" y="1539" on="0"/>
        <pt x="1219" y="1514" on="0"/>
        <pt x="1287" y="1492" on="1"/>
        <pt x="1332" y="1478" on="0"/>
        <pt x="1342" y="1475" on="1"/>
        <pt x="1301" y="1341" on="1"/>
        <pt x="1237" y="1375" on="0"/>
        <pt x="1086" y="1410" on="0"/>
        <pt x="969" y="1411" on="1"/>
        <pt x="862" y="1411" on="0"/>
        <pt x="681" y="1322" on="0"/>
        <pt x="549" y="1141" on="0"/>
        <pt x="518" y="1008" on="1"/>
        <pt x="1105" y="1008" on="1"/>
        <pt x="1105" y="899" on="1"/>
        <pt x="500" y="899" on="1"/>
        <pt x="493" y="842" on="0"/>
        <pt x="493" y="767" on="1"/>
        <pt x="493" y="690" on="0"/>
        <pt x="498" y="637" on="1"/>
        <pt x="1072" y="637" on="1"/>
        <pt x="1072" y="527" on="1"/>
        <pt x="510" y="527" on="1"/>
        <pt x="580" y="95" on="0"/>
        <pt x="940" y="95" on="1"/>
        <pt x="1061" y="95" on="0"/>
        <pt x="1257" y="149" on="0"/>
        <pt x="1325" y="187" on="1"/>
      </contour>
    </TTGlyph>
    <TTGlyph name="F" xMin="206" yMin="0" xMax="1057" yMax="1522">
      <contour>
        <pt x="1057" y="1522" on="1"/>
        <pt x="1057" y="1391" on="1"/>
        <pt x="375" y="1391" on="1"/>
        <pt x="375" y="830" on="1"/>
        <pt x="884" y="830" on="1"/>
        <pt x="884" y="699" on="1"/>
        <pt x="375" y="699" on="1"/>
        <pt x="375" y="0" on="1"/>
        <pt x="206" y="0" on="1"/>
        <pt x="206" y="1522" on="1"/>
      </contour>
    </TTGlyph>
    <TTGlyph name="G" xMin="110" yMin="-16" xMax="1321" yMax="1538">
      <contour>
        <pt x="1321" y="750" on="1"/>
        <pt x="1321" y="91" on="1"/>
        <pt x="1302" y="90" on="0"/>
        <pt x="1260" y="77" on="0"/>
        <pt x="1220" y="62" on="1"/>
        <pt x="1126" y="27" on="0"/>
        <pt x="940" y="-16" on="0"/>
        <pt x="803" y="-16" on="1"/>
        <pt x="590" y="-16" on="0"/>
        <pt x="276" y="182" on="0"/>
        <pt x="110" y="530" on="0"/>
        <pt x="110" y="750" on="1"/>
        <pt x="110" y="1002" on="0"/>
        <pt x="295" y="1358" on="0"/>
        <pt x="615" y="1538" on="0"/>
        <pt x="815" y="1538" on="1"/>
        <pt x="924" y="1538" on="0"/>
        <pt x="1068" y="1517" on="0"/>
        <pt x="1149" y="1496" on="1"/>
        <pt x="1193" y="1485" on="0"/>
        <pt x="1235" y="1477" on="1"/>
        <pt x="1228" y="1325" on="1"/>
        <pt x="1150" y="1361" on="0"/>
        <pt x="949" y="1405" on="0"/>
        <pt x="805" y="1405" on="1"/>
        <pt x="660" y="1405" on="0"/>
        <pt x="424" y="1258" on="0"/>
        <pt x="286" y="971" on="0"/>
        <pt x="286" y="770" on="1"/>
        <pt x="286" y="579" on="0"/>
        <pt x="407" y="281" on="0"/>
        <pt x="639" y="114" on="0"/>
        <pt x="800" y="114" on="1"/>
        <pt x="912" y="114" on="0"/>
        <pt x="1108" y="155" on="0"/>
        <pt x="1158" y="181" on="1"/>
        <pt x="1158" y="618" on="1"/>
        <pt x="842" y="628" on="1"/>
        <pt x="842" y="750" on="1"/>
      </contour>
    </TTGlyph>
    <TTGlyph name="Gbreve" xMin="110" yMin="-16" xMax="1321" yMax="1967">
      <component glyphName="breve.cap" x="432" y="0" flags="0x0"/>
      <component glyphName="G" x="0" y="0" flags="0x0"/>
    </TTGlyph>
    <TTGlyph name="Gcaron" xMin="110" yMin="-16" xMax="1321" yMax="1982">
      <component glyphName="G" x="0" y="0" flags="0x0"/>
      <component glyphName="caron.cap" x="428" y="0" flags="0x0"/>
    </TTGlyph>
    <TTGlyph name="Gcircumflex" xMin="110" yMin="-16" xMax="1321" yMax="1982">
      <component glyphName="G" x="0" y="0" flags="0x0"/>
      <component glyphName="circumflex.cap" x="417" y="0" flags="0x0"/>
    </TTGlyph>
    <TTGlyph name="Gcommaaccent" xMin="110" yMin="-560" xMax="1321" yMax="1538">
      <component glyphName="uni0326" x="988" y="0" flags="0x0"/>
      <component glyphName="G" x="0" y="0" flags="0x0"/>
    </TTGlyph>
    <TTGlyph name="Gdotaccent" xMin="110" yMin="-16" xMax="1321" yMax="1926">
      <component glyphName="dotaccent.cap" x="655" y="0" flags="0x0"/>
      <component glyphName="G" x="0" y="0" flags="0x0"/>
    </TTGlyph>
    <TTGlyph name="Gtilde" xMin="110" yMin="-16" xMax="1321" yMax="1944">
      <component glyphName="G" x="0" y="0" flags="0x0"/>
      <component glyphName="tilde.cap" x="360" y="0" flags="0x0"/>
    </TTGlyph>
    <TTGlyph name="H" xMin="206" yMin="0" xMax="1336" yMax="1522">
      <contour>
        <pt x="375" y="1522" on="1"/>
        <pt x="375" y="840" on="1"/>
        <pt x="1167" y="840" on="1"/>
        <pt x="1167" y="1522" on="1"/>
        <pt x="1336" y="1522" on="1"/>
        <pt x="1336" y="0" on="1"/>
        <pt x="1167" y="0" on="1"/>
        <pt x="1167" y="710" on="1"/>
        <pt x="375" y="710" on="1"/>
        <pt x="375" y="0" on="1"/>
        <pt x="206" y="0" on="1"/>
        <pt x="206" y="1522" on="1"/>
      </contour>
    </TTGlyph>
    <TTGlyph name="Hbar" xMin="11" yMin="0" xMax="1559" yMax="1522">
      <contour>
        <pt x="1559" y="1085" on="1"/>
        <pt x="1344" y="1085" on="1"/>
        <pt x="1344" y="0" on="1"/>
        <pt x="1175" y="0" on="1"/>
        <pt x="1175" y="703" on="1"/>
        <pt x="375" y="703" on="1"/>
        <pt x="375" y="0" on="1"/>
        <pt x="206" y="0" on="1"/>
        <pt x="206" y="1085" on="1"/>
        <pt x="11" y="1085" on="1"/>
        <pt x="11" y="1193" on="1"/>
        <pt x="206" y="1193" on="1"/>
        <pt x="206" y="1522" on="1"/>
        <pt x="375" y="1522" on="1"/>
        <pt x="375" y="1193" on="1"/>
        <pt x="1175" y="1193" on="1"/>
        <pt x="1175" y="1522" on="1"/>
        <pt x="1344" y="1522" on="1"/>
        <pt x="1344" y="1193" on="1"/>
        <pt x="1559" y="1193" on="1"/>
      </contour>
      <contour>
        <pt x="1175" y="1085" on="1"/>
        <pt x="375" y="1085" on="1"/>
        <pt x="375" y="833" on="1"/>
        <pt x="1175" y="833" on="1"/>
      </contour>
    </TTGlyph>
    <TTGlyph name="Hcircumflex" xMin="206" yMin="0" xMax="1336" yMax="1982">
      <component glyphName="H" x="0" y="0" flags="0x0"/>
      <component glyphName="circumflex.cap" x="371" y="0" flags="0x0"/>
    </TTGlyph>
    <TTGlyph name="I" xMin="221" yMin="0" xMax="392" yMax="1522">
      <contour>
        <pt x="392" y="1522" on="1"/>
        <pt x="392" y="0" on="1"/>
        <pt x="221" y="0" on="1"/>
        <pt x="221" y="1522" on="1"/>
      </contour>
    </TTGlyph>
    <TTGlyph name="I.uc" xMin="194" yMin="0" xMax="421" yMax="1926">
      <component glyphName="I" x="0" y="0" flags="0x0"/>
      <component glyphName="dotaccent.cap" x="143" y="0" flags="0x0"/>
    </TTGlyph>
    <TTGlyph name="IJ" xMin="221" yMin="-332" xMax="1078" yMax="1522">
      <component glyphName="I" x="0" y="0" flags="0x0"/>
      <component glyphName="J" x="613" y="0" flags="0x0"/>
    </TTGlyph>
    <TTGlyph name="IJ_acutecomb" xMin="188" yMin="-332" xMax="1319" yMax="1975">
      <contour>
        <pt x="227" y="1691" on="0"/>
        <pt x="507" y="1944" on="0"/>
        <pt x="535" y="1975" on="1"/>
        <pt x="646" y="1873" on="1"/>
        <pt x="566" y="1793" on="0"/>
        <pt x="351" y="1634" on="0"/>
        <pt x="260" y="1589" on="1"/>
        <pt x="188" y="1660" on="1"/>
      </contour>
      <contour>
        <pt x="900" y="1690" on="0"/>
        <pt x="1180" y="1943" on="0"/>
        <pt x="1208" y="1974" on="1"/>
        <pt x="1319" y="1872" on="1"/>
        <pt x="1239" y="1792" on="0"/>
        <pt x="1024" y="1633" on="0"/>
        <pt x="933" y="1588" on="1"/>
        <pt x="861" y="1659" on="1"/>
      </contour>
      <contour>
        <pt x="392" y="1522" on="1"/>
        <pt x="392" y="0" on="1"/>
        <pt x="221" y="0" on="1"/>
        <pt x="221" y="1522" on="1"/>
      </contour>
      <contour>
        <pt x="676" y="-215" on="0"/>
        <pt x="841" y="-74" on="0"/>
        <pt x="872" y="31" on="1"/>
        <pt x="894" y="103" on="0"/>
        <pt x="906" y="319" on="0"/>
        <pt x="906" y="492" on="1"/>
        <pt x="906" y="554" on="1"/>
        <pt x="906" y="1522" on="1"/>
        <pt x="1078" y="1522" on="1"/>
        <pt x="1078" y="537" on="1"/>
        <pt x="1078" y="385" on="1"/>
        <pt x="1078" y="280" on="0"/>
        <pt x="1071" y="129" on="0"/>
        <pt x="1059" y="65" on="1"/>
        <pt x="1038" y="-50" on="0"/>
        <pt x="902" y="-220" on="0"/>
        <pt x="720" y="-319" on="0"/>
        <pt x="627" y="-332" on="1"/>
        <pt x="574" y="-243" on="1"/>
      </contour>
    </TTGlyph>
    <TTGlyph name="Iacute" xMin="188" yMin="0" xMax="646" yMax="1975">
      <component glyphName="I" x="0" y="0" flags="0x0"/>
      <component glyphName="acute.cap" x="132" y="0" flags="0x0"/>
    </TTGlyph>
    <TTGlyph name="Ibreve" xMin="-32" yMin="0" xMax="645" yMax="1967">
      <component glyphName="I" x="0" y="0" flags="0x0"/>
      <component glyphName="breve.cap" x="-80" y="0" flags="0x0"/>
    </TTGlyph>
    <TTGlyph name="Icircumflex" xMin="-45" yMin="0" xMax="661" yMax="1982">
      <component glyphName="I" x="0" y="0" flags="0x0"/>
      <component glyphName="circumflex.cap" x="-94" y="0" flags="0x0"/>
    </TTGlyph>
    <TTGlyph name="Idieresis" xMin="-45" yMin="0" xMax="660" yMax="1922">
      <component glyphName="I" x="0" y="0" flags="0x0"/>
      <component glyphName="dieresis.cap" x="-95" y="0" flags="0x0"/>
    </TTGlyph>
    <TTGlyph name="Idotaccent" xMin="194" yMin="0" xMax="421" yMax="1926">
      <component glyphName="I" x="0" y="0" flags="0x0"/>
      <component glyphName="dotaccent.cap" x="143" y="0" flags="0x0"/>
    </TTGlyph>
    <TTGlyph name="Igrave" xMin="-31" yMin="0" xMax="427" yMax="1975">
      <component glyphName="I" x="0" y="0" flags="0x0"/>
      <component glyphName="grave.cap" x="-81" y="0" flags="0x0"/>
    </TTGlyph>
    <TTGlyph name="Imacron" xMin="38" yMin="0" xMax="581" yMax="1867">
      <component glyphName="I" x="0" y="0" flags="0x0"/>
      <component glyphName="macron.cap" x="-12" y="0" flags="0x0"/>
    </TTGlyph>
    <TTGlyph name="Iogonek" xMin="34" yMin="-512" xMax="515" yMax="1522">
      <contour>
        <pt x="435" y="-397" on="0"/>
        <pt x="515" y="-358" on="1"/>
        <pt x="515" y="-450" on="1"/>
        <pt x="476" y="-480" on="0"/>
        <pt x="352" y="-512" on="0"/>
        <pt x="287" y="-512" on="1"/>
        <pt x="215" y="-512" on="0"/>
        <pt x="100" y="-461" on="0"/>
        <pt x="34" y="-363" on="0"/>
        <pt x="34" y="-296" on="1"/>
        <pt x="34" y="-209" on="0"/>
        <pt x="160" y="-50" on="0"/>
        <pt x="242" y="0" on="1"/>
        <pt x="221" y="0" on="1"/>
        <pt x="221" y="1522" on="1"/>
        <pt x="392" y="1522" on="1"/>
        <pt x="392" y="0" on="1"/>
        <pt x="371" y="0" on="1"/>
        <pt x="299" y="-45" on="0"/>
        <pt x="198" y="-183" on="0"/>
        <pt x="198" y="-263" on="1"/>
        <pt x="198" y="-331" on="0"/>
        <pt x="284" y="-399" on="0"/>
        <pt x="352" y="-399" on="1"/>
      </contour>
    </TTGlyph>
    <TTGlyph name="Itilde" xMin="-103" yMin="0" xMax="719" yMax="1944">
      <component glyphName="I" x="0" y="0" flags="0x0"/>
      <component glyphName="tilde.cap" x="-151" y="0" flags="0x0"/>
    </TTGlyph>
    <TTGlyph name="J" xMin="-39" yMin="-332" xMax="465" yMax="1522">
      <contour>
        <pt x="63" y="-215" on="0"/>
        <pt x="228" y="-74" on="0"/>
        <pt x="259" y="31" on="1"/>
        <pt x="281" y="103" on="0"/>
        <pt x="293" y="319" on="0"/>
        <pt x="293" y="492" on="1"/>
        <pt x="293" y="554" on="1"/>
        <pt x="293" y="1522" on="1"/>
        <pt x="465" y="1522" on="1"/>
        <pt x="465" y="537" on="1"/>
        <pt x="465" y="385" on="1"/>
        <pt x="465" y="280" on="0"/>
        <pt x="458" y="129" on="0"/>
        <pt x="446" y="65" on="1"/>
        <pt x="425" y="-50" on="0"/>
        <pt x="289" y="-220" on="0"/>
        <pt x="107" y="-319" on="0"/>
        <pt x="14" y="-332" on="1"/>
        <pt x="-39" y="-243" on="1"/>
      </contour>
    </TTGlyph>
    <TTGlyph name="Jcircumflex" xMin="-39" yMin="-332" xMax="730" yMax="1982">
      <component glyphName="J" x="0" y="0" flags="0x0"/>
      <component glyphName="circumflex.cap" x="-25" y="0" flags="0x0"/>
    </TTGlyph>
    <TTGlyph name="K" xMin="206" yMin="0" xMax="1277" yMax="1522">
      <contour>
        <pt x="1277" y="0" on="1"/>
        <pt x="1081" y="0" on="1"/>
        <pt x="1072" y="15" on="0"/>
        <pt x="1056" y="45" on="1"/>
        <pt x="1034" y="86" on="0"/>
        <pt x="1019" y="113" on="1"/>
        <pt x="973" y="194" on="0"/>
        <pt x="839" y="403" on="0"/>
        <pt x="741" y="548" on="1"/>
        <pt x="719" y="581" on="0"/>
        <pt x="632" y="711" on="0"/>
        <pt x="605" y="753" on="1"/>
        <pt x="375" y="488" on="1"/>
        <pt x="375" y="0" on="1"/>
        <pt x="206" y="0" on="1"/>
        <pt x="206" y="1522" on="1"/>
        <pt x="375" y="1522" on="1"/>
        <pt x="375" y="701" on="1"/>
        <pt x="1050" y="1522" on="1"/>
        <pt x="1251" y="1522" on="1"/>
        <pt x="710" y="876" on="1"/>
        <pt x="733" y="839" on="0"/>
        <pt x="835" y="687" on="0"/>
        <pt x="867" y="640" on="1"/>
        <pt x="994" y="452" on="0"/>
        <pt x="1158" y="201" on="0"/>
        <pt x="1210" y="111" on="1"/>
      </contour>
    </TTGlyph>
    <TTGlyph name="Kcommaaccent" xMin="206" yMin="-560" xMax="1277" yMax="1522">
      <component glyphName="uni0326" x="867" y="0" flags="0x0"/>
      <component glyphName="K" x="0" y="0" flags="0x0"/>
    </TTGlyph>
    <TTGlyph name="L" xMin="206" yMin="0" xMax="1007" yMax="1522">
      <contour>
        <pt x="378" y="1522" on="1"/>
        <pt x="378" y="133" on="1"/>
        <pt x="1007" y="133" on="1"/>
        <pt x="1007" y="0" on="1"/>
        <pt x="206" y="0" on="1"/>
        <pt x="206" y="1522" on="1"/>
      </contour>
    </TTGlyph>
    <TTGlyph name="Lacute" xMin="171" yMin="0" xMax="1007" yMax="1975">
      <component glyphName="acute.cap" x="115" y="0" flags="0x0"/>
      <component glyphName="L" x="0" y="0" flags="0x0"/>
    </TTGlyph>
    <TTGlyph name="Lcaron" xMin="206" yMin="0" xMax="1007" yMax="1685">
      <component glyphName="L" x="0" y="0" flags="0x0"/>
      <component glyphName="caronvertical" x="644" y="0" flags="0x0"/>
    </TTGlyph>
    <TTGlyph name="Lcommaaccent" xMin="206" yMin="-560" xMax="1007" yMax="1522">
      <component glyphName="uni0326" x="765" y="0" flags="0x0"/>
      <component glyphName="L" x="0" y="0" flags="0x0"/>
    </TTGlyph>
    <TTGlyph name="Ldot" xMin="206" yMin="0" xMax="1143" yMax="1522">
      <component glyphName="period" x="726" y="725" flags="0x4"/>
      <component glyphName="L" x="0" y="0" flags="0x0"/>
    </TTGlyph>
    <TTGlyph name="Lslash" xMin="12" yMin="0" xMax="1007" yMax="1522">
      <contour>
        <pt x="1007" y="133" on="1"/>
        <pt x="1007" y="0" on="1"/>
        <pt x="206" y="0" on="1"/>
        <pt x="206" y="624" on="1"/>
        <pt x="53" y="568" on="1"/>
        <pt x="12" y="672" on="1"/>
        <pt x="206" y="744" on="1"/>
        <pt x="206" y="1522" on="1"/>
        <pt x="378" y="1522" on="1"/>
        <pt x="378" y="807" on="1"/>
        <pt x="806" y="965" on="1"/>
        <pt x="847" y="859" on="1"/>
        <pt x="378" y="687" on="1"/>
        <pt x="378" y="133" on="1"/>
      </contour>
    </TTGlyph>
    <TTGlyph name="M" xMin="149" yMin="-15" xMax="1778" yMax="1522">
      <contour>
        <pt x="551" y="1522" on="1"/>
        <pt x="888" y="533" on="1"/>
        <pt x="963" y="247" on="1"/>
        <pt x="1036" y="533" on="1"/>
        <pt x="1354" y="1522" on="1"/>
        <pt x="1582" y="1522" on="1"/>
        <pt x="1778" y="0" on="1"/>
        <pt x="1607" y="0" on="1"/>
        <pt x="1501" y="947" on="1"/>
        <pt x="1457" y="1397" on="1"/>
        <pt x="1333" y="947" on="1"/>
        <pt x="1010" y="-15" on="1"/>
        <pt x="917" y="-15" on="1"/>
        <pt x="578" y="947" on="1"/>
        <pt x="442" y="1397" on="1"/>
        <pt x="404" y="947" on="1"/>
        <pt x="313" y="0" on="1"/>
        <pt x="149" y="-1" on="1"/>
        <pt x="311" y="1522" on="1"/>
      </contour>
    </TTGlyph>
    <TTGlyph name="N" xMin="205" yMin="0" xMax="1348" yMax="1522">
      <contour>
        <pt x="1348" y="1522" on="1"/>
        <pt x="1348" y="0" on="1"/>
        <pt x="1193" y="0" on="1"/>
        <pt x="506" y="1034" on="1"/>
        <pt x="350" y="1299" on="1"/>
        <pt x="361" y="970" on="1"/>
        <pt x="361" y="0" on="1"/>
        <pt x="205" y="0" on="1"/>
        <pt x="205" y="1522" on="1"/>
        <pt x="362" y="1522" on="1"/>
        <pt x="1063" y="462" on="1"/>
        <pt x="1205" y="215" on="1"/>
        <pt x="1193" y="526" on="1"/>
        <pt x="1193" y="1522" on="1"/>
      </contour>
    </TTGlyph>
    <TTGlyph name="Nacute" xMin="205" yMin="0" xMax="1348" yMax="1975">
      <component glyphName="acute.cap" x="611" y="0" flags="0x0"/>
      <component glyphName="N" x="0" y="0" flags="0x0"/>
    </TTGlyph>
    <TTGlyph name="Ncaron" xMin="205" yMin="0" xMax="1348" yMax="1982">
      <component glyphName="caron.cap" x="397" y="0" flags="0x0"/>
      <component glyphName="N" x="0" y="0" flags="0x0"/>
    </TTGlyph>
    <TTGlyph name="Ncommaaccent" xMin="205" yMin="-560" xMax="1348" yMax="1522">
      <component glyphName="uni0326" x="929" y="0" flags="0x0"/>
      <component glyphName="N" x="0" y="0" flags="0x0"/>
    </TTGlyph>
    <TTGlyph name="Ntilde" xMin="205" yMin="0" xMax="1348" yMax="1944">
      <component glyphName="tilde.cap" x="329" y="0" flags="0x0"/>
      <component glyphName="N" x="0" y="0" flags="0x0"/>
    </TTGlyph>
    <TTGlyph name="O" xMin="111" yMin="-16" xMax="1461" yMax="1538">
      <contour>
        <pt x="111" y="999" on="0"/>
        <pt x="296" y="1357" on="0"/>
        <pt x="616" y="1538" on="0"/>
        <pt x="816" y="1538" on="1"/>
        <pt x="1010" y="1538" on="0"/>
        <pt x="1302" y="1352" on="0"/>
        <pt x="1461" y="1012" on="0"/>
        <pt x="1461" y="788" on="1"/>
        <pt x="1461" y="532" on="0"/>
        <pt x="1282" y="169" on="0"/>
        <pt x="967" y="-16" on="0"/>
        <pt x="763" y="-16" on="1"/>
        <pt x="565" y="-16" on="0"/>
        <pt x="270" y="179" on="0"/>
        <pt x="111" y="525" on="0"/>
        <pt x="111" y="745" on="1"/>
      </contour>
      <contour>
        <pt x="1290" y="952" on="0"/>
        <pt x="1179" y="1241" on="0"/>
        <pt x="960" y="1409" on="0"/>
        <pt x="807" y="1409" on="1"/>
        <pt x="657" y="1409" on="0"/>
        <pt x="420" y="1261" on="0"/>
        <pt x="282" y="965" on="0"/>
        <pt x="282" y="752" on="1"/>
        <pt x="282" y="576" on="0"/>
        <pt x="398" y="286" on="0"/>
        <pt x="624" y="114" on="0"/>
        <pt x="782" y="114" on="1"/>
        <pt x="934" y="114" on="0"/>
        <pt x="1163" y="267" on="0"/>
        <pt x="1290" y="565" on="0"/>
        <pt x="1290" y="775" on="1"/>
      </contour>
    </TTGlyph>
    <TTGlyph name="OE" xMin="110" yMin="-16" xMax="1991" yMax="1540">
      <contour>
        <pt x="1991" y="134" on="1"/>
        <pt x="1991" y="0" on="1"/>
        <pt x="1094" y="0" on="1"/>
        <pt x="1094" y="75" on="1"/>
        <pt x="1026" y="29" on="0"/>
        <pt x="870" y="-16" on="0"/>
        <pt x="771" y="-16" on="1"/>
        <pt x="573" y="-16" on="0"/>
        <pt x="273" y="179" on="0"/>
        <pt x="110" y="523" on="0"/>
        <pt x="110" y="741" on="1"/>
        <pt x="110" y="994" on="0"/>
        <pt x="290" y="1348" on="0"/>
        <pt x="608" y="1531" on="0"/>
        <pt x="816" y="1538" on="1"/>
        <pt x="887" y="1540" on="0"/>
        <pt x="1033" y="1509" on="0"/>
        <pt x="1094" y="1473" on="1"/>
        <pt x="1094" y="1522" on="1"/>
        <pt x="1917" y="1522" on="1"/>
        <pt x="1917" y="1391" on="1"/>
        <pt x="1263" y="1391" on="1"/>
        <pt x="1263" y="852" on="1"/>
        <pt x="1748" y="852" on="1"/>
        <pt x="1748" y="720" on="1"/>
        <pt x="1263" y="720" on="1"/>
        <pt x="1263" y="134" on="1"/>
      </contour>
      <contour>
        <pt x="885" y="112" on="0"/>
        <pt x="1038" y="169" on="0"/>
        <pt x="1094" y="218" on="1"/>
        <pt x="1094" y="1324" on="1"/>
        <pt x="983" y="1409" on="0"/>
        <pt x="812" y="1409" on="1"/>
        <pt x="671" y="1409" on="0"/>
        <pt x="429" y="1267" on="0"/>
        <pt x="280" y="972" on="0"/>
        <pt x="280" y="755" on="1"/>
        <pt x="280" y="578" on="0"/>
        <pt x="398" y="286" on="0"/>
        <pt x="630" y="112" on="0"/>
        <pt x="793" y="112" on="1"/>
      </contour>
    </TTGlyph>
    <TTGlyph name="Oacute" xMin="111" yMin="-16" xMax="1461" yMax="1975">
      <component glyphName="acute.cap" x="633" y="0" flags="0x0"/>
      <component glyphName="O" x="0" y="0" flags="0x0"/>
    </TTGlyph>
    <TTGlyph name="Obreve" xMin="111" yMin="-16" xMax="1461" yMax="1967">
      <component glyphName="breve.cap" x="422" y="0" flags="0x0"/>
      <component glyphName="O" x="0" y="0" flags="0x0"/>
    </TTGlyph>
    <TTGlyph name="Ocircumflex" xMin="111" yMin="-16" xMax="1461" yMax="1982">
      <component glyphName="O" x="0" y="0" flags="0x0"/>
      <component glyphName="circumflex.cap" x="408" y="0" flags="0x0"/>
    </TTGlyph>
    <TTGlyph name="Odieresis" xMin="111" yMin="-16" xMax="1461" yMax="1922">
      <component glyphName="dieresis.cap" x="407" y="0" flags="0x0"/>
      <component glyphName="O" x="0" y="0" flags="0x0"/>
    </TTGlyph>
    <TTGlyph name="Ograve" xMin="111" yMin="-16" xMax="1461" yMax="1975">
      <component glyphName="grave.cap" x="420" y="0" flags="0x0"/>
      <component glyphName="O" x="0" y="0" flags="0x0"/>
    </TTGlyph>
    <TTGlyph name="Ohungarumlaut" xMin="111" yMin="-16" xMax="1461" yMax="1990">
      <component glyphName="O" x="0" y="0" flags="0x0"/>
      <component glyphName="hungarumlaut.cap" x="410" y="0" flags="0x0"/>
    </TTGlyph>
    <TTGlyph name="Omacron" xMin="111" yMin="-16" xMax="1461" yMax="1867">
      <component glyphName="macron.cap" x="489" y="0" flags="0x0"/>
      <component glyphName="O" x="0" y="0" flags="0x0"/>
    </TTGlyph>
    <TTGlyph name="Oslash" xMin="111" yMin="-194" xMax="1461" yMax="1730">
      <contour>
        <pt x="1210" y="1424" on="0"/>
        <pt x="1374" y="1225" on="0"/>
        <pt x="1461" y="952" on="0"/>
        <pt x="1461" y="789" on="1"/>
        <pt x="1461" y="531" on="0"/>
        <pt x="1281" y="168" on="0"/>
        <pt x="965" y="-16" on="0"/>
        <pt x="761" y="-16" on="1"/>
        <pt x="664" y="-16" on="0"/>
        <pt x="569" y="11" on="1"/>
        <pt x="495" y="-194" on="1"/>
        <pt x="399" y="-167" on="1"/>
        <pt x="476" y="48" on="1"/>
        <pt x="362" y="105" on="0"/>
        <pt x="198" y="309" on="0"/>
        <pt x="111" y="583" on="0"/>
        <pt x="111" y="744" on="1"/>
        <pt x="111" y="999" on="0"/>
        <pt x="296" y="1357" on="0"/>
        <pt x="618" y="1538" on="0"/>
        <pt x="820" y="1538" on="1"/>
        <pt x="914" y="1538" on="0"/>
        <pt x="1003" y="1513" on="1"/>
        <pt x="1081" y="1730" on="1"/>
        <pt x="1177" y="1702" on="1"/>
        <pt x="1096" y="1478" on="1"/>
      </contour>
      <contour>
        <pt x="282" y="569" on="0"/>
        <pt x="408" y="268" on="0"/>
        <pt x="527" y="188" on="1"/>
        <pt x="957" y="1385" on="1"/>
        <pt x="888" y="1409" on="0"/>
        <pt x="804" y="1409" on="1"/>
        <pt x="654" y="1407" on="0"/>
        <pt x="418" y="1258" on="0"/>
        <pt x="282" y="964" on="0"/>
        <pt x="282" y="754" on="1"/>
      </contour>
      <contour>
        <pt x="1290" y="964" on="0"/>
        <pt x="1165" y="1264" on="0"/>
        <pt x="1047" y="1341" on="1"/>
        <pt x="616" y="143" on="1"/>
        <pt x="694" y="114" on="0"/>
        <pt x="785" y="114" on="1"/>
        <pt x="937" y="115" on="0"/>
        <pt x="1165" y="269" on="0"/>
        <pt x="1290" y="566" on="0"/>
        <pt x="1290" y="776" on="1"/>
      </contour>
    </TTGlyph>
    <TTGlyph name="Oslashacute" xMin="111" yMin="-194" xMax="1461" yMax="1975">
      <component glyphName="Oslash" x="0" y="0" flags="0x0"/>
      <component glyphName="acute.cap" x="563" y="0" flags="0x0"/>
    </TTGlyph>
    <TTGlyph name="Otilde" xMin="111" yMin="-16" xMax="1461" yMax="1944">
      <component glyphName="tilde.cap" x="351" y="0" flags="0x0"/>
      <component glyphName="O" x="0" y="0" flags="0x0"/>
    </TTGlyph>
    <TTGlyph name="P" xMin="206" yMin="0" xMax="1193" yMax="1536">
      <contour>
        <pt x="288" y="1522" on="1"/>
        <pt x="355" y="1522" on="0"/>
        <pt x="462" y="1529" on="1"/>
        <pt x="480" y="1530" on="0"/>
        <pt x="609" y="1536" on="0"/>
        <pt x="666" y="1536" on="1"/>
        <pt x="919" y="1536" on="0"/>
        <pt x="1193" y="1301" on="0"/>
        <pt x="1193" y="1045" on="1"/>
        <pt x="1193" y="882" on="0"/>
        <pt x="1055" y="650" on="0"/>
        <pt x="798" y="528" on="0"/>
        <pt x="622" y="527" on="1"/>
        <pt x="541" y="526" on="0"/>
        <pt x="423" y="533" on="1"/>
        <pt x="375" y="535" on="1"/>
        <pt x="375" y="0" on="1"/>
        <pt x="206" y="0" on="1"/>
        <pt x="206" y="1522" on="1"/>
      </contour>
      <contour>
        <pt x="801" y="654" on="0"/>
        <pt x="1024" y="839" on="0"/>
        <pt x="1024" y="1044" on="1"/>
        <pt x="1024" y="1236" on="0"/>
        <pt x="834" y="1414" on="0"/>
        <pt x="637" y="1414" on="1"/>
        <pt x="488" y="1414" on="0"/>
        <pt x="375" y="1398" on="1"/>
        <pt x="375" y="664" on="1"/>
        <pt x="418" y="658" on="0"/>
        <pt x="560" y="652" on="0"/>
        <pt x="612" y="652" on="1"/>
      </contour>
    </TTGlyph>
    <TTGlyph name="Q" xMin="110" yMin="-287" xMax="1510" yMax="1538">
      <contour>
        <pt x="1380" y="-149" on="0"/>
        <pt x="1481" y="-138" on="0"/>
        <pt x="1510" y="-126" on="1"/>
        <pt x="1510" y="-249" on="1"/>
        <pt x="1486" y="-265" on="0"/>
        <pt x="1387" y="-287" on="0"/>
        <pt x="1333" y="-287" on="1"/>
        <pt x="1223" y="-287" on="0"/>
        <pt x="1043" y="-239" on="0"/>
        <pt x="878" y="-120" on="0"/>
        <pt x="801" y="-15" on="1"/>
        <pt x="794" y="-16" on="0"/>
        <pt x="779" y="-16" on="1"/>
        <pt x="577" y="-20" on="0"/>
        <pt x="273" y="173" on="0"/>
        <pt x="110" y="522" on="0"/>
        <pt x="110" y="746" on="1"/>
        <pt x="110" y="1000" on="0"/>
        <pt x="295" y="1357" on="0"/>
        <pt x="615" y="1538" on="0"/>
        <pt x="815" y="1538" on="1"/>
        <pt x="1009" y="1538" on="0"/>
        <pt x="1301" y="1352" on="0"/>
        <pt x="1460" y="1012" on="0"/>
        <pt x="1460" y="788" on="1"/>
        <pt x="1460" y="575" on="0"/>
        <pt x="1335" y="252" on="0"/>
        <pt x="1110" y="49" on="0"/>
        <pt x="960" y="9" on="1"/>
        <pt x="1023" y="-67" on="0"/>
        <pt x="1213" y="-149" on="0"/>
        <pt x="1332" y="-149" on="1"/>
      </contour>
      <contour>
        <pt x="281" y="576" on="0"/>
        <pt x="397" y="286" on="0"/>
        <pt x="623" y="114" on="0"/>
        <pt x="781" y="114" on="1"/>
        <pt x="933" y="114" on="0"/>
        <pt x="1162" y="267" on="0"/>
        <pt x="1289" y="565" on="0"/>
        <pt x="1289" y="775" on="1"/>
        <pt x="1289" y="952" on="0"/>
        <pt x="1178" y="1241" on="0"/>
        <pt x="959" y="1409" on="0"/>
        <pt x="806" y="1409" on="1"/>
        <pt x="656" y="1409" on="0"/>
        <pt x="419" y="1261" on="0"/>
        <pt x="281" y="965" on="0"/>
        <pt x="281" y="752" on="1"/>
      </contour>
    </TTGlyph>
    <TTGlyph name="R" xMin="206" yMin="0" xMax="1294" yMax="1536">
      <contour>
        <pt x="1275" y="29" on="0"/>
        <pt x="1294" y="0" on="1"/>
        <pt x="1102" y="0" on="1"/>
        <pt x="1092" y="12" on="0"/>
        <pt x="1072" y="51" on="0"/>
        <pt x="1059" y="78" on="1"/>
        <pt x="1056" y="85" on="0"/>
        <pt x="1050" y="97" on="0"/>
        <pt x="1048" y="102" on="1"/>
        <pt x="1023" y="155" on="0"/>
        <pt x="993" y="226" on="1"/>
        <pt x="939" y="352" on="0"/>
        <pt x="857" y="516" on="0"/>
        <pt x="748" y="648" on="0"/>
        <pt x="685" y="664" on="1"/>
        <pt x="605" y="662" on="0"/>
        <pt x="550" y="662" on="1"/>
        <pt x="375" y="663" on="1"/>
        <pt x="375" y="0" on="1"/>
        <pt x="206" y="0" on="1"/>
        <pt x="206" y="1522" on="1"/>
        <pt x="306" y="1523" on="1"/>
        <pt x="343" y="1523" on="0"/>
        <pt x="447" y="1529" on="1"/>
        <pt x="608" y="1536" on="0"/>
        <pt x="666" y="1536" on="1"/>
        <pt x="1188" y="1536" on="0"/>
        <pt x="1188" y="1116" on="1"/>
        <pt x="1188" y="948" on="0"/>
        <pt x="1024" y="731" on="0"/>
        <pt x="879" y="690" on="1"/>
        <pt x="930" y="660" on="0"/>
        <pt x="1024" y="532" on="0"/>
        <pt x="1100" y="385" on="0"/>
        <pt x="1153" y="272" on="1"/>
        <pt x="1201" y="165" on="0"/>
        <pt x="1236" y="102" on="1"/>
      </contour>
      <contour>
        <pt x="434" y="777" on="0"/>
        <pt x="659" y="777" on="1"/>
        <pt x="824" y="779" on="0"/>
        <pt x="1014" y="946" on="0"/>
        <pt x="1015" y="1108" on="1"/>
        <pt x="1015" y="1217" on="0"/>
        <pt x="936" y="1350" on="0"/>
        <pt x="771" y="1411" on="0"/>
        <pt x="639" y="1411" on="1"/>
        <pt x="565" y="1411" on="0"/>
        <pt x="419" y="1403" on="0"/>
        <pt x="375" y="1395" on="1"/>
        <pt x="375" y="783" on="1"/>
      </contour>
    </TTGlyph>
    <TTGlyph name="Racute" xMin="206" yMin="0" xMax="1294" yMax="1975">
      <component glyphName="R" x="0" y="0" flags="0x0"/>
      <component glyphName="acute.cap" x="527" y="0" flags="0x0"/>
    </TTGlyph>
    <TTGlyph name="Rcaron" xMin="206" yMin="0" xMax="1294" yMax="1982">
      <component glyphName="caron.cap" x="312" y="0" flags="0x0"/>
      <component glyphName="R" x="0" y="0" flags="0x0"/>
    </TTGlyph>
    <TTGlyph name="Rcommaaccent" xMin="206" yMin="-560" xMax="1294" yMax="1536">
      <component glyphName="uni0326" x="867" y="0" flags="0x0"/>
      <component glyphName="R" x="0" y="0" flags="0x0"/>
    </TTGlyph>
    <TTGlyph name="S" xMin="136" yMin="-16" xMax="1068" yMax="1538">
      <contour>
        <pt x="177" y="213" on="1"/>
        <pt x="241" y="174" on="0"/>
        <pt x="453" y="119" on="0"/>
        <pt x="557" y="119" on="1"/>
        <pt x="720" y="119" on="0"/>
        <pt x="902" y="243" on="0"/>
        <pt x="902" y="366" on="1"/>
        <pt x="902" y="448" on="0"/>
        <pt x="814" y="563" on="0"/>
        <pt x="673" y="645" on="0"/>
        <pt x="538" y="706" on="1"/>
        <pt x="140" y="887" on="0"/>
        <pt x="140" y="1162" on="1"/>
        <pt x="140" y="1294" on="0"/>
        <pt x="283" y="1463" on="0"/>
        <pt x="505" y="1538" on="0"/>
        <pt x="631" y="1538" on="1"/>
        <pt x="761" y="1538" on="0"/>
        <pt x="941" y="1489" on="0"/>
        <pt x="991" y="1456" on="1"/>
        <pt x="956" y="1323" on="1"/>
        <pt x="895" y="1362" on="0"/>
        <pt x="741" y="1405" on="0"/>
        <pt x="630" y="1405" on="1"/>
        <pt x="545" y="1405" on="0"/>
        <pt x="395" y="1356" on="0"/>
        <pt x="302" y="1256" on="0"/>
        <pt x="302" y="1184" on="1"/>
        <pt x="302" y="1102" on="0"/>
        <pt x="377" y="987" on="0"/>
        <pt x="514" y="898" on="0"/>
        <pt x="639" y="838" on="1"/>
        <pt x="772" y="774" on="0"/>
        <pt x="947" y="663" on="0"/>
        <pt x="1068" y="497" on="0"/>
        <pt x="1068" y="385" on="1"/>
        <pt x="1068" y="254" on="0"/>
        <pt x="942" y="74" on="0"/>
        <pt x="717" y="-16" on="0"/>
        <pt x="568" y="-16" on="1"/>
        <pt x="474" y="-16" on="0"/>
        <pt x="297" y="12" on="0"/>
        <pt x="165" y="54" on="0"/>
        <pt x="136" y="74" on="1"/>
      </contour>
    </TTGlyph>
    <TTGlyph name="Sacute" xMin="136" yMin="-16" xMax="1068" yMax="1975">
      <component glyphName="S" x="0" y="0" flags="0x0"/>
      <component glyphName="acute.cap" x="443" y="0" flags="0x0"/>
    </TTGlyph>
    <TTGlyph name="Scaron" xMin="136" yMin="-16" xMax="1068" yMax="1982">
      <component glyphName="S" x="0" y="0" flags="0x0"/>
      <component glyphName="caron.cap" x="228" y="0" flags="0x0"/>
    </TTGlyph>
    <TTGlyph name="Scedilla" xMin="136" yMin="-464" xMax="1068" yMax="1538">
      <contour>
        <pt x="1068" y="206" on="0"/>
        <pt x="837" y="2" on="0"/>
        <pt x="639" y="-13" on="1"/>
        <pt x="671" y="-82" on="0"/>
        <pt x="671" y="-190" on="1"/>
        <pt x="671" y="-218" on="0"/>
        <pt x="670" y="-232" on="1"/>
        <pt x="663" y="-351" on="0"/>
        <pt x="536" y="-464" on="0"/>
        <pt x="441" y="-464" on="1"/>
        <pt x="403" y="-464" on="0"/>
        <pt x="318" y="-448" on="0"/>
        <pt x="301" y="-436" on="1"/>
        <pt x="313" y="-327" on="1"/>
        <pt x="326" y="-335" on="0"/>
        <pt x="375" y="-345" on="0"/>
        <pt x="403" y="-345" on="1"/>
        <pt x="466" y="-345" on="0"/>
        <pt x="542" y="-265" on="0"/>
        <pt x="546" y="-180" on="1"/>
        <pt x="549" y="-149" on="0"/>
        <pt x="549" y="-122" on="1"/>
        <pt x="549" y="-63" on="0"/>
        <pt x="535" y="-16" on="1"/>
        <pt x="447" y="-13" on="0"/>
        <pt x="284" y="16" on="0"/>
        <pt x="164" y="55" on="0"/>
        <pt x="136" y="74" on="1"/>
        <pt x="177" y="213" on="1"/>
        <pt x="241" y="174" on="0"/>
        <pt x="453" y="119" on="0"/>
        <pt x="557" y="119" on="1"/>
        <pt x="720" y="119" on="0"/>
        <pt x="902" y="243" on="0"/>
        <pt x="902" y="366" on="1"/>
        <pt x="902" y="448" on="0"/>
        <pt x="814" y="563" on="0"/>
        <pt x="673" y="645" on="0"/>
        <pt x="538" y="706" on="1"/>
        <pt x="140" y="887" on="0"/>
        <pt x="140" y="1162" on="1"/>
        <pt x="140" y="1294" on="0"/>
        <pt x="283" y="1463" on="0"/>
        <pt x="505" y="1538" on="0"/>
        <pt x="631" y="1538" on="1"/>
        <pt x="761" y="1538" on="0"/>
        <pt x="941" y="1489" on="0"/>
        <pt x="991" y="1456" on="1"/>
        <pt x="956" y="1323" on="1"/>
        <pt x="895" y="1362" on="0"/>
        <pt x="741" y="1405" on="0"/>
        <pt x="630" y="1405" on="1"/>
        <pt x="545" y="1405" on="0"/>
        <pt x="395" y="1356" on="0"/>
        <pt x="302" y="1256" on="0"/>
        <pt x="302" y="1184" on="1"/>
        <pt x="302" y="1102" on="0"/>
        <pt x="377" y="987" on="0"/>
        <pt x="514" y="898" on="0"/>
        <pt x="639" y="838" on="1"/>
        <pt x="772" y="774" on="0"/>
        <pt x="947" y="663" on="0"/>
        <pt x="1068" y="497" on="0"/>
        <pt x="1068" y="385" on="1"/>
      </contour>
    </TTGlyph>
    <TTGlyph name="Scircumflex" xMin="136" yMin="-16" xMax="1068" yMax="1982">
      <component glyphName="S" x="0" y="0" flags="0x0"/>
      <component glyphName="circumflex.cap" x="217" y="0" flags="0x0"/>
    </TTGlyph>
    <TTGlyph name="Scommaaccent" xMin="140" yMin="-560" xMax="1072" yMax="1538">
      <component glyphName="uni0326" x="760" y="0" flags="0x0"/>
      <component glyphName="S" x="4" y="0" flags="0x0"/>
    </TTGlyph>
    <TTGlyph name="T" xMin="62" yMin="0" xMax="1222" yMax="1522">
      <contour>
        <pt x="62" y="1391" on="1"/>
        <pt x="62" y="1522" on="1"/>
        <pt x="1222" y="1522" on="1"/>
        <pt x="1222" y="1391" on="1"/>
        <pt x="724" y="1391" on="1"/>
        <pt x="724" y="0" on="1"/>
        <pt x="553" y="0" on="1"/>
        <pt x="553" y="1391" on="1"/>
      </contour>
    </TTGlyph>
    <TTGlyph name="Tbar" xMin="62" yMin="0" xMax="1222" yMax="1522">
      <contour>
        <pt x="724" y="1391" on="1"/>
        <pt x="724" y="778" on="1"/>
        <pt x="1025" y="778" on="1"/>
        <pt x="1025" y="666" on="1"/>
        <pt x="724" y="666" on="1"/>
        <pt x="724" y="0" on="1"/>
        <pt x="553" y="0" on="1"/>
        <pt x="553" y="666" on="1"/>
        <pt x="254" y="666" on="1"/>
        <pt x="254" y="778" on="1"/>
        <pt x="553" y="778" on="1"/>
        <pt x="553" y="1391" on="1"/>
        <pt x="62" y="1391" on="1"/>
        <pt x="62" y="1522" on="1"/>
        <pt x="1222" y="1522" on="1"/>
        <pt x="1222" y="1391" on="1"/>
      </contour>
    </TTGlyph>
    <TTGlyph name="Tcaron" xMin="62" yMin="0" xMax="1222" yMax="1982">
      <component glyphName="caron.cap" x="244" y="0" flags="0x0"/>
      <component glyphName="T" x="0" y="0" flags="0x0"/>
    </TTGlyph>
    <TTGlyph name="Thorn" xMin="206" yMin="0" xMax="1185" yMax="1522">
      <contour>
        <pt x="206" y="0" on="1"/>
        <pt x="206" y="1522" on="1"/>
        <pt x="375" y="1522" on="1"/>
        <pt x="375" y="0" on="1"/>
      </contour>
      <contour>
        <pt x="410" y="302" on="1"/>
        <pt x="542" y="292" on="0"/>
        <pt x="617" y="292" on="1"/>
        <pt x="795" y="292" on="0"/>
        <pt x="1049" y="405" on="0"/>
        <pt x="1185" y="629" on="0"/>
        <pt x="1185" y="792" on="1"/>
        <pt x="1185" y="1023" on="0"/>
        <pt x="916" y="1248" on="0"/>
        <pt x="668" y="1248" on="1"/>
        <pt x="595" y="1248" on="0"/>
        <pt x="453" y="1236" on="1"/>
        <pt x="341" y="1228" on="0"/>
        <pt x="306" y="1227" on="1"/>
        <pt x="362" y="1102" on="1"/>
        <pt x="412" y="1112" on="0"/>
        <pt x="573" y="1126" on="0"/>
        <pt x="631" y="1126" on="1"/>
        <pt x="824" y="1126" on="0"/>
        <pt x="1016" y="961" on="0"/>
        <pt x="1016" y="790" on="1"/>
        <pt x="1016" y="588" on="0"/>
        <pt x="798" y="415" on="0"/>
        <pt x="600" y="415" on="1"/>
        <pt x="547" y="415" on="0"/>
        <pt x="412" y="424" on="0"/>
        <pt x="362" y="431" on="1"/>
        <pt x="362" y="305" on="1"/>
      </contour>
    </TTGlyph>
    <TTGlyph name="U" xMin="170" yMin="-16" xMax="1304" yMax="1523">
      <contour>
        <pt x="171" y="1523" on="1"/>
        <pt x="340" y="1523" on="1"/>
        <pt x="339" y="684" on="1"/>
        <pt x="339" y="469" on="0"/>
        <pt x="434" y="220" on="0"/>
        <pt x="613" y="117" on="0"/>
        <pt x="749" y="117" on="1"/>
        <pt x="876" y="117" on="0"/>
        <pt x="1045" y="222" on="0"/>
        <pt x="1136" y="472" on="0"/>
        <pt x="1136" y="685" on="1"/>
        <pt x="1136" y="1522" on="1"/>
        <pt x="1304" y="1522" on="1"/>
        <pt x="1304" y="645" on="1"/>
        <pt x="1304" y="-16" on="0"/>
        <pt x="744" y="-16" on="1"/>
        <pt x="448" y="-16" on="0"/>
        <pt x="170" y="317" on="0"/>
        <pt x="171" y="644" on="1"/>
      </contour>
    </TTGlyph>
    <TTGlyph name="Uacute" xMin="170" yMin="-16" xMax="1304" yMax="1975">
      <component glyphName="acute.cap" x="573" y="0" flags="0x0"/>
      <component glyphName="U" x="0" y="0" flags="0x0"/>
    </TTGlyph>
    <TTGlyph name="Ubreve" xMin="170" yMin="-16" xMax="1304" yMax="1967">
      <component glyphName="breve.cap" x="362" y="0" flags="0x0"/>
      <component glyphName="U" x="0" y="0" flags="0x0"/>
    </TTGlyph>
    <TTGlyph name="Ucircumflex" xMin="170" yMin="-16" xMax="1304" yMax="1982">
      <component glyphName="U" x="0" y="0" flags="0x0"/>
      <component glyphName="circumflex.cap" x="347" y="0" flags="0x0"/>
    </TTGlyph>
    <TTGlyph name="Udieresis" xMin="170" yMin="-16" xMax="1304" yMax="1922">
      <component glyphName="dieresis.cap" x="346" y="0" flags="0x0"/>
      <component glyphName="U" x="0" y="0" flags="0x0"/>
    </TTGlyph>
    <TTGlyph name="Ugrave" xMin="170" yMin="-16" xMax="1304" yMax="1975">
      <component glyphName="grave.cap" x="360" y="0" flags="0x0"/>
      <component glyphName="U" x="0" y="0" flags="0x0"/>
    </TTGlyph>
    <TTGlyph name="Uhungarumlaut" xMin="170" yMin="-16" xMax="1304" yMax="1990">
      <component glyphName="U" x="0" y="0" flags="0x0"/>
      <component glyphName="hungarumlaut.cap" x="349" y="0" flags="0x0"/>
    </TTGlyph>
    <TTGlyph name="Umacron" xMin="170" yMin="-16" xMax="1304" yMax="1867">
      <component glyphName="macron.cap" x="429" y="0" flags="0x0"/>
      <component glyphName="U" x="0" y="0" flags="0x0"/>
    </TTGlyph>
    <TTGlyph name="Uogonek" xMin="170" yMin="-512" xMax="1304" yMax="1523">
      <contour>
        <pt x="1304" y="1522" on="1"/>
        <pt x="1304" y="645" on="1"/>
        <pt x="1304" y="117" on="0"/>
        <pt x="946" y="11" on="1"/>
        <pt x="865" y="-55" on="0"/>
        <pt x="753" y="-206" on="0"/>
        <pt x="753" y="-272" on="1"/>
        <pt x="753" y="-339" on="0"/>
        <pt x="834" y="-399" on="0"/>
        <pt x="902" y="-399" on="1"/>
        <pt x="981" y="-397" on="0"/>
        <pt x="1065" y="-358" on="1"/>
        <pt x="1065" y="-450" on="1"/>
        <pt x="1026" y="-480" on="0"/>
        <pt x="896" y="-512" on="0"/>
        <pt x="830" y="-512" on="1"/>
        <pt x="722" y="-512" on="0"/>
        <pt x="588" y="-403" on="0"/>
        <pt x="588" y="-303" on="1"/>
        <pt x="588" y="-232" on="0"/>
        <pt x="708" y="-71" on="0"/>
        <pt x="790" y="-15" on="1"/>
        <pt x="775" y="-16" on="0"/>
        <pt x="744" y="-16" on="1"/>
        <pt x="448" y="-16" on="0"/>
        <pt x="170" y="317" on="0"/>
        <pt x="171" y="644" on="1"/>
        <pt x="171" y="1523" on="1"/>
        <pt x="340" y="1523" on="1"/>
        <pt x="339" y="684" on="1"/>
        <pt x="339" y="469" on="0"/>
        <pt x="434" y="220" on="0"/>
        <pt x="613" y="117" on="0"/>
        <pt x="749" y="117" on="1"/>
        <pt x="876" y="117" on="0"/>
        <pt x="1045" y="222" on="0"/>
        <pt x="1136" y="472" on="0"/>
        <pt x="1136" y="685" on="1"/>
        <pt x="1136" y="1522" on="1"/>
      </contour>
    </TTGlyph>
    <TTGlyph name="Uring" xMin="170" yMin="-16" xMax="1304" yMax="2072">
      <component glyphName="U" x="0" y="0" flags="0x0"/>
      <component glyphName="ring.cap" x="391" y="100" flags="0x4"/>
    </TTGlyph>
    <TTGlyph name="Utilde" xMin="170" yMin="-16" xMax="1304" yMax="1944">
      <component glyphName="tilde.cap" x="290" y="0" flags="0x0"/>
      <component glyphName="U" x="0" y="0" flags="0x0"/>
    </TTGlyph>
    <TTGlyph name="V" xMin="31" yMin="-16" xMax="1301" yMax="1522">
      <contour>
        <pt x="210" y="1522" on="1"/>
        <pt x="601" y="437" on="1"/>
        <pt x="677" y="193" on="1"/>
        <pt x="753" y="437" on="1"/>
        <pt x="1123" y="1522" on="1"/>
        <pt x="1301" y="1522" on="1"/>
        <pt x="747" y="-16" on="1"/>
        <pt x="605" y="-16" on="1"/>
        <pt x="31" y="1522" on="1"/>
      </contour>
    </TTGlyph>
    <TTGlyph name="W" xMin="32" yMin="-16" xMax="1878" yMax="1522">
      <contour>
        <pt x="1878" y="1522" on="1"/>
        <pt x="1486" y="-16" on="1"/>
        <pt x="1320" y="-16" on="1"/>
        <pt x="995" y="1080" on="1"/>
        <pt x="958" y="1262" on="1"/>
        <pt x="921" y="1080" on="1"/>
        <pt x="592" y="-16" on="1"/>
        <pt x="444" y="-16" on="1"/>
        <pt x="32" y="1522" on="1"/>
        <pt x="206" y="1522" on="1"/>
        <pt x="455" y="516" on="1"/>
        <pt x="524" y="181" on="1"/>
        <pt x="598" y="516" on="1"/>
        <pt x="896" y="1522" on="1"/>
        <pt x="1021" y="1522" on="1"/>
        <pt x="1322" y="516" on="1"/>
        <pt x="1407" y="185" on="1"/>
        <pt x="1471" y="515" on="1"/>
        <pt x="1707" y="1522" on="1"/>
      </contour>
    </TTGlyph>
    <TTGlyph name="Wacute" xMin="32" yMin="-16" xMax="1878" yMax="1975">
      <component glyphName="acute.cap" x="780" y="0" flags="0x0"/>
      <component glyphName="W" x="0" y="0" flags="0x0"/>
    </TTGlyph>
    <TTGlyph name="Wcircumflex" xMin="32" yMin="-16" xMax="1878" yMax="1982">
      <component glyphName="W" x="0" y="0" flags="0x0"/>
      <component glyphName="circumflex.cap" x="554" y="0" flags="0x0"/>
    </TTGlyph>
    <TTGlyph name="Wdieresis" xMin="32" yMin="-16" xMax="1878" yMax="1922">
      <component glyphName="dieresis.cap" x="553" y="0" flags="0x0"/>
      <component glyphName="W" x="0" y="0" flags="0x0"/>
    </TTGlyph>
    <TTGlyph name="Wgrave" xMin="32" yMin="-16" xMax="1878" yMax="1975">
      <component glyphName="grave.cap" x="567" y="0" flags="0x0"/>
      <component glyphName="W" x="0" y="0" flags="0x0"/>
    </TTGlyph>
    <TTGlyph name="X" xMin="73" yMin="0" xMax="1257" yMax="1523">
      <contour>
        <pt x="1257" y="0" on="1"/>
        <pt x="1064" y="0" on="1"/>
        <pt x="750" y="503" on="1"/>
        <pt x="656" y="655" on="1"/>
        <pt x="565" y="503" on="1"/>
        <pt x="256" y="0" on="1"/>
        <pt x="73" y="0" on="1"/>
        <pt x="563" y="782" on="1"/>
        <pt x="79" y="1522" on="1"/>
        <pt x="270" y="1523" on="1"/>
        <pt x="565" y="1058" on="1"/>
        <pt x="673" y="882" on="1"/>
        <pt x="777" y="1058" on="1"/>
        <pt x="1060" y="1522" on="1"/>
        <pt x="1243" y="1522" on="1"/>
        <pt x="763" y="758" on="1"/>
      </contour>
    </TTGlyph>
    <TTGlyph name="Y" xMin="31" yMin="0" xMax="1219" yMax="1522">
      <contour>
        <pt x="720" y="587" on="1"/>
        <pt x="720" y="0" on="1"/>
        <pt x="548" y="0" on="1"/>
        <pt x="548" y="585" on="1"/>
        <pt x="31" y="1522" on="1"/>
        <pt x="212" y="1522" on="1"/>
        <pt x="586" y="821" on="1"/>
        <pt x="637" y="707" on="1"/>
        <pt x="681" y="821" on="1"/>
        <pt x="1040" y="1522" on="1"/>
        <pt x="1219" y="1522" on="1"/>
      </contour>
    </TTGlyph>
    <TTGlyph name="Yacute" xMin="31" yMin="0" xMax="1219" yMax="1975">
      <component glyphName="Y" x="0" y="0" flags="0x0"/>
      <component glyphName="acute.cap" x="471" y="0" flags="0x0"/>
    </TTGlyph>
    <TTGlyph name="Ycircumflex" xMin="31" yMin="0" xMax="1219" yMax="1982">
      <component glyphName="Y" x="0" y="0" flags="0x0"/>
      <component glyphName="circumflex.cap" x="245" y="0" flags="0x0"/>
    </TTGlyph>
    <TTGlyph name="Ydieresis" xMin="31" yMin="0" xMax="1219" yMax="1922">
      <component glyphName="Y" x="0" y="0" flags="0x0"/>
      <component glyphName="dieresis.cap" x="244" y="0" flags="0x0"/>
    </TTGlyph>
    <TTGlyph name="Ygrave" xMin="31" yMin="0" xMax="1219" yMax="1975">
      <component glyphName="Y" x="0" y="0" flags="0x0"/>
      <component glyphName="grave.cap" x="258" y="0" flags="0x0"/>
    </TTGlyph>
    <TTGlyph name="Z" xMin="106" yMin="0" xMax="1220" yMax="1522">
      <contour>
        <pt x="914" y="1275" on="1"/>
        <pt x="999" y="1387" on="1"/>
        <pt x="189" y="1387" on="1"/>
        <pt x="189" y="1522" on="1"/>
        <pt x="1184" y="1522" on="1"/>
        <pt x="1220" y="1458" on="1"/>
        <pt x="415" y="239" on="1"/>
        <pt x="329" y="133" on="1"/>
        <pt x="1178" y="133" on="1"/>
        <pt x="1178" y="0" on="1"/>
        <pt x="142" y="0" on="1"/>
        <pt x="106" y="66" on="1"/>
      </contour>
    </TTGlyph>
    <TTGlyph name="Zacute" xMin="106" yMin="0" xMax="1220" yMax="1975">
      <component glyphName="Z" x="0" y="0" flags="0x0"/>
      <component glyphName="acute.cap" x="511" y="0" flags="0x0"/>
    </TTGlyph>
    <TTGlyph name="Zcaron" xMin="106" yMin="0" xMax="1220" yMax="1982">
      <component glyphName="caron.cap" x="296" y="0" flags="0x0"/>
      <component glyphName="Z" x="0" y="0" flags="0x0"/>
    </TTGlyph>
    <TTGlyph name="Zdotaccent" xMin="106" yMin="0" xMax="1220" yMax="1926">
      <component glyphName="dotaccent.cap" x="522" y="0" flags="0x0"/>
      <component glyphName="Z" x="0" y="0" flags="0x0"/>
    </TTGlyph>
    <TTGlyph name="a" xMin="110" yMin="-16" xMax="967" yMax="1157">
      <contour>
        <pt x="704" y="1157" on="0"/>
        <pt x="873" y="1098" on="0"/>
        <pt x="967" y="945" on="0"/>
        <pt x="967" y="807" on="1"/>
        <pt x="967" y="-16" on="1"/>
        <pt x="899" y="-16" on="1"/>
        <pt x="866" y="-16" on="0"/>
        <pt x="830" y="-6" on="0"/>
        <pt x="811" y="28" on="0"/>
        <pt x="811" y="64" on="1"/>
        <pt x="811" y="106" on="1"/>
        <pt x="757" y="57" on="0"/>
        <pt x="569" y="-16" on="0"/>
        <pt x="457" y="-16" on="1"/>
        <pt x="356" y="-16" on="0"/>
        <pt x="198" y="60" on="0"/>
        <pt x="110" y="204" on="0"/>
        <pt x="110" y="301" on="1"/>
        <pt x="110" y="412" on="0"/>
        <pt x="235" y="570" on="0"/>
        <pt x="356" y="615" on="1"/>
        <pt x="448" y="649" on="0"/>
        <pt x="696" y="682" on="0"/>
        <pt x="801" y="682" on="1"/>
        <pt x="801" y="814" on="1"/>
        <pt x="801" y="903" on="0"/>
        <pt x="741" y="997" on="0"/>
        <pt x="628" y="1030" on="0"/>
        <pt x="535" y="1030" on="1"/>
        <pt x="480" y="1030" on="0"/>
        <pt x="347" y="1000" on="0"/>
        <pt x="231" y="955" on="0"/>
        <pt x="200" y="933" on="1"/>
        <pt x="159" y="1043" on="1"/>
        <pt x="184" y="1060" on="0"/>
        <pt x="318" y="1114" on="0"/>
        <pt x="494" y="1157" on="0"/>
        <pt x="578" y="1157" on="1"/>
      </contour>
      <contour>
        <pt x="572" y="109" on="0"/>
        <pt x="696" y="144" on="0"/>
        <pt x="786" y="191" on="0"/>
        <pt x="801" y="208" on="1"/>
        <pt x="801" y="575" on="1"/>
        <pt x="722" y="575" on="0"/>
        <pt x="513" y="549" on="0"/>
        <pt x="448" y="522" on="1"/>
        <pt x="361" y="489" on="0"/>
        <pt x="275" y="388" on="0"/>
        <pt x="275" y="314" on="1"/>
        <pt x="275" y="219" on="0"/>
        <pt x="388" y="109" on="0"/>
        <pt x="506" y="109" on="1"/>
      </contour>
    </TTGlyph>
    <TTGlyph name="aacute" xMin="110" yMin="-16" xMax="967" yMax="1781">
      <component glyphName="a" x="0" y="0" flags="0x0"/>
      <component glyphName="acute" x="411" y="0" flags="0x0"/>
    </TTGlyph>
    <TTGlyph name="abreve" xMin="110" yMin="-16" xMax="967" yMax="1694">
      <component glyphName="a" x="0" y="0" flags="0x0"/>
      <component glyphName="breve" x="195" y="0" flags="0x0"/>
    </TTGlyph>
    <TTGlyph name="acircumflex" xMin="110" yMin="-16" xMax="967" yMax="1692">
      <component glyphName="a" x="0" y="0" flags="0x0"/>
      <component glyphName="circumflex" x="163" y="0" flags="0x0"/>
    </TTGlyph>
    <TTGlyph name="acute" xMin="50" yMin="1315" xMax="507" yMax="1781">
      <contour>
        <pt x="167" y="1510" on="0"/>
        <pt x="318" y="1686" on="0"/>
        <pt x="387" y="1781" on="1"/>
        <pt x="507" y="1678" on="1"/>
        <pt x="475" y="1630" on="0"/>
        <pt x="332" y="1480" on="0"/>
        <pt x="180" y="1343" on="0"/>
        <pt x="136" y="1315" on="1"/>
        <pt x="50" y="1383" on="1"/>
      </contour>
    </TTGlyph>
    <TTGlyph name="acute.cap" xMin="56" yMin="1589" xMax="514" yMax="1975">
      <contour>
        <pt x="95" y="1691" on="0"/>
        <pt x="375" y="1944" on="0"/>
        <pt x="403" y="1975" on="1"/>
        <pt x="514" y="1873" on="1"/>
        <pt x="434" y="1793" on="0"/>
        <pt x="219" y="1634" on="0"/>
        <pt x="128" y="1589" on="1"/>
        <pt x="56" y="1660" on="1"/>
      </contour>
    </TTGlyph>
    <TTGlyph name="adieresis" xMin="110" yMin="-16" xMax="967" yMax="1633">
      <component glyphName="a" x="0" y="0" flags="0x0"/>
      <component glyphName="dieresis" x="191" y="0" flags="0x0"/>
    </TTGlyph>
    <TTGlyph name="ae" xMin="110" yMin="-16" xMax="1721" yMax="1157">
      <contour>
        <pt x="966" y="553" on="1"/>
        <pt x="966" y="513" on="1"/>
        <pt x="979" y="111" on="0"/>
        <pt x="1340" y="111" on="1"/>
        <pt x="1417" y="111" on="0"/>
        <pt x="1608" y="157" on="0"/>
        <pt x="1653" y="186" on="1"/>
        <pt x="1686" y="89" on="1"/>
        <pt x="1630" y="43" on="0"/>
        <pt x="1406" y="-16" on="0"/>
        <pt x="1298" y="-16" on="1"/>
        <pt x="1158" y="-16" on="0"/>
        <pt x="952" y="88" on="0"/>
        <pt x="890" y="189" on="1"/>
        <pt x="814" y="95" on="0"/>
        <pt x="594" y="-16" on="0"/>
        <pt x="461" y="-16" on="1"/>
        <pt x="360" y="-16" on="0"/>
        <pt x="200" y="61" on="0"/>
        <pt x="110" y="204" on="0"/>
        <pt x="110" y="301" on="1"/>
        <pt x="110" y="411" on="0"/>
        <pt x="238" y="570" on="0"/>
        <pt x="356" y="615" on="1"/>
        <pt x="447" y="651" on="0"/>
        <pt x="684" y="682" on="0"/>
        <pt x="799" y="682" on="1"/>
        <pt x="799" y="801" on="1"/>
        <pt x="799" y="898" on="0"/>
        <pt x="739" y="997" on="0"/>
        <pt x="633" y="1030" on="0"/>
        <pt x="547" y="1030" on="1"/>
        <pt x="492" y="1030" on="0"/>
        <pt x="358" y="999" on="0"/>
        <pt x="237" y="953" on="0"/>
        <pt x="204" y="931" on="1"/>
        <pt x="162" y="1043" on="1"/>
        <pt x="189" y="1060" on="0"/>
        <pt x="327" y="1114" on="0"/>
        <pt x="505" y="1157" on="0"/>
        <pt x="588" y="1157" on="1"/>
        <pt x="724" y="1157" on="0"/>
        <pt x="889" y="1077" on="0"/>
        <pt x="924" y="975" on="1"/>
        <pt x="992" y="1062" on="0"/>
        <pt x="1192" y="1156" on="0"/>
        <pt x="1319" y="1156" on="1"/>
        <pt x="1437" y="1156" on="0"/>
        <pt x="1617" y="1050" on="0"/>
        <pt x="1718" y="856" on="0"/>
        <pt x="1721" y="728" on="1"/>
        <pt x="1721" y="690" on="1"/>
        <pt x="1721" y="596" on="0"/>
        <pt x="1713" y="553" on="1"/>
      </contour>
      <contour>
        <pt x="1169" y="1037" on="0"/>
        <pt x="994" y="854" on="0"/>
        <pt x="972" y="665" on="1"/>
        <pt x="1564" y="665" on="1"/>
        <pt x="1565" y="680" on="0"/>
        <pt x="1565" y="711" on="1"/>
        <pt x="1565" y="861" on="0"/>
        <pt x="1439" y="1037" on="0"/>
        <pt x="1302" y="1037" on="1"/>
      </contour>
      <contour>
        <pt x="573" y="109" on="0"/>
        <pt x="711" y="162" on="0"/>
        <pt x="818" y="243" on="0"/>
        <pt x="845" y="283" on="1"/>
        <pt x="801" y="403" on="0"/>
        <pt x="801" y="565" on="1"/>
        <pt x="801" y="575" on="1"/>
        <pt x="801" y="575" on="1"/>
        <pt x="705" y="575" on="0"/>
        <pt x="510" y="549" on="0"/>
        <pt x="448" y="522" on="1"/>
        <pt x="360" y="489" on="0"/>
        <pt x="278" y="388" on="0"/>
        <pt x="278" y="314" on="1"/>
        <pt x="278" y="220" on="0"/>
        <pt x="387" y="109" on="0"/>
        <pt x="503" y="109" on="1"/>
      </contour>
    </TTGlyph>
    <TTGlyph name="aeacute" xMin="110" yMin="-16" xMax="1721" yMax="1781">
      <component glyphName="acute" x="749" y="0" flags="0x0"/>
      <component glyphName="ae" x="0" y="0" flags="0x0"/>
    </TTGlyph>
    <TTGlyph name="agrave" xMin="110" yMin="-16" xMax="967" yMax="1781">
      <component glyphName="a" x="0" y="0" flags="0x0"/>
      <component glyphName="grave" x="181" y="0" flags="0x0"/>
    </TTGlyph>
    <TTGlyph name="amacron" xMin="110" yMin="-16" xMax="967" yMax="1576">
      <component glyphName="a" x="0" y="0" flags="0x0"/>
      <component glyphName="macron" x="262" y="0" flags="0x0"/>
    </TTGlyph>
    <TTGlyph name="ampersand" xMin="148" yMin="-16" xMax="1440" yMax="1546">
      <contour>
        <pt x="1259" y="117" on="0"/>
        <pt x="1368" y="86" on="0"/>
        <pt x="1440" y="87" on="1"/>
        <pt x="1440" y="-1" on="1"/>
        <pt x="1388" y="-16" on="0"/>
        <pt x="1327" y="-16" on="1"/>
        <pt x="1258" y="-16" on="0"/>
        <pt x="1146" y="25" on="0"/>
        <pt x="1087" y="68" on="1"/>
        <pt x="1014" y="31" on="0"/>
        <pt x="835" y="-16" on="0"/>
        <pt x="752" y="-16" on="1"/>
        <pt x="570" y="-16" on="0"/>
        <pt x="298" y="77" on="0"/>
        <pt x="148" y="258" on="0"/>
        <pt x="148" y="386" on="1"/>
        <pt x="148" y="527" on="0"/>
        <pt x="331" y="719" on="0"/>
        <pt x="484" y="786" on="1"/>
        <pt x="398" y="897" on="0"/>
        <pt x="298" y="1091" on="0"/>
        <pt x="298" y="1197" on="1"/>
        <pt x="298" y="1305" on="0"/>
        <pt x="398" y="1462" on="0"/>
        <pt x="580" y="1546" on="0"/>
        <pt x="701" y="1546" on="1"/>
        <pt x="814" y="1546" on="0"/>
        <pt x="983" y="1454" on="0"/>
        <pt x="1073" y="1302" on="0"/>
        <pt x="1073" y="1214" on="1"/>
        <pt x="1073" y="1044" on="0"/>
        <pt x="879" y="824" on="0"/>
        <pt x="699" y="741" on="1"/>
        <pt x="776" y="636" on="0"/>
        <pt x="1027" y="324" on="0"/>
        <pt x="1102" y="245" on="1"/>
        <pt x="1156" y="294" on="0"/>
        <pt x="1211" y="425" on="0"/>
        <pt x="1211" y="514" on="1"/>
        <pt x="1211" y="579" on="0"/>
        <pt x="1186" y="697" on="0"/>
        <pt x="1173" y="728" on="1"/>
        <pt x="1320" y="728" on="1"/>
        <pt x="1333" y="691" on="0"/>
        <pt x="1355" y="580" on="0"/>
        <pt x="1355" y="514" on="1"/>
        <pt x="1355" y="285" on="0"/>
        <pt x="1203" y="157" on="1"/>
      </contour>
      <contour>
        <pt x="589" y="1427" on="0"/>
        <pt x="453" y="1312" on="0"/>
        <pt x="453" y="1200" on="1"/>
        <pt x="453" y="1138" on="0"/>
        <pt x="486" y="1039" on="0"/>
        <pt x="540" y="955" on="0"/>
        <pt x="593" y="884" on="1"/>
        <pt x="626" y="840" on="1"/>
        <pt x="770" y="900" on="0"/>
        <pt x="930" y="1077" on="0"/>
        <pt x="930" y="1212" on="1"/>
        <pt x="930" y="1266" on="0"/>
        <pt x="874" y="1365" on="0"/>
        <pt x="768" y="1427" on="0"/>
        <pt x="697" y="1427" on="1"/>
      </contour>
      <contour>
        <pt x="859" y="106" on="0"/>
        <pt x="983" y="160" on="1"/>
        <pt x="895" y="255" on="0"/>
        <pt x="655" y="557" on="0"/>
        <pt x="560" y="687" on="1"/>
        <pt x="442" y="631" on="0"/>
        <pt x="305" y="489" on="0"/>
        <pt x="305" y="390" on="1"/>
        <pt x="305" y="311" on="0"/>
        <pt x="398" y="183" on="0"/>
        <pt x="594" y="106" on="0"/>
        <pt x="743" y="106" on="1"/>
      </contour>
    </TTGlyph>
    <TTGlyph name="aogonek" xMin="110" yMin="-512" xMax="1053" yMax="1157">
      <contour>
        <pt x="973" y="-397" on="0"/>
        <pt x="1053" y="-358" on="1"/>
        <pt x="1053" y="-450" on="1"/>
        <pt x="1014" y="-480" on="0"/>
        <pt x="885" y="-512" on="0"/>
        <pt x="819" y="-512" on="1"/>
        <pt x="713" y="-512" on="0"/>
        <pt x="578" y="-408" on="0"/>
        <pt x="578" y="-309" on="1"/>
        <pt x="578" y="-247" on="0"/>
        <pt x="654" y="-128" on="0"/>
        <pt x="770" y="-33" on="0"/>
        <pt x="831" y="-2" on="1"/>
        <pt x="811" y="15" on="0"/>
        <pt x="811" y="64" on="1"/>
        <pt x="811" y="106" on="1"/>
        <pt x="757" y="57" on="0"/>
        <pt x="569" y="-16" on="0"/>
        <pt x="457" y="-16" on="1"/>
        <pt x="356" y="-16" on="0"/>
        <pt x="198" y="60" on="0"/>
        <pt x="110" y="204" on="0"/>
        <pt x="110" y="301" on="1"/>
        <pt x="110" y="412" on="0"/>
        <pt x="235" y="570" on="0"/>
        <pt x="356" y="615" on="1"/>
        <pt x="448" y="649" on="0"/>
        <pt x="696" y="682" on="0"/>
        <pt x="801" y="682" on="1"/>
        <pt x="801" y="814" on="1"/>
        <pt x="801" y="903" on="0"/>
        <pt x="741" y="997" on="0"/>
        <pt x="628" y="1030" on="0"/>
        <pt x="535" y="1030" on="1"/>
        <pt x="480" y="1030" on="0"/>
        <pt x="347" y="1000" on="0"/>
        <pt x="231" y="955" on="0"/>
        <pt x="200" y="933" on="1"/>
        <pt x="159" y="1043" on="1"/>
        <pt x="184" y="1060" on="0"/>
        <pt x="318" y="1114" on="0"/>
        <pt x="494" y="1157" on="0"/>
        <pt x="578" y="1157" on="1"/>
        <pt x="704" y="1157" on="0"/>
        <pt x="873" y="1098" on="0"/>
        <pt x="967" y="945" on="0"/>
        <pt x="967" y="807" on="1"/>
        <pt x="967" y="-16" on="1"/>
        <pt x="953" y="-16" on="1"/>
        <pt x="863" y="-73" on="0"/>
        <pt x="742" y="-200" on="0"/>
        <pt x="742" y="-279" on="1"/>
        <pt x="742" y="-345" on="0"/>
        <pt x="822" y="-399" on="0"/>
        <pt x="892" y="-399" on="1"/>
      </contour>
      <contour>
        <pt x="572" y="109" on="0"/>
        <pt x="696" y="144" on="0"/>
        <pt x="786" y="191" on="0"/>
        <pt x="801" y="208" on="1"/>
        <pt x="801" y="575" on="1"/>
        <pt x="722" y="575" on="0"/>
        <pt x="513" y="549" on="0"/>
        <pt x="448" y="522" on="1"/>
        <pt x="361" y="489" on="0"/>
        <pt x="275" y="388" on="0"/>
        <pt x="275" y="314" on="1"/>
        <pt x="275" y="219" on="0"/>
        <pt x="388" y="109" on="0"/>
        <pt x="506" y="109" on="1"/>
      </contour>
    </TTGlyph>
    <TTGlyph name="approxequal" xMin="216" yMin="307" xMax="1209" yMax="1078">
      <component glyphName="asciitilde" x="-6" y="-353" flags="0x4"/>
      <component glyphName="asciitilde" x="-6" y="103" flags="0x4"/>
    </TTGlyph>
    <TTGlyph name="aring" xMin="110" yMin="-16" xMax="967" yMax="1858">
      <component glyphName="a" x="0" y="0" flags="0x0"/>
      <component glyphName="ring" x="226" y="0" flags="0x0"/>
    </TTGlyph>
    <TTGlyph name="asciicircum" xMin="189" yMin="509" xMax="1174" yMax="1531">
      <contour>
        <pt x="1014" y="509" on="1"/>
        <pt x="681" y="1348" on="1"/>
        <pt x="350" y="509" on="1"/>
        <pt x="189" y="509" on="1"/>
        <pt x="603" y="1531" on="1"/>
        <pt x="757" y="1531" on="1"/>
        <pt x="1174" y="509" on="1"/>
      </contour>
    </TTGlyph>
    <TTGlyph name="asciitilde" xMin="222" yMin="660" xMax="1215" yMax="975">
      <contour>
        <pt x="241" y="819" on="0"/>
        <pt x="329" y="912" on="0"/>
        <pt x="456" y="975" on="0"/>
        <pt x="529" y="975" on="1"/>
        <pt x="577" y="975" on="0"/>
        <pt x="654" y="949" on="0"/>
        <pt x="710" y="912" on="0"/>
        <pt x="747" y="881" on="1"/>
        <pt x="797" y="841" on="0"/>
        <pt x="868" y="803" on="0"/>
        <pt x="916" y="803" on="1"/>
        <pt x="1047" y="803" on="0"/>
        <pt x="1136" y="928" on="1"/>
        <pt x="1215" y="852" on="1"/>
        <pt x="1194" y="803" on="0"/>
        <pt x="1109" y="715" on="0"/>
        <pt x="983" y="660" on="0"/>
        <pt x="907" y="660" on="1"/>
        <pt x="859" y="660" on="0"/>
        <pt x="784" y="686" on="0"/>
        <pt x="729" y="723" on="0"/>
        <pt x="692" y="754" on="1"/>
        <pt x="642" y="794" on="0"/>
        <pt x="572" y="833" on="0"/>
        <pt x="523" y="833" on="1"/>
        <pt x="453" y="833" on="0"/>
        <pt x="350" y="764" on="0"/>
        <pt x="310" y="707" on="1"/>
        <pt x="222" y="776" on="1"/>
      </contour>
    </TTGlyph>
    <TTGlyph name="asterisk" xMin="139" yMin="648" xMax="1087" yMax="1658">
      <contour>
        <pt x="579" y="1096" on="1"/>
        <pt x="451" y="986" on="1"/>
        <pt x="215" y="834" on="1"/>
        <pt x="142" y="959" on="1"/>
        <pt x="388" y="1093" on="1"/>
        <pt x="545" y="1153" on="1"/>
        <pt x="520" y="1163" on="0"/>
        <pt x="414" y="1201" on="0"/>
        <pt x="387" y="1210" on="1"/>
        <pt x="139" y="1340" on="1"/>
        <pt x="210" y="1466" on="1"/>
        <pt x="447" y="1315" on="1"/>
        <pt x="578" y="1211" on="1"/>
        <pt x="574" y="1238" on="0"/>
        <pt x="555" y="1347" on="0"/>
        <pt x="549" y="1375" on="1"/>
        <pt x="535" y="1658" on="1"/>
        <pt x="681" y="1658" on="1"/>
        <pt x="671" y="1377" on="1"/>
        <pt x="645" y="1212" on="1"/>
        <pt x="773" y="1320" on="1"/>
        <pt x="1011" y="1472" on="1"/>
        <pt x="1083" y="1348" on="1"/>
        <pt x="836" y="1215" on="1"/>
        <pt x="680" y="1154" on="1"/>
        <pt x="837" y="1097" on="1"/>
        <pt x="1087" y="969" on="1"/>
        <pt x="1013" y="840" on="1"/>
        <pt x="778" y="990" on="1"/>
        <pt x="645" y="1094" on="1"/>
        <pt x="648" y="1088" on="0"/>
        <pt x="674" y="929" on="1"/>
        <pt x="690" y="649" on="1"/>
        <pt x="544" y="648" on="1"/>
        <pt x="554" y="929" on="1"/>
      </contour>
    </TTGlyph>
    <TTGlyph name="at" xMin="224" yMin="-465" xMax="1999" yMax="1544">
      <contour>
        <pt x="1308" y="214" on="1"/>
        <pt x="1308" y="299" on="0"/>
        <pt x="1325" y="405" on="1"/>
        <pt x="1241" y="230" on="0"/>
        <pt x="1038" y="-2" on="0"/>
        <pt x="933" y="-2" on="1"/>
        <pt x="863" y="-2" on="0"/>
        <pt x="734" y="92" on="0"/>
        <pt x="652" y="282" on="0"/>
        <pt x="652" y="418" on="1"/>
        <pt x="652" y="570" on="0"/>
        <pt x="773" y="871" on="0"/>
        <pt x="1022" y="1071" on="0"/>
        <pt x="1205" y="1071" on="1"/>
        <pt x="1276" y="1071" on="0"/>
        <pt x="1404" y="1042" on="0"/>
        <pt x="1450" y="1014" on="1"/>
        <pt x="1583" y="1040" on="1"/>
        <pt x="1550" y="920" on="0"/>
        <pt x="1472" y="568" on="0"/>
        <pt x="1454" y="431" on="1"/>
        <pt x="1436" y="289" on="0"/>
        <pt x="1436" y="227" on="1"/>
        <pt x="1436" y="174" on="0"/>
        <pt x="1458" y="124" on="0"/>
        <pt x="1481" y="124" on="1"/>
        <pt x="1572" y="124" on="0"/>
        <pt x="1750" y="309" on="0"/>
        <pt x="1863" y="624" on="0"/>
        <pt x="1863" y="808" on="1"/>
        <pt x="1863" y="1148" on="0"/>
        <pt x="1513" y="1432" on="0"/>
        <pt x="1224" y="1432" on="1"/>
        <pt x="993" y="1432" on="0"/>
        <pt x="596" y="1185" on="0"/>
        <pt x="359" y="733" on="0"/>
        <pt x="359" y="440" on="1"/>
        <pt x="359" y="165" on="0"/>
        <pt x="556" y="-190" on="0"/>
        <pt x="884" y="-352" on="0"/>
        <pt x="1089" y="-352" on="1"/>
        <pt x="1228" y="-352" on="0"/>
        <pt x="1438" y="-295" on="0"/>
        <pt x="1502" y="-259" on="1"/>
        <pt x="1532" y="-359" on="1"/>
        <pt x="1466" y="-403" on="0"/>
        <pt x="1210" y="-465" on="0"/>
        <pt x="1074" y="-465" on="1"/>
        <pt x="828" y="-465" on="0"/>
        <pt x="444" y="-267" on="0"/>
        <pt x="224" y="133" on="0"/>
        <pt x="224" y="425" on="1"/>
        <pt x="224" y="757" on="0"/>
        <pt x="497" y="1266" on="0"/>
        <pt x="967" y="1544" on="0"/>
        <pt x="1253" y="1544" on="1"/>
        <pt x="1474" y="1544" on="0"/>
        <pt x="1812" y="1377" on="0"/>
        <pt x="1999" y="1057" on="0"/>
        <pt x="1999" y="835" on="1"/>
        <pt x="1999" y="580" on="0"/>
        <pt x="1839" y="201" on="0"/>
        <pt x="1583" y="2" on="0"/>
        <pt x="1443" y="2" on="1"/>
        <pt x="1376" y="2" on="0"/>
        <pt x="1314" y="95" on="0"/>
        <pt x="1309" y="183" on="1"/>
      </contour>
      <contour>
        <pt x="1035" y="133" on="0"/>
        <pt x="1220" y="398" on="0"/>
        <pt x="1373" y="761" on="0"/>
        <pt x="1392" y="885" on="1"/>
        <pt x="1366" y="919" on="0"/>
        <pt x="1249" y="956" on="0"/>
        <pt x="1190" y="956" on="1"/>
        <pt x="1069" y="956" on="0"/>
        <pt x="892" y="810" on="0"/>
        <pt x="798" y="583" on="0"/>
        <pt x="795" y="464" on="1"/>
        <pt x="792" y="310" on="0"/>
        <pt x="882" y="133" on="0"/>
        <pt x="966" y="133" on="1"/>
      </contour>
    </TTGlyph>
    <TTGlyph name="atilde" xMin="110" yMin="-16" xMax="992" yMax="1638">
      <component glyphName="a" x="0" y="0" flags="0x0"/>
      <component glyphName="tilde" x="122" y="0" flags="0x0"/>
    </TTGlyph>
    <TTGlyph name="b" xMin="184" yMin="-17" xMax="1141" yMax="1661">
      <contour>
        <pt x="184" y="1661" on="1"/>
        <pt x="351" y="1661" on="1"/>
        <pt x="351" y="1186" on="1"/>
        <pt x="343" y="991" on="1"/>
        <pt x="351" y="986" on="1"/>
        <pt x="351" y="138" on="1"/>
        <pt x="184" y="64" on="1"/>
      </contour>
      <contour>
        <pt x="205" y="49" on="0"/>
        <pt x="328" y="11" on="0"/>
        <pt x="489" y="-17" on="0"/>
        <pt x="567" y="-17" on="1"/>
        <pt x="736" y="-17" on="0"/>
        <pt x="997" y="142" on="0"/>
        <pt x="1141" y="427" on="0"/>
        <pt x="1141" y="612" on="1"/>
        <pt x="1141" y="789" on="0"/>
        <pt x="1022" y="1034" on="0"/>
        <pt x="819" y="1156" on="0"/>
        <pt x="691" y="1156" on="1"/>
        <pt x="557" y="1156" on="0"/>
        <pt x="385" y="1059" on="0"/>
        <pt x="322" y="994" on="1"/>
        <pt x="349" y="907" on="1"/>
        <pt x="399" y="953" on="0"/>
        <pt x="559" y="1025" on="0"/>
        <pt x="646" y="1025" on="1"/>
        <pt x="805" y="1025" on="0"/>
        <pt x="971" y="806" on="0"/>
        <pt x="971" y="597" on="1"/>
        <pt x="971" y="438" on="0"/>
        <pt x="866" y="217" on="0"/>
        <pt x="690" y="106" on="0"/>
        <pt x="585" y="106" on="1"/>
        <pt x="507" y="106" on="0"/>
        <pt x="380" y="133" on="0"/>
        <pt x="351" y="155" on="1"/>
        <pt x="184" y="64" on="1"/>
      </contour>
    </TTGlyph>
    <TTGlyph name="backslash" xMin="66" yMin="-363" xMax="787" yMax="1599">
      <contour>
        <pt x="787" y="-363" on="1"/>
        <pt x="637" y="-363" on="1"/>
        <pt x="66" y="1599" on="1"/>
        <pt x="217" y="1599" on="1"/>
      </contour>
    </TTGlyph>
    <TTGlyph name="bar" xMin="344" yMin="-187" xMax="498" yMax="1780">
      <contour>
        <pt x="498" y="1780" on="1"/>
        <pt x="498" y="-187" on="1"/>
        <pt x="344" y="-187" on="1"/>
        <pt x="344" y="1780" on="1"/>
      </contour>
    </TTGlyph>
    <TTGlyph name="braceleft" xMin="118" yMin="-195" xMax="823" yMax="1741">
      <contour>
        <pt x="528" y="923" on="0"/>
        <pt x="491" y="892" on="1"/>
        <pt x="469" y="870" on="0"/>
        <pt x="347" y="806" on="0"/>
        <pt x="283" y="778" on="1"/>
        <pt x="341" y="754" on="0"/>
        <pt x="470" y="683" on="0"/>
        <pt x="494" y="658" on="1"/>
        <pt x="528" y="624" on="0"/>
        <pt x="528" y="582" on="1"/>
        <pt x="528" y="-82" on="1"/>
        <pt x="823" y="-82" on="1"/>
        <pt x="823" y="-167" on="1"/>
        <pt x="703" y="-195" on="0"/>
        <pt x="526" y="-195" on="1"/>
        <pt x="464" y="-195" on="0"/>
        <pt x="397" y="-160" on="0"/>
        <pt x="369" y="-76" on="0"/>
        <pt x="369" y="2" on="1"/>
        <pt x="369" y="585" on="1"/>
        <pt x="369" y="617" on="0"/>
        <pt x="223" y="694" on="0"/>
        <pt x="118" y="724" on="1"/>
        <pt x="118" y="834" on="1"/>
        <pt x="243" y="875" on="0"/>
        <pt x="369" y="936" on="0"/>
        <pt x="369" y="969" on="1"/>
        <pt x="369" y="1544" on="1"/>
        <pt x="369" y="1622" on="0"/>
        <pt x="397" y="1706" on="0"/>
        <pt x="463" y="1741" on="0"/>
        <pt x="526" y="1741" on="1"/>
        <pt x="643" y="1741" on="0"/>
        <pt x="823" y="1721" on="1"/>
        <pt x="823" y="1629" on="1"/>
        <pt x="528" y="1629" on="1"/>
        <pt x="528" y="972" on="1"/>
      </contour>
    </TTGlyph>
    <TTGlyph name="braceright" xMin="163" yMin="-195" xMax="868" yMax="1741">
      <contour>
        <pt x="617" y="936" on="0"/>
        <pt x="743" y="875" on="0"/>
        <pt x="868" y="834" on="1"/>
        <pt x="868" y="724" on="1"/>
        <pt x="763" y="694" on="0"/>
        <pt x="617" y="617" on="0"/>
        <pt x="617" y="585" on="1"/>
        <pt x="617" y="2" on="1"/>
        <pt x="617" y="-76" on="0"/>
        <pt x="589" y="-160" on="0"/>
        <pt x="522" y="-195" on="0"/>
        <pt x="460" y="-195" on="1"/>
        <pt x="283" y="-195" on="0"/>
        <pt x="163" y="-167" on="1"/>
        <pt x="163" y="-82" on="1"/>
        <pt x="458" y="-82" on="1"/>
        <pt x="458" y="582" on="1"/>
        <pt x="458" y="624" on="0"/>
        <pt x="492" y="658" on="1"/>
        <pt x="516" y="683" on="0"/>
        <pt x="645" y="754" on="0"/>
        <pt x="703" y="778" on="1"/>
        <pt x="639" y="806" on="0"/>
        <pt x="517" y="870" on="0"/>
        <pt x="495" y="892" on="1"/>
        <pt x="458" y="923" on="0"/>
        <pt x="458" y="972" on="1"/>
        <pt x="458" y="1629" on="1"/>
        <pt x="163" y="1629" on="1"/>
        <pt x="163" y="1721" on="1"/>
        <pt x="343" y="1741" on="0"/>
        <pt x="460" y="1741" on="1"/>
        <pt x="523" y="1741" on="0"/>
        <pt x="589" y="1706" on="0"/>
        <pt x="617" y="1622" on="0"/>
        <pt x="617" y="1544" on="1"/>
        <pt x="617" y="969" on="1"/>
      </contour>
    </TTGlyph>
    <TTGlyph name="bracketleft" xMin="226" yMin="-191" xMax="688" yMax="1737">
      <contour>
        <pt x="226" y="1623" on="0"/>
        <pt x="251" y="1704" on="0"/>
        <pt x="314" y="1737" on="0"/>
        <pt x="376" y="1737" on="1"/>
        <pt x="486" y="1737" on="0"/>
        <pt x="688" y="1717" on="1"/>
        <pt x="688" y="1627" on="1"/>
        <pt x="386" y="1627" on="1"/>
        <pt x="386" y="-82" on="1"/>
        <pt x="688" y="-84" on="1"/>
        <pt x="688" y="-171" on="1"/>
        <pt x="548" y="-191" on="0"/>
        <pt x="376" y="-191" on="1"/>
        <pt x="314" y="-191" on="0"/>
        <pt x="251" y="-158" on="0"/>
        <pt x="226" y="-77" on="0"/>
        <pt x="226" y="2" on="1"/>
        <pt x="226" y="1544" on="1"/>
      </contour>
    </TTGlyph>
    <TTGlyph name="bracketright" xMin="153" yMin="-191" xMax="615" yMax="1737">
      <contour>
        <pt x="615" y="2" on="1"/>
        <pt x="615" y="-77" on="0"/>
        <pt x="590" y="-158" on="0"/>
        <pt x="527" y="-191" on="0"/>
        <pt x="465" y="-191" on="1"/>
        <pt x="293" y="-191" on="0"/>
        <pt x="153" y="-171" on="1"/>
        <pt x="153" y="-84" on="1"/>
        <pt x="455" y="-82" on="1"/>
        <pt x="455" y="1627" on="1"/>
        <pt x="153" y="1627" on="1"/>
        <pt x="153" y="1717" on="1"/>
        <pt x="355" y="1737" on="0"/>
        <pt x="465" y="1737" on="1"/>
        <pt x="527" y="1737" on="0"/>
        <pt x="590" y="1704" on="0"/>
        <pt x="615" y="1623" on="0"/>
        <pt x="615" y="1544" on="1"/>
      </contour>
    </TTGlyph>
    <TTGlyph name="breve" xMin="48" yMin="1335" xMax="726" yMax="1694">
      <contour>
        <pt x="167" y="1694" on="1"/>
        <pt x="168" y="1653" on="0"/>
        <pt x="201" y="1550" on="0"/>
        <pt x="299" y="1465" on="0"/>
        <pt x="388" y="1465" on="1"/>
        <pt x="475" y="1465" on="0"/>
        <pt x="574" y="1551" on="0"/>
        <pt x="611" y="1657" on="0"/>
        <pt x="611" y="1694" on="1"/>
        <pt x="725" y="1694" on="1"/>
        <pt x="726" y="1686" on="0"/>
        <pt x="726" y="1671" on="1"/>
        <pt x="726" y="1585" on="0"/>
        <pt x="639" y="1430" on="0"/>
        <pt x="484" y="1335" on="0"/>
        <pt x="387" y="1335" on="1"/>
        <pt x="285" y="1335" on="0"/>
        <pt x="131" y="1430" on="0"/>
        <pt x="48" y="1584" on="0"/>
        <pt x="48" y="1671" on="1"/>
        <pt x="48" y="1686" on="0"/>
        <pt x="49" y="1694" on="1"/>
      </contour>
    </TTGlyph>
    <TTGlyph name="breve.cap" xMin="48" yMin="1642" xMax="725" yMax="1967">
      <contour>
        <pt x="166" y="1967" on="1"/>
        <pt x="168" y="1929" on="0"/>
        <pt x="201" y="1843" on="0"/>
        <pt x="299" y="1774" on="0"/>
        <pt x="387" y="1774" on="1"/>
        <pt x="473" y="1774" on="0"/>
        <pt x="572" y="1844" on="0"/>
        <pt x="609" y="1933" on="0"/>
        <pt x="610" y="1967" on="1"/>
        <pt x="724" y="1967" on="1"/>
        <pt x="725" y="1946" on="1"/>
        <pt x="725" y="1864" on="0"/>
        <pt x="640" y="1725" on="0"/>
        <pt x="486" y="1642" on="0"/>
        <pt x="387" y="1642" on="1"/>
        <pt x="283" y="1642" on="0"/>
        <pt x="130" y="1724" on="0"/>
        <pt x="48" y="1861" on="0"/>
        <pt x="48" y="1944" on="1"/>
        <pt x="48" y="1959" on="0"/>
        <pt x="49" y="1967" on="1"/>
      </contour>
    </TTGlyph>
    <TTGlyph name="brokenbar" xMin="344" yMin="-186" xMax="498" yMax="1780">
      <contour>
        <pt x="498" y="1780" on="1"/>
        <pt x="498" y="946" on="1"/>
        <pt x="344" y="946" on="1"/>
        <pt x="344" y="1780" on="1"/>
      </contour>
      <contour>
        <pt x="498" y="645" on="1"/>
        <pt x="498" y="-186" on="1"/>
        <pt x="344" y="-186" on="1"/>
        <pt x="344" y="645" on="1"/>
      </contour>
    </TTGlyph>
    <TTGlyph name="bullet" xMin="255" yMin="548" xMax="597" yMax="902">
      <contour>
        <pt x="255" y="766" on="0"/>
        <pt x="304" y="852" on="0"/>
        <pt x="387" y="902" on="0"/>
        <pt x="434" y="902" on="1"/>
        <pt x="479" y="902" on="0"/>
        <pt x="554" y="859" on="0"/>
        <pt x="597" y="783" on="0"/>
        <pt x="597" y="737" on="1"/>
        <pt x="597" y="686" on="0"/>
        <pt x="548" y="599" on="0"/>
        <pt x="466" y="548" on="0"/>
        <pt x="418" y="548" on="1"/>
        <pt x="373" y="548" on="0"/>
        <pt x="299" y="593" on="0"/>
        <pt x="255" y="670" on="0"/>
        <pt x="255" y="715" on="1"/>
      </contour>
    </TTGlyph>
    <TTGlyph name="c" xMin="105" yMin="-16" xMax="947" yMax="1156">
      <contour>
        <pt x="737" y="1156" on="0"/>
        <pt x="887" y="1120" on="0"/>
        <pt x="921" y="1097" on="1"/>
        <pt x="892" y="965" on="1"/>
        <pt x="851" y="995" on="0"/>
        <pt x="717" y="1027" on="0"/>
        <pt x="635" y="1027" on="1"/>
        <pt x="536" y="1027" on="0"/>
        <pt x="369" y="923" on="0"/>
        <pt x="268" y="715" on="0"/>
        <pt x="268" y="565" on="1"/>
        <pt x="268" y="418" on="0"/>
        <pt x="364" y="213" on="0"/>
        <pt x="526" y="110" on="0"/>
        <pt x="624" y="110" on="1"/>
        <pt x="713" y="110" on="0"/>
        <pt x="866" y="159" on="0"/>
        <pt x="912" y="189" on="1"/>
        <pt x="947" y="93" on="1"/>
        <pt x="893" y="43" on="0"/>
        <pt x="706" y="-16" on="0"/>
        <pt x="599" y="-16" on="1"/>
        <pt x="446" y="-16" on="0"/>
        <pt x="223" y="131" on="0"/>
        <pt x="106" y="389" on="0"/>
        <pt x="106" y="553" on="1"/>
        <pt x="105" y="727" on="0"/>
        <pt x="231" y="1001" on="0"/>
        <pt x="474" y="1156" on="0"/>
        <pt x="644" y="1156" on="1"/>
      </contour>
    </TTGlyph>
    <TTGlyph name="cacute" xMin="105" yMin="-16" xMax="951" yMax="1781">
      <component glyphName="acute" x="444" y="0" flags="0x0"/>
      <component glyphName="c" x="0" y="0" flags="0x0"/>
    </TTGlyph>
    <TTGlyph name="caron" xMin="48" yMin="1301" xMax="785" yMax="1691">
      <contour>
        <pt x="419" y="1428" on="1"/>
        <pt x="682" y="1691" on="1"/>
        <pt x="785" y="1647" on="1"/>
        <pt x="494" y="1301" on="1"/>
        <pt x="345" y="1301" on="1"/>
        <pt x="48" y="1648" on="1"/>
        <pt x="145" y="1691" on="1"/>
      </contour>
    </TTGlyph>
    <TTGlyph name="caron.cap" xMin="49" yMin="1667" xMax="730" yMax="1982">
      <contour>
        <pt x="146" y="1982" on="1"/>
        <pt x="390" y="1780" on="1"/>
        <pt x="638" y="1982" on="1"/>
        <pt x="730" y="1938" on="1"/>
        <pt x="465" y="1667" on="1"/>
        <pt x="317" y="1667" on="1"/>
        <pt x="49" y="1936" on="1"/>
      </contour>
    </TTGlyph>
    <TTGlyph name="caronvertical" xMin="55" yMin="1037" xMax="265" yMax="1685">
      <contour>
        <pt x="55" y="1086" on="1"/>
        <pt x="60" y="1102" on="0"/>
        <pt x="67" y="1118" on="1"/>
        <pt x="90" y="1178" on="0"/>
        <pt x="115" y="1298" on="0"/>
        <pt x="115" y="1399" on="1"/>
        <pt x="115" y="1457" on="0"/>
        <pt x="84" y="1580" on="0"/>
        <pt x="62" y="1607" on="1"/>
        <pt x="72" y="1644" on="1"/>
        <pt x="205" y="1685" on="1"/>
        <pt x="235" y="1658" on="0"/>
        <pt x="265" y="1529" on="0"/>
        <pt x="265" y="1447" on="1"/>
        <pt x="265" y="1321" on="0"/>
        <pt x="196" y="1099" on="0"/>
        <pt x="146" y="1037" on="1"/>
        <pt x="62" y="1063" on="1"/>
      </contour>
    </TTGlyph>
    <TTGlyph name="ccaron" xMin="105" yMin="-16" xMax="983" yMax="1712">
      <component glyphName="caron" x="198" y="21" flags="0x4"/>
      <component glyphName="c" x="0" y="0" flags="0x0"/>
    </TTGlyph>
    <TTGlyph name="ccedilla" xMin="105" yMin="-464" xMax="947" yMax="1156">
      <contour>
        <pt x="896" y="47" on="0"/>
        <pt x="729" y="-11" on="0"/>
        <pt x="631" y="-15" on="1"/>
        <pt x="662" y="-85" on="0"/>
        <pt x="662" y="-190" on="1"/>
        <pt x="662" y="-218" on="0"/>
        <pt x="661" y="-232" on="1"/>
        <pt x="654" y="-351" on="0"/>
        <pt x="527" y="-464" on="0"/>
        <pt x="432" y="-464" on="1"/>
        <pt x="394" y="-464" on="0"/>
        <pt x="309" y="-448" on="0"/>
        <pt x="292" y="-436" on="1"/>
        <pt x="304" y="-327" on="1"/>
        <pt x="317" y="-335" on="0"/>
        <pt x="366" y="-345" on="0"/>
        <pt x="394" y="-345" on="1"/>
        <pt x="457" y="-345" on="0"/>
        <pt x="533" y="-265" on="0"/>
        <pt x="537" y="-180" on="1"/>
        <pt x="540" y="-147" on="0"/>
        <pt x="540" y="-121" on="1"/>
        <pt x="540" y="-58" on="0"/>
        <pt x="525" y="-11" on="1"/>
        <pt x="394" y="7" on="0"/>
        <pt x="205" y="160" on="0"/>
        <pt x="106" y="403" on="0"/>
        <pt x="106" y="553" on="1"/>
        <pt x="105" y="727" on="0"/>
        <pt x="231" y="1001" on="0"/>
        <pt x="474" y="1156" on="0"/>
        <pt x="644" y="1156" on="1"/>
        <pt x="737" y="1156" on="0"/>
        <pt x="887" y="1120" on="0"/>
        <pt x="921" y="1097" on="1"/>
        <pt x="892" y="965" on="1"/>
        <pt x="851" y="995" on="0"/>
        <pt x="717" y="1027" on="0"/>
        <pt x="635" y="1027" on="1"/>
        <pt x="536" y="1027" on="0"/>
        <pt x="369" y="923" on="0"/>
        <pt x="268" y="715" on="0"/>
        <pt x="268" y="565" on="1"/>
        <pt x="268" y="418" on="0"/>
        <pt x="364" y="213" on="0"/>
        <pt x="526" y="110" on="0"/>
        <pt x="624" y="110" on="1"/>
        <pt x="713" y="110" on="0"/>
        <pt x="866" y="159" on="0"/>
        <pt x="912" y="189" on="1"/>
        <pt x="947" y="93" on="1"/>
      </contour>
    </TTGlyph>
    <TTGlyph name="ccircumflex" xMin="105" yMin="-16" xMax="982" yMax="1692">
      <component glyphName="circumflex" x="197" y="0" flags="0x0"/>
      <component glyphName="c" x="0" y="0" flags="0x0"/>
    </TTGlyph>
    <TTGlyph name="cdotaccent" xMin="105" yMin="-16" xMax="947" yMax="1630">
      <component glyphName="c" x="0" y="0" flags="0x0"/>
      <component glyphName="dotaccent" x="451" y="0" flags="0x0"/>
    </TTGlyph>
    <TTGlyph name="cedilla" xMin="48" yMin="-464" xMax="418" yMax="25">
      <contour>
        <pt x="73" y="-335" on="0"/>
        <pt x="122" y="-345" on="0"/>
        <pt x="150" y="-345" on="1"/>
        <pt x="213" y="-345" on="0"/>
        <pt x="289" y="-265" on="0"/>
        <pt x="293" y="-180" on="1"/>
        <pt x="296" y="-149" on="0"/>
        <pt x="296" y="-122" on="1"/>
        <pt x="296" y="-41" on="0"/>
        <pt x="268" y="21" on="1"/>
        <pt x="332" y="25" on="1"/>
        <pt x="366" y="21" on="1"/>
        <pt x="418" y="-48" on="0"/>
        <pt x="418" y="-190" on="1"/>
        <pt x="418" y="-218" on="0"/>
        <pt x="417" y="-232" on="1"/>
        <pt x="410" y="-351" on="0"/>
        <pt x="283" y="-464" on="0"/>
        <pt x="188" y="-464" on="1"/>
        <pt x="150" y="-464" on="0"/>
        <pt x="65" y="-448" on="0"/>
        <pt x="48" y="-436" on="1"/>
        <pt x="60" y="-327" on="1"/>
      </contour>
    </TTGlyph>
    <TTGlyph name="cent" xMin="169" yMin="-216" xMax="1011" yMax="1373">
      <contour>
        <pt x="964" y="49" on="0"/>
        <pt x="808" y="-7" on="0"/>
        <pt x="716" y="-14" on="1"/>
        <pt x="712" y="-216" on="1"/>
        <pt x="597" y="-216" on="1"/>
        <pt x="601" y="-13" on="1"/>
        <pt x="466" y="2" on="0"/>
        <pt x="272" y="155" on="0"/>
        <pt x="170" y="401" on="0"/>
        <pt x="170" y="553" on="1"/>
        <pt x="169" y="715" on="0"/>
        <pt x="279" y="976" on="0"/>
        <pt x="491" y="1137" on="0"/>
        <pt x="640" y="1153" on="1"/>
        <pt x="646" y="1373" on="1"/>
        <pt x="760" y="1373" on="1"/>
        <pt x="755" y="1155" on="1"/>
        <pt x="833" y="1150" on="0"/>
        <pt x="956" y="1117" on="0"/>
        <pt x="985" y="1097" on="1"/>
        <pt x="956" y="965" on="1"/>
        <pt x="915" y="995" on="0"/>
        <pt x="781" y="1027" on="0"/>
        <pt x="699" y="1027" on="1"/>
        <pt x="600" y="1027" on="0"/>
        <pt x="433" y="923" on="0"/>
        <pt x="332" y="715" on="0"/>
        <pt x="332" y="565" on="1"/>
        <pt x="332" y="418" on="0"/>
        <pt x="428" y="213" on="0"/>
        <pt x="590" y="110" on="0"/>
        <pt x="688" y="110" on="1"/>
        <pt x="777" y="110" on="0"/>
        <pt x="930" y="159" on="0"/>
        <pt x="976" y="189" on="1"/>
        <pt x="1011" y="93" on="1"/>
      </contour>
    </TTGlyph>
    <TTGlyph name="circumflex" xMin="48" yMin="1302" xMax="785" yMax="1692">
      <contour>
        <pt x="345" y="1692" on="1"/>
        <pt x="494" y="1692" on="1"/>
        <pt x="785" y="1346" on="1"/>
        <pt x="682" y="1302" on="1"/>
        <pt x="419" y="1565" on="1"/>
        <pt x="145" y="1302" on="1"/>
        <pt x="48" y="1345" on="1"/>
      </contour>
    </TTGlyph>
    <TTGlyph name="circumflex.cap" xMin="49" yMin="1639" xMax="755" yMax="1982">
      <contour>
        <pt x="326" y="1982" on="1"/>
        <pt x="475" y="1982" on="1"/>
        <pt x="755" y="1686" on="1"/>
        <pt x="645" y="1639" on="1"/>
        <pt x="401" y="1862" on="1"/>
        <pt x="153" y="1639" on="1"/>
        <pt x="49" y="1684" on="1"/>
      </contour>
    </TTGlyph>
    <TTGlyph name="colon" xMin="184" yMin="-16" xMax="417" yMax="1073">
      <component glyphName="period" x="0" y="0" flags="0x0"/>
      <component glyphName="period" x="0" y="824" flags="0x4"/>
    </TTGlyph>
    <TTGlyph name="colonmonetary" xMin="107" yMin="-354" xMax="1200" yMax="1815">
      <contour>
        <pt x="107" y="959" on="0"/>
        <pt x="239" y="1275" on="0"/>
        <pt x="471" y="1476" on="0"/>
        <pt x="621" y="1515" on="1"/>
        <pt x="641" y="1815" on="1"/>
        <pt x="731" y="1815" on="1"/>
        <pt x="712" y="1532" on="1"/>
        <pt x="757" y="1538" on="0"/>
        <pt x="803" y="1538" on="1"/>
        <pt x="837" y="1538" on="0"/>
        <pt x="891" y="1536" on="1"/>
        <pt x="910" y="1815" on="1"/>
        <pt x="1001" y="1815" on="1"/>
        <pt x="982" y="1527" on="1"/>
        <pt x="1034" y="1520" on="0"/>
        <pt x="1110" y="1504" on="0"/>
        <pt x="1157" y="1491" on="1"/>
        <pt x="1161" y="1490" on="0"/>
        <pt x="1200" y="1480" on="1"/>
        <pt x="1176" y="1330" on="1"/>
        <pt x="1172" y="1331" on="0"/>
        <pt x="1150" y="1340" on="1"/>
        <pt x="1108" y="1357" on="0"/>
        <pt x="1031" y="1381" on="0"/>
        <pt x="972" y="1389" on="1"/>
        <pt x="888" y="122" on="1"/>
        <pt x="990" y="131" on="0"/>
        <pt x="1157" y="182" on="0"/>
        <pt x="1197" y="208" on="1"/>
        <pt x="1199" y="64" on="1"/>
        <pt x="1154" y="48" on="1"/>
        <pt x="1085" y="23" on="0"/>
        <pt x="965" y="-7" on="0"/>
        <pt x="879" y="-13" on="1"/>
        <pt x="857" y="-354" on="1"/>
        <pt x="766" y="-354" on="1"/>
        <pt x="788" y="-16" on="1"/>
        <pt x="691" y="-14" on="0"/>
        <pt x="611" y="6" on="1"/>
        <pt x="587" y="-354" on="1"/>
        <pt x="497" y="-354" on="1"/>
        <pt x="523" y="34" on="1"/>
        <pt x="393" y="87" on="0"/>
        <pt x="206" y="292" on="0"/>
        <pt x="107" y="580" on="0"/>
        <pt x="107" y="754" on="1"/>
      </contour>
      <contour>
        <pt x="882" y="1398" on="1"/>
        <pt x="838" y="1400" on="0"/>
        <pt x="812" y="1400" on="1"/>
        <pt x="753" y="1400" on="0"/>
        <pt x="703" y="1390" on="1"/>
        <pt x="620" y="149" on="1"/>
        <pt x="704" y="118" on="0"/>
        <pt x="797" y="118" on="1"/>
      </contour>
      <contour>
        <pt x="454" y="1304" on="0"/>
        <pt x="275" y="996" on="0"/>
        <pt x="275" y="766" on="1"/>
        <pt x="275" y="573" on="0"/>
        <pt x="409" y="272" on="0"/>
        <pt x="533" y="193" on="1"/>
        <pt x="611" y="1364" on="1"/>
      </contour>
    </TTGlyph>
    <TTGlyph name="comma" xMin="164" yMin="-499" xMax="465" yMax="258">
      <contour>
        <pt x="200" y="-389" on="0"/>
        <pt x="265" y="-298" on="0"/>
        <pt x="307" y="-170" on="0"/>
        <pt x="307" y="-96" on="1"/>
        <pt x="307" y="-55" on="0"/>
        <pt x="278" y="34" on="0"/>
        <pt x="229" y="101" on="0"/>
        <pt x="201" y="111" on="1"/>
        <pt x="201" y="159" on="1"/>
        <pt x="306" y="258" on="1"/>
        <pt x="388" y="219" on="0"/>
        <pt x="465" y="49" on="0"/>
        <pt x="465" y="-45" on="1"/>
        <pt x="465" y="-154" on="0"/>
        <pt x="398" y="-340" on="0"/>
        <pt x="286" y="-470" on="0"/>
        <pt x="221" y="-499" on="1"/>
        <pt x="165" y="-430" on="1"/>
        <pt x="164" y="-409" on="1"/>
      </contour>
    </TTGlyph>
    <TTGlyph name="copyright" xMin="204" yMin="95" xMax="1929" yMax="1831">
      <contour>
        <pt x="1302" y="1831" on="0"/>
        <pt x="1698" y="1599" on="0"/>
        <pt x="1929" y="1201" on="0"/>
        <pt x="1929" y="965" on="1"/>
        <pt x="1929" y="728" on="0"/>
        <pt x="1698" y="328" on="0"/>
        <pt x="1302" y="95" on="0"/>
        <pt x="1066" y="95" on="1"/>
        <pt x="830" y="95" on="0"/>
        <pt x="434" y="328" on="0"/>
        <pt x="204" y="728" on="0"/>
        <pt x="204" y="965" on="1"/>
        <pt x="204" y="1201" on="0"/>
        <pt x="434" y="1599" on="0"/>
        <pt x="830" y="1831" on="0"/>
        <pt x="1066" y="1831" on="1"/>
      </contour>
      <contour>
        <pt x="1276" y="194" on="0"/>
        <pt x="1621" y="401" on="0"/>
        <pt x="1819" y="754" on="0"/>
        <pt x="1819" y="965" on="1"/>
        <pt x="1819" y="1175" on="0"/>
        <pt x="1621" y="1527" on="0"/>
        <pt x="1276" y="1734" on="0"/>
        <pt x="1066" y="1734" on="1"/>
        <pt x="856" y="1734" on="0"/>
        <pt x="511" y="1527" on="0"/>
        <pt x="313" y="1175" on="0"/>
        <pt x="313" y="965" on="1"/>
        <pt x="313" y="754" on="0"/>
        <pt x="511" y="401" on="0"/>
        <pt x="856" y="194" on="0"/>
        <pt x="1066" y="194" on="1"/>
      </contour>
      <contour>
        <pt x="1201" y="1451" on="0"/>
        <pt x="1320" y="1412" on="0"/>
        <pt x="1357" y="1387" on="1"/>
        <pt x="1331" y="1263" on="1"/>
        <pt x="1235" y="1331" on="0"/>
        <pt x="1102" y="1331" on="1"/>
        <pt x="1001" y="1331" on="0"/>
        <pt x="853" y="1240" on="0"/>
        <pt x="775" y="1078" on="0"/>
        <pt x="775" y="972" on="1"/>
        <pt x="775" y="862" on="0"/>
        <pt x="853" y="694" on="0"/>
        <pt x="996" y="601" on="0"/>
        <pt x="1091" y="601" on="1"/>
        <pt x="1166" y="601" on="0"/>
        <pt x="1294" y="640" on="0"/>
        <pt x="1342" y="667" on="1"/>
        <pt x="1377" y="571" on="1"/>
        <pt x="1328" y="532" on="0"/>
        <pt x="1165" y="481" on="0"/>
        <pt x="1071" y="481" on="1"/>
        <pt x="938" y="481" on="0"/>
        <pt x="736" y="612" on="0"/>
        <pt x="627" y="832" on="0"/>
        <pt x="627" y="961" on="1"/>
        <pt x="627" y="1103" on="0"/>
        <pt x="741" y="1325" on="0"/>
        <pt x="961" y="1451" on="0"/>
        <pt x="1115" y="1451" on="1"/>
      </contour>
    </TTGlyph>
    <TTGlyph name="currency" xMin="216" yMin="180" xMax="1318" yMax="1321">
      <contour>
        <pt x="1206" y="676" on="0"/>
        <pt x="1159" y="539" on="0"/>
        <pt x="1115" y="482" on="1"/>
        <pt x="1314" y="282" on="1"/>
        <pt x="1218" y="186" on="1"/>
        <pt x="1016" y="389" on="1"/>
        <pt x="962" y="351" on="0"/>
        <pt x="833" y="310" on="0"/>
        <pt x="763" y="310" on="1"/>
        <pt x="696" y="310" on="0"/>
        <pt x="570" y="349" on="0"/>
        <pt x="516" y="385" on="1"/>
        <pt x="313" y="180" on="1"/>
        <pt x="216" y="277" on="1"/>
        <pt x="417" y="478" on="1"/>
        <pt x="371" y="535" on="0"/>
        <pt x="322" y="674" on="0"/>
        <pt x="322" y="751" on="1"/>
        <pt x="322" y="827" on="0"/>
        <pt x="371" y="967" on="0"/>
        <pt x="416" y="1023" on="1"/>
        <pt x="216" y="1223" on="1"/>
        <pt x="311" y="1321" on="1"/>
        <pt x="514" y="1116" on="1"/>
        <pt x="568" y="1153" on="0"/>
        <pt x="695" y="1192" on="0"/>
        <pt x="763" y="1192" on="1"/>
        <pt x="832" y="1192" on="0"/>
        <pt x="961" y="1152" on="0"/>
        <pt x="1016" y="1114" on="1"/>
        <pt x="1221" y="1318" on="1"/>
        <pt x="1318" y="1222" on="1"/>
        <pt x="1115" y="1019" on="1"/>
        <pt x="1159" y="962" on="0"/>
        <pt x="1206" y="826" on="0"/>
        <pt x="1206" y="751" on="1"/>
      </contour>
      <contour>
        <pt x="847" y="435" on="0"/>
        <pt x="988" y="521" on="0"/>
        <pt x="1070" y="666" on="0"/>
        <pt x="1070" y="751" on="1"/>
        <pt x="1070" y="837" on="0"/>
        <pt x="988" y="982" on="0"/>
        <pt x="848" y="1067" on="0"/>
        <pt x="764" y="1067" on="1"/>
        <pt x="681" y="1067" on="0"/>
        <pt x="540" y="982" on="0"/>
        <pt x="457" y="837" on="0"/>
        <pt x="457" y="751" on="1"/>
        <pt x="457" y="666" on="0"/>
        <pt x="540" y="521" on="0"/>
        <pt x="681" y="435" on="0"/>
        <pt x="764" y="435" on="1"/>
      </contour>
    </TTGlyph>
    <TTGlyph name="d" xMin="102" yMin="-16" xMax="1059" yMax="1664">
      <contour>
        <pt x="1059" y="1664" on="1"/>
        <pt x="1059" y="-12" on="1"/>
        <pt x="987" y="-12" on="1"/>
        <pt x="943" y="-12" on="0"/>
        <pt x="902" y="14" on="0"/>
        <pt x="902" y="57" on="1"/>
        <pt x="902" y="126" on="1"/>
        <pt x="841" y="67" on="0"/>
        <pt x="675" y="-16" on="0"/>
        <pt x="552" y="-16" on="1"/>
        <pt x="430" y="-16" on="0"/>
        <pt x="226" y="102" on="0"/>
        <pt x="102" y="349" on="0"/>
        <pt x="102" y="533" on="1"/>
        <pt x="102" y="714" on="0"/>
        <pt x="245" y="997" on="0"/>
        <pt x="505" y="1156" on="0"/>
        <pt x="674" y="1156" on="1"/>
        <pt x="796" y="1156" on="0"/>
        <pt x="895" y="1118" on="1"/>
        <pt x="892" y="1186" on="1"/>
        <pt x="892" y="1664" on="1"/>
      </contour>
      <contour>
        <pt x="270" y="338" on="0"/>
        <pt x="441" y="115" on="0"/>
        <pt x="597" y="115" on="1"/>
        <pt x="686" y="115" on="0"/>
        <pt x="838" y="184" on="0"/>
        <pt x="892" y="229" on="1"/>
        <pt x="892" y="979" on="1"/>
        <pt x="862" y="1004" on="0"/>
        <pt x="745" y="1034" on="0"/>
        <pt x="658" y="1034" on="1"/>
        <pt x="548" y="1034" on="0"/>
        <pt x="375" y="921" on="0"/>
        <pt x="274" y="704" on="0"/>
        <pt x="273" y="556" on="1"/>
      </contour>
    </TTGlyph>
    <TTGlyph name="dagger" xMin="126" yMin="200" xMax="900" yMax="1658">
      <contour>
        <pt x="126" y="1147" on="1"/>
        <pt x="127" y="1272" on="1"/>
        <pt x="438" y="1269" on="1"/>
        <pt x="435" y="1658" on="1"/>
        <pt x="591" y="1658" on="1"/>
        <pt x="588" y="1269" on="1"/>
        <pt x="900" y="1272" on="1"/>
        <pt x="900" y="1147" on="1"/>
        <pt x="588" y="1149" on="1"/>
        <pt x="579" y="200" on="1"/>
        <pt x="446" y="200" on="1"/>
        <pt x="438" y="1149" on="1"/>
      </contour>
    </TTGlyph>
    <TTGlyph name="daggerdbl" xMin="126" yMin="-356" xMax="900" yMax="1658">
      <contour>
        <pt x="126" y="497" on="1"/>
        <pt x="126" y="622" on="1"/>
        <pt x="437" y="620" on="1"/>
        <pt x="437" y="1149" on="1"/>
        <pt x="126" y="1147" on="1"/>
        <pt x="127" y="1272" on="1"/>
        <pt x="437" y="1269" on="1"/>
        <pt x="434" y="1658" on="1"/>
        <pt x="591" y="1658" on="1"/>
        <pt x="587" y="1269" on="1"/>
        <pt x="900" y="1272" on="1"/>
        <pt x="900" y="1147" on="1"/>
        <pt x="587" y="1149" on="1"/>
        <pt x="587" y="620" on="1"/>
        <pt x="899" y="622" on="1"/>
        <pt x="899" y="497" on="1"/>
        <pt x="587" y="500" on="1"/>
        <pt x="575" y="-356" on="1"/>
        <pt x="449" y="-356" on="1"/>
        <pt x="437" y="500" on="1"/>
      </contour>
    </TTGlyph>
    <TTGlyph name="dcaron" xMin="102" yMin="-16" xMax="1503" yMax="1685">
      <component glyphName="d" x="0" y="0" flags="0x0"/>
      <component glyphName="caronvertical" x="1238" y="0" flags="0x0"/>
    </TTGlyph>
    <TTGlyph name="dcroat" xMin="102" yMin="-16" xMax="1214" yMax="1664">
      <contour>
        <pt x="1214" y="1325" on="1"/>
        <pt x="1059" y="1325" on="1"/>
        <pt x="1059" y="-12" on="1"/>
        <pt x="987" y="-12" on="1"/>
        <pt x="943" y="-12" on="0"/>
        <pt x="902" y="14" on="0"/>
        <pt x="902" y="57" on="1"/>
        <pt x="902" y="126" on="1"/>
        <pt x="841" y="67" on="0"/>
        <pt x="675" y="-16" on="0"/>
        <pt x="552" y="-16" on="1"/>
        <pt x="430" y="-16" on="0"/>
        <pt x="226" y="102" on="0"/>
        <pt x="102" y="349" on="0"/>
        <pt x="102" y="533" on="1"/>
        <pt x="102" y="714" on="0"/>
        <pt x="245" y="997" on="0"/>
        <pt x="505" y="1156" on="0"/>
        <pt x="674" y="1156" on="1"/>
        <pt x="796" y="1156" on="0"/>
        <pt x="895" y="1118" on="1"/>
        <pt x="892" y="1186" on="1"/>
        <pt x="892" y="1325" on="1"/>
        <pt x="598" y="1325" on="1"/>
        <pt x="598" y="1433" on="1"/>
        <pt x="892" y="1433" on="1"/>
        <pt x="892" y="1664" on="1"/>
        <pt x="1059" y="1664" on="1"/>
        <pt x="1059" y="1433" on="1"/>
        <pt x="1214" y="1433" on="1"/>
      </contour>
      <contour>
        <pt x="270" y="338" on="0"/>
        <pt x="441" y="115" on="0"/>
        <pt x="597" y="115" on="1"/>
        <pt x="686" y="115" on="0"/>
        <pt x="838" y="184" on="0"/>
        <pt x="892" y="229" on="1"/>
        <pt x="892" y="979" on="1"/>
        <pt x="862" y="1004" on="0"/>
        <pt x="745" y="1034" on="0"/>
        <pt x="658" y="1034" on="1"/>
        <pt x="548" y="1034" on="0"/>
        <pt x="375" y="921" on="0"/>
        <pt x="274" y="704" on="0"/>
        <pt x="273" y="556" on="1"/>
      </contour>
    </TTGlyph>
    <TTGlyph name="degree" xMin="121" yMin="947" xMax="787" yMax="1609">
      <contour>
        <pt x="546" y="1609" on="0"/>
        <pt x="698" y="1522" on="0"/>
        <pt x="787" y="1371" on="0"/>
        <pt x="787" y="1278" on="1"/>
        <pt x="787" y="1184" on="0"/>
        <pt x="700" y="1032" on="0"/>
        <pt x="547" y="947" on="0"/>
        <pt x="454" y="947" on="1"/>
        <pt x="363" y="947" on="0"/>
        <pt x="210" y="1034" on="0"/>
        <pt x="121" y="1186" on="0"/>
        <pt x="121" y="1278" on="1"/>
        <pt x="121" y="1372" on="0"/>
        <pt x="209" y="1523" on="0"/>
        <pt x="361" y="1609" on="0"/>
        <pt x="454" y="1609" on="1"/>
      </contour>
      <contour>
        <pt x="516" y="1050" on="0"/>
        <pt x="618" y="1109" on="0"/>
        <pt x="677" y="1213" on="0"/>
        <pt x="677" y="1278" on="1"/>
        <pt x="677" y="1341" on="0"/>
        <pt x="617" y="1445" on="0"/>
        <pt x="515" y="1505" on="0"/>
        <pt x="454" y="1505" on="1"/>
        <pt x="392" y="1505" on="0"/>
        <pt x="291" y="1446" on="0"/>
        <pt x="232" y="1342" on="0"/>
        <pt x="232" y="1278" on="1"/>
        <pt x="232" y="1215" on="0"/>
        <pt x="291" y="1110" on="0"/>
        <pt x="393" y="1050" on="0"/>
        <pt x="454" y="1050" on="1"/>
      </contour>
    </TTGlyph>
    <TTGlyph name="dieresis" xMin="57" yMin="1408" xMax="725" yMax="1633">
      <contour>
        <pt x="57" y="1548" on="0"/>
        <pt x="91" y="1602" on="0"/>
        <pt x="145" y="1633" on="0"/>
        <pt x="175" y="1633" on="1"/>
        <pt x="225" y="1633" on="0"/>
        <pt x="274" y="1577" on="0"/>
        <pt x="274" y="1528" on="1"/>
        <pt x="274" y="1474" on="0"/>
        <pt x="205" y="1408" on="0"/>
        <pt x="157" y="1408" on="1"/>
        <pt x="114" y="1408" on="0"/>
        <pt x="57" y="1465" on="0"/>
        <pt x="57" y="1514" on="1"/>
      </contour>
      <contour>
        <pt x="509" y="1548" on="0"/>
        <pt x="542" y="1602" on="0"/>
        <pt x="596" y="1633" on="0"/>
        <pt x="626" y="1633" on="1"/>
        <pt x="676" y="1633" on="0"/>
        <pt x="725" y="1577" on="0"/>
        <pt x="725" y="1528" on="1"/>
        <pt x="725" y="1474" on="0"/>
        <pt x="656" y="1408" on="0"/>
        <pt x="608" y="1408" on="1"/>
        <pt x="565" y="1408" on="0"/>
        <pt x="509" y="1465" on="0"/>
        <pt x="509" y="1514" on="1"/>
      </contour>
    </TTGlyph>
    <TTGlyph name="dieresis.cap" xMin="50" yMin="1690" xMax="755" yMax="1922">
      <contour>
        <pt x="50" y="1834" on="0"/>
        <pt x="84" y="1890" on="0"/>
        <pt x="140" y="1922" on="0"/>
        <pt x="171" y="1922" on="1"/>
        <pt x="223" y="1922" on="0"/>
        <pt x="275" y="1864" on="0"/>
        <pt x="275" y="1813" on="1"/>
        <pt x="275" y="1757" on="0"/>
        <pt x="205" y="1690" on="0"/>
        <pt x="154" y="1690" on="1"/>
        <pt x="109" y="1690" on="0"/>
        <pt x="50" y="1747" on="0"/>
        <pt x="50" y="1798" on="1"/>
      </contour>
      <contour>
        <pt x="529" y="1834" on="0"/>
        <pt x="563" y="1890" on="0"/>
        <pt x="619" y="1922" on="0"/>
        <pt x="650" y="1922" on="1"/>
        <pt x="702" y="1922" on="0"/>
        <pt x="755" y="1864" on="0"/>
        <pt x="755" y="1813" on="1"/>
        <pt x="755" y="1757" on="0"/>
        <pt x="684" y="1690" on="0"/>
        <pt x="634" y="1690" on="1"/>
        <pt x="589" y="1690" on="0"/>
        <pt x="529" y="1747" on="0"/>
        <pt x="529" y="1798" on="1"/>
      </contour>
    </TTGlyph>
    <TTGlyph name="divide" xMin="232" yMin="261" xMax="1161" yMax="1299">
      <contour>
        <pt x="587" y="1207" on="0"/>
        <pt x="622" y="1266" on="0"/>
        <pt x="679" y="1299" on="0"/>
        <pt x="711" y="1299" on="1"/>
        <pt x="764" y="1299" on="0"/>
        <pt x="819" y="1237" on="0"/>
        <pt x="819" y="1186" on="1"/>
        <pt x="819" y="1148" on="0"/>
        <pt x="784" y="1090" on="0"/>
        <pt x="727" y="1058" on="0"/>
        <pt x="694" y="1058" on="1"/>
        <pt x="648" y="1058" on="0"/>
        <pt x="587" y="1118" on="0"/>
        <pt x="587" y="1170" on="1"/>
      </contour>
      <contour>
        <pt x="1161" y="839" on="1"/>
        <pt x="1161" y="709" on="1"/>
        <pt x="232" y="709" on="1"/>
        <pt x="232" y="839" on="1"/>
      </contour>
      <contour>
        <pt x="586" y="409" on="0"/>
        <pt x="621" y="468" on="0"/>
        <pt x="678" y="501" on="0"/>
        <pt x="710" y="501" on="1"/>
        <pt x="763" y="501" on="0"/>
        <pt x="818" y="440" on="0"/>
        <pt x="818" y="389" on="1"/>
        <pt x="818" y="332" on="0"/>
        <pt x="745" y="261" on="0"/>
        <pt x="693" y="261" on="1"/>
        <pt x="648" y="261" on="0"/>
        <pt x="586" y="321" on="0"/>
        <pt x="586" y="373" on="1"/>
      </contour>
    </TTGlyph>
    <TTGlyph name="dollar" xMin="238" yMin="-235" xMax="1170" yMax="1752">
      <contour>
        <pt x="1170" y="204" on="0"/>
        <pt x="936" y="1" on="0"/>
        <pt x="736" y="-14" on="1"/>
        <pt x="733" y="-235" on="1"/>
        <pt x="609" y="-235" on="1"/>
        <pt x="611" y="-14" on="1"/>
        <pt x="490" y="-8" on="0"/>
        <pt x="281" y="46" on="0"/>
        <pt x="238" y="74" on="1"/>
        <pt x="279" y="213" on="1"/>
        <pt x="343" y="174" on="0"/>
        <pt x="555" y="119" on="0"/>
        <pt x="659" y="119" on="1"/>
        <pt x="822" y="119" on="0"/>
        <pt x="1004" y="243" on="0"/>
        <pt x="1004" y="366" on="1"/>
        <pt x="1004" y="448" on="0"/>
        <pt x="916" y="563" on="0"/>
        <pt x="775" y="645" on="0"/>
        <pt x="640" y="706" on="1"/>
        <pt x="242" y="887" on="0"/>
        <pt x="242" y="1162" on="1"/>
        <pt x="242" y="1280" on="0"/>
        <pt x="356" y="1439" on="0"/>
        <pt x="542" y="1523" on="0"/>
        <pt x="653" y="1534" on="1"/>
        <pt x="657" y="1752" on="1"/>
        <pt x="781" y="1752" on="1"/>
        <pt x="778" y="1537" on="1"/>
        <pt x="890" y="1533" on="0"/>
        <pt x="1047" y="1486" on="0"/>
        <pt x="1093" y="1456" on="1"/>
        <pt x="1058" y="1323" on="1"/>
        <pt x="997" y="1362" on="0"/>
        <pt x="843" y="1405" on="0"/>
        <pt x="732" y="1405" on="1"/>
        <pt x="647" y="1405" on="0"/>
        <pt x="497" y="1356" on="0"/>
        <pt x="404" y="1256" on="0"/>
        <pt x="404" y="1184" on="1"/>
        <pt x="404" y="1102" on="0"/>
        <pt x="479" y="987" on="0"/>
        <pt x="616" y="898" on="0"/>
        <pt x="741" y="838" on="1"/>
        <pt x="874" y="774" on="0"/>
        <pt x="1049" y="663" on="0"/>
        <pt x="1170" y="497" on="0"/>
        <pt x="1170" y="385" on="1"/>
      </contour>
    </TTGlyph>
    <TTGlyph name="dong" xMin="113" yMin="0" xMax="1288" yMax="1694">
      <contour>
        <pt x="512" y="1521" on="1"/>
        <pt x="857" y="1521" on="1"/>
        <pt x="857" y="1694" on="1"/>
        <pt x="1022" y="1694" on="1"/>
        <pt x="1022" y="1521" on="1"/>
        <pt x="1288" y="1521" on="1"/>
        <pt x="1288" y="1393" on="1"/>
        <pt x="1022" y="1393" on="1"/>
        <pt x="1022" y="291" on="1"/>
        <pt x="905" y="291" on="1"/>
        <pt x="892" y="291" on="0"/>
        <pt x="884" y="318" on="0"/>
        <pt x="884" y="331" on="1"/>
        <pt x="884" y="401" on="1"/>
        <pt x="836" y="356" on="0"/>
        <pt x="691" y="291" on="0"/>
        <pt x="573" y="291" on="1"/>
        <pt x="459" y="291" on="0"/>
        <pt x="270" y="390" on="0"/>
        <pt x="157" y="590" on="0"/>
        <pt x="157" y="736" on="1"/>
        <pt x="157" y="897" on="0"/>
        <pt x="277" y="1127" on="0"/>
        <pt x="505" y="1248" on="0"/>
        <pt x="664" y="1248" on="1"/>
        <pt x="769" y="1248" on="0"/>
        <pt x="860" y="1229" on="1"/>
        <pt x="857" y="1356" on="1"/>
        <pt x="857" y="1393" on="1"/>
        <pt x="512" y="1393" on="1"/>
      </contour>
      <contour>
        <pt x="857" y="1069" on="1"/>
        <pt x="841" y="1085" on="0"/>
        <pt x="751" y="1110" on="0"/>
        <pt x="661" y="1110" on="1"/>
        <pt x="484" y="1110" on="0"/>
        <pt x="335" y="913" on="0"/>
        <pt x="335" y="740" on="1"/>
        <pt x="335" y="633" on="0"/>
        <pt x="408" y="494" on="0"/>
        <pt x="521" y="429" on="0"/>
        <pt x="583" y="429" on="1"/>
        <pt x="703" y="429" on="0"/>
        <pt x="814" y="479" on="0"/>
        <pt x="852" y="520" on="0"/>
        <pt x="857" y="525" on="1"/>
      </contour>
      <contour>
        <pt x="113" y="151" on="1"/>
        <pt x="1218" y="151" on="1"/>
        <pt x="1218" y="0" on="1"/>
        <pt x="113" y="0" on="1"/>
      </contour>
    </TTGlyph>
    <TTGlyph name="dotaccent" xMin="50" yMin="1388" xMax="280" yMax="1630">
      <contour>
        <pt x="50" y="1538" on="0"/>
        <pt x="85" y="1596" on="0"/>
        <pt x="142" y="1630" on="0"/>
        <pt x="173" y="1630" on="1"/>
        <pt x="225" y="1630" on="0"/>
        <pt x="280" y="1568" on="0"/>
        <pt x="280" y="1517" on="1"/>
        <pt x="280" y="1479" on="0"/>
        <pt x="246" y="1420" on="0"/>
        <pt x="189" y="1388" on="0"/>
        <pt x="157" y="1388" on="1"/>
        <pt x="112" y="1388" on="0"/>
        <pt x="50" y="1450" on="0"/>
        <pt x="50" y="1502" on="1"/>
      </contour>
    </TTGlyph>
    <TTGlyph name="dotaccent.cap" xMin="51" yMin="1691" xMax="278" yMax="1926">
      <contour>
        <pt x="51" y="1835" on="0"/>
        <pt x="86" y="1893" on="0"/>
        <pt x="143" y="1926" on="0"/>
        <pt x="173" y="1926" on="1"/>
        <pt x="225" y="1926" on="0"/>
        <pt x="278" y="1866" on="0"/>
        <pt x="278" y="1817" on="1"/>
        <pt x="278" y="1761" on="0"/>
        <pt x="207" y="1691" on="0"/>
        <pt x="157" y="1691" on="1"/>
        <pt x="112" y="1691" on="0"/>
        <pt x="51" y="1750" on="0"/>
        <pt x="51" y="1801" on="1"/>
      </contour>
    </TTGlyph>
    <TTGlyph name="dotlessi" xMin="211" yMin="0" xMax="377" yMax="1139">
      <contour>
        <pt x="377" y="1139" on="1"/>
        <pt x="377" y="0" on="1"/>
        <pt x="211" y="0" on="1"/>
        <pt x="211" y="1139" on="1"/>
      </contour>
    </TTGlyph>
    <TTGlyph name="e" xMin="104" yMin="-16" xMax="1024" yMax="1156">
      <contour>
        <pt x="268" y="553" on="1"/>
        <pt x="268" y="513" on="1"/>
        <pt x="275" y="304" on="0"/>
        <pt x="475" y="110" on="0"/>
        <pt x="644" y="110" on="1"/>
        <pt x="721" y="110" on="0"/>
        <pt x="909" y="156" on="0"/>
        <pt x="954" y="186" on="1"/>
        <pt x="986" y="89" on="1"/>
        <pt x="931" y="43" on="0"/>
        <pt x="709" y="-16" on="0"/>
        <pt x="601" y="-16" on="1"/>
        <pt x="442" y="-16" on="0"/>
        <pt x="219" y="122" on="0"/>
        <pt x="104" y="383" on="0"/>
        <pt x="104" y="565" on="1"/>
        <pt x="104" y="739" on="0"/>
        <pt x="226" y="1006" on="0"/>
        <pt x="459" y="1156" on="0"/>
        <pt x="621" y="1156" on="1"/>
        <pt x="739" y="1156" on="0"/>
        <pt x="919" y="1050" on="0"/>
        <pt x="1021" y="856" on="0"/>
        <pt x="1024" y="728" on="1"/>
        <pt x="1024" y="660" on="0"/>
        <pt x="1021" y="585" on="0"/>
        <pt x="1015" y="553" on="1"/>
      </contour>
      <contour>
        <pt x="471" y="1037" on="0"/>
        <pt x="296" y="854" on="0"/>
        <pt x="274" y="665" on="1"/>
        <pt x="867" y="665" on="1"/>
        <pt x="868" y="680" on="0"/>
        <pt x="868" y="711" on="1"/>
        <pt x="868" y="861" on="0"/>
        <pt x="742" y="1037" on="0"/>
        <pt x="605" y="1037" on="1"/>
      </contour>
    </TTGlyph>
    <TTGlyph name="eacute" xMin="104" yMin="-16" xMax="1024" yMax="1781">
      <component glyphName="acute" x="432" y="0" flags="0x0"/>
      <component glyphName="e" x="0" y="0" flags="0x0"/>
    </TTGlyph>
    <TTGlyph name="ebreve" xMin="104" yMin="-16" xMax="1024" yMax="1694">
      <component glyphName="e" x="0" y="0" flags="0x0"/>
      <component glyphName="breve" x="216" y="0" flags="0x0"/>
    </TTGlyph>
    <TTGlyph name="ecaron" xMin="104" yMin="-16" xMax="1024" yMax="1712">
      <component glyphName="caron" x="186" y="21" flags="0x4"/>
      <component glyphName="e" x="0" y="0" flags="0x0"/>
    </TTGlyph>
    <TTGlyph name="ecircumflex" xMin="104" yMin="-16" xMax="1024" yMax="1692">
      <component glyphName="circumflex" x="185" y="0" flags="0x0"/>
      <component glyphName="e" x="0" y="0" flags="0x0"/>
    </TTGlyph>
    <TTGlyph name="edieresis" xMin="104" yMin="-16" xMax="1024" yMax="1633">
      <component glyphName="dieresis" x="213" y="0" flags="0x0"/>
      <component glyphName="e" x="0" y="0" flags="0x0"/>
    </TTGlyph>
    <TTGlyph name="edotaccent" xMin="104" yMin="-16" xMax="1024" yMax="1630">
      <component glyphName="e" x="0" y="0" flags="0x0"/>
      <component glyphName="dotaccent" x="438" y="0" flags="0x0"/>
    </TTGlyph>
    <TTGlyph name="egrave" xMin="104" yMin="-16" xMax="1024" yMax="1781">
      <component glyphName="e" x="0" y="0" flags="0x0"/>
      <component glyphName="grave" x="202" y="0" flags="0x0"/>
    </TTGlyph>
    <TTGlyph name="eight" xMin="157" yMin="-16" xMax="1163" yMax="1565">
      <contour>
        <pt x="1163" y="256" on="0"/>
        <pt x="1027" y="74" on="0"/>
        <pt x="801" y="-16" on="0"/>
        <pt x="667" y="-16" on="1"/>
        <pt x="535" y="-16" on="0"/>
        <pt x="303" y="68" on="0"/>
        <pt x="157" y="248" on="0"/>
        <pt x="157" y="385" on="1"/>
        <pt x="157" y="510" on="0"/>
        <pt x="324" y="732" on="0"/>
        <pt x="488" y="804" on="1"/>
        <pt x="360" y="880" on="0"/>
        <pt x="217" y="1063" on="0"/>
        <pt x="217" y="1197" on="1"/>
        <pt x="217" y="1316" on="0"/>
        <pt x="340" y="1482" on="0"/>
        <pt x="546" y="1565" on="0"/>
        <pt x="671" y="1565" on="1"/>
        <pt x="796" y="1565" on="0"/>
        <pt x="992" y="1479" on="0"/>
        <pt x="1102" y="1321" on="0"/>
        <pt x="1102" y="1217" on="1"/>
        <pt x="1102" y="1137" on="0"/>
        <pt x="1036" y="977" on="0"/>
        <pt x="902" y="837" on="0"/>
        <pt x="804" y="790" on="1"/>
        <pt x="916" y="730" on="0"/>
        <pt x="1067" y="624" on="0"/>
        <pt x="1163" y="480" on="0"/>
        <pt x="1163" y="388" on="1"/>
      </contour>
      <contour>
        <pt x="371" y="1128" on="0"/>
        <pt x="455" y="1002" on="0"/>
        <pt x="588" y="905" on="0"/>
        <pt x="688" y="851" on="1"/>
        <pt x="763" y="877" on="0"/>
        <pt x="882" y="983" on="0"/>
        <pt x="949" y="1125" on="0"/>
        <pt x="949" y="1203" on="1"/>
        <pt x="949" y="1275" on="0"/>
        <pt x="881" y="1386" on="0"/>
        <pt x="753" y="1448" on="0"/>
        <pt x="666" y="1448" on="1"/>
        <pt x="582" y="1448" on="0"/>
        <pt x="448" y="1391" on="0"/>
        <pt x="371" y="1282" on="0"/>
        <pt x="371" y="1207" on="1"/>
      </contour>
      <contour>
        <pt x="762" y="102" on="0"/>
        <pt x="911" y="167" on="0"/>
        <pt x="998" y="289" on="0"/>
        <pt x="998" y="371" on="1"/>
        <pt x="998" y="452" on="0"/>
        <pt x="904" y="574" on="0"/>
        <pt x="766" y="660" on="0"/>
        <pt x="645" y="721" on="1"/>
        <pt x="603" y="742" on="1"/>
        <pt x="478" y="695" on="0"/>
        <pt x="318" y="511" on="0"/>
        <pt x="318" y="398" on="1"/>
        <pt x="318" y="258" on="0"/>
        <pt x="502" y="102" on="0"/>
        <pt x="674" y="102" on="1"/>
      </contour>
    </TTGlyph>
    <TTGlyph name="ellipsis" xMin="214" yMin="-16" xMax="1769" yMax="244">
      <contour>
        <pt x="214" y="144" on="0"/>
        <pt x="248" y="207" on="0"/>
        <pt x="305" y="244" on="0"/>
        <pt x="336" y="244" on="1"/>
        <pt x="389" y="244" on="0"/>
        <pt x="447" y="171" on="0"/>
        <pt x="447" y="119" on="1"/>
        <pt x="447" y="81" on="0"/>
        <pt x="413" y="20" on="0"/>
        <pt x="356" y="-16" on="0"/>
        <pt x="324" y="-16" on="1"/>
        <pt x="295" y="-16" on="0"/>
        <pt x="244" y="16" on="0"/>
        <pt x="214" y="73" on="0"/>
        <pt x="214" y="108" on="1"/>
      </contour>
      <contour>
        <pt x="875" y="146" on="0"/>
        <pt x="909" y="207" on="0"/>
        <pt x="965" y="244" on="0"/>
        <pt x="996" y="244" on="1"/>
        <pt x="1049" y="244" on="0"/>
        <pt x="1107" y="171" on="0"/>
        <pt x="1107" y="117" on="1"/>
        <pt x="1107" y="80" on="0"/>
        <pt x="1073" y="19" on="0"/>
        <pt x="1017" y="-16" on="0"/>
        <pt x="985" y="-16" on="1"/>
        <pt x="940" y="-16" on="0"/>
        <pt x="875" y="56" on="0"/>
        <pt x="875" y="110" on="1"/>
      </contour>
      <contour>
        <pt x="1536" y="146" on="0"/>
        <pt x="1570" y="207" on="0"/>
        <pt x="1627" y="244" on="0"/>
        <pt x="1658" y="244" on="1"/>
        <pt x="1710" y="244" on="0"/>
        <pt x="1769" y="173" on="0"/>
        <pt x="1769" y="121" on="1"/>
        <pt x="1769" y="83" on="0"/>
        <pt x="1735" y="20" on="0"/>
        <pt x="1679" y="-16" on="0"/>
        <pt x="1647" y="-16" on="1"/>
        <pt x="1601" y="-16" on="0"/>
        <pt x="1536" y="56" on="0"/>
        <pt x="1536" y="110" on="1"/>
      </contour>
    </TTGlyph>
    <TTGlyph name="emacron" xMin="104" yMin="-16" xMax="1024" yMax="1576">
      <component glyphName="e" x="0" y="0" flags="0x0"/>
      <component glyphName="macron" x="283" y="0" flags="0x0"/>
    </TTGlyph>
    <TTGlyph name="emdash" xMin="240" yMin="705" xMax="2103" yMax="840">
      <contour>
        <pt x="2103" y="840" on="1"/>
        <pt x="2103" y="705" on="1"/>
        <pt x="240" y="705" on="1"/>
        <pt x="240" y="840" on="1"/>
      </contour>
    </TTGlyph>
    <TTGlyph name="endash" xMin="240" yMin="705" xMax="1452" yMax="840">
      <contour>
        <pt x="1452" y="840" on="1"/>
        <pt x="1452" y="705" on="1"/>
        <pt x="240" y="705" on="1"/>
        <pt x="240" y="840" on="1"/>
      </contour>
    </TTGlyph>
    <TTGlyph name="eng" xMin="193" yMin="-507" xMax="1108" yMax="1157">
      <contour>
        <pt x="342" y="1139" on="1"/>
        <pt x="342" y="993" on="1"/>
        <pt x="424" y="1053" on="0"/>
        <pt x="670" y="1157" on="0"/>
        <pt x="788" y="1157" on="1"/>
        <pt x="906" y="1157" on="0"/>
        <pt x="1045" y="1069" on="0"/>
        <pt x="1108" y="874" on="0"/>
        <pt x="1108" y="708" on="1"/>
        <pt x="1108" y="-14" on="1"/>
        <pt x="1108" y="-250" on="0"/>
        <pt x="949" y="-507" on="0"/>
        <pt x="791" y="-507" on="1"/>
        <pt x="760" y="-507" on="0"/>
        <pt x="661" y="-498" on="0"/>
        <pt x="650" y="-493" on="1"/>
        <pt x="650" y="-377" on="1"/>
        <pt x="663" y="-382" on="0"/>
        <pt x="733" y="-389" on="0"/>
        <pt x="757" y="-389" on="1"/>
        <pt x="825" y="-388" on="0"/>
        <pt x="906" y="-319" on="0"/>
        <pt x="942" y="-166" on="0"/>
        <pt x="942" y="-36" on="1"/>
        <pt x="942" y="704" on="1"/>
        <pt x="942" y="828" on="0"/>
        <pt x="897" y="965" on="0"/>
        <pt x="795" y="1020" on="0"/>
        <pt x="706" y="1017" on="1"/>
        <pt x="628" y="1015" on="0"/>
        <pt x="430" y="933" on="0"/>
        <pt x="361" y="879" on="1"/>
        <pt x="361" y="0" on="1"/>
        <pt x="193" y="0" on="1"/>
        <pt x="193" y="1139" on="1"/>
      </contour>
    </TTGlyph>
    <TTGlyph name="eogonek" xMin="104" yMin="-512" xMax="1024" yMax="1156">
      <contour>
        <pt x="268" y="553" on="1"/>
        <pt x="268" y="513" on="1"/>
        <pt x="275" y="304" on="0"/>
        <pt x="475" y="110" on="0"/>
        <pt x="644" y="110" on="1"/>
        <pt x="721" y="110" on="0"/>
        <pt x="909" y="156" on="0"/>
        <pt x="954" y="186" on="1"/>
        <pt x="986" y="89" on="1"/>
        <pt x="979" y="83" on="0"/>
        <pt x="961" y="71" on="1"/>
        <pt x="963" y="70" on="1"/>
        <pt x="903" y="32" on="0"/>
        <pt x="777" y="-86" on="0"/>
        <pt x="693" y="-220" on="0"/>
        <pt x="693" y="-278" on="1"/>
        <pt x="693" y="-344" on="0"/>
        <pt x="775" y="-399" on="0"/>
        <pt x="845" y="-399" on="1"/>
        <pt x="927" y="-397" on="0"/>
        <pt x="1007" y="-358" on="1"/>
        <pt x="1007" y="-450" on="1"/>
        <pt x="968" y="-480" on="0"/>
        <pt x="839" y="-512" on="0"/>
        <pt x="772" y="-512" on="1"/>
        <pt x="665" y="-512" on="0"/>
        <pt x="528" y="-408" on="0"/>
        <pt x="528" y="-309" on="1"/>
        <pt x="528" y="-258" on="0"/>
        <pt x="589" y="-143" on="0"/>
        <pt x="687" y="-39" on="0"/>
        <pt x="742" y="-3" on="1"/>
        <pt x="674" y="-16" on="0"/>
        <pt x="601" y="-16" on="1"/>
        <pt x="442" y="-16" on="0"/>
        <pt x="219" y="122" on="0"/>
        <pt x="104" y="383" on="0"/>
        <pt x="104" y="565" on="1"/>
        <pt x="104" y="739" on="0"/>
        <pt x="226" y="1006" on="0"/>
        <pt x="459" y="1156" on="0"/>
        <pt x="621" y="1156" on="1"/>
        <pt x="739" y="1156" on="0"/>
        <pt x="919" y="1050" on="0"/>
        <pt x="1021" y="856" on="0"/>
        <pt x="1024" y="728" on="1"/>
        <pt x="1024" y="660" on="0"/>
        <pt x="1021" y="585" on="0"/>
        <pt x="1015" y="553" on="1"/>
      </contour>
      <contour>
        <pt x="471" y="1037" on="0"/>
        <pt x="296" y="854" on="0"/>
        <pt x="274" y="665" on="1"/>
        <pt x="867" y="665" on="1"/>
        <pt x="868" y="680" on="0"/>
        <pt x="868" y="711" on="1"/>
        <pt x="868" y="861" on="0"/>
        <pt x="742" y="1037" on="0"/>
        <pt x="605" y="1037" on="1"/>
      </contour>
    </TTGlyph>
    <TTGlyph name="equal" xMin="241" yMin="428" xMax="1156" yMax="1114">
      <contour>
        <pt x="1156" y="1114" on="1"/>
        <pt x="1156" y="986" on="1"/>
        <pt x="241" y="986" on="1"/>
        <pt x="241" y="1114" on="1"/>
      </contour>
      <contour>
        <pt x="1156" y="555" on="1"/>
        <pt x="1156" y="428" on="1"/>
        <pt x="241" y="428" on="1"/>
        <pt x="241" y="555" on="1"/>
      </contour>
    </TTGlyph>
    <TTGlyph name="estimated" xMin="109" yMin="-16" xMax="1274" yMax="1359">
      <contour>
        <pt x="350" y="627" on="1"/>
        <pt x="350" y="259" on="1"/>
        <pt x="413" y="169" on="0"/>
        <pt x="617" y="82" on="0"/>
        <pt x="749" y="82" on="1"/>
        <pt x="851" y="82" on="0"/>
        <pt x="1065" y="145" on="0"/>
        <pt x="1126" y="182" on="1"/>
        <pt x="1163" y="88" on="1"/>
        <pt x="1101" y="43" on="0"/>
        <pt x="847" y="-16" on="0"/>
        <pt x="732" y="-16" on="1"/>
        <pt x="536" y="-16" on="0"/>
        <pt x="256" y="148" on="0"/>
        <pt x="109" y="457" on="0"/>
        <pt x="109" y="671" on="1"/>
        <pt x="109" y="870" on="0"/>
        <pt x="251" y="1177" on="0"/>
        <pt x="533" y="1353" on="0"/>
        <pt x="736" y="1356" on="1"/>
        <pt x="881" y="1359" on="0"/>
        <pt x="1123" y="1232" on="0"/>
        <pt x="1269" y="992" on="0"/>
        <pt x="1274" y="832" on="1"/>
        <pt x="1274" y="751" on="0"/>
        <pt x="1270" y="661" on="0"/>
        <pt x="1263" y="627" on="1"/>
      </contour>
      <contour>
        <pt x="607" y="1257" on="0"/>
        <pt x="412" y="1164" on="0"/>
        <pt x="350" y="1072" on="1"/>
        <pt x="350" y="737" on="1"/>
        <pt x="1051" y="737" on="1"/>
        <pt x="1051" y="1121" on="1"/>
        <pt x="947" y="1257" on="0"/>
        <pt x="726" y="1257" on="1"/>
      </contour>
    </TTGlyph>
    <TTGlyph name="eth" xMin="109" yMin="-27" xMax="1116" yMax="1793">
      <contour>
        <pt x="880" y="1405" on="0"/>
        <pt x="1116" y="913" on="0"/>
        <pt x="1116" y="612" on="1"/>
        <pt x="1116" y="400" on="0"/>
        <pt x="988" y="114" on="0"/>
        <pt x="759" y="-27" on="0"/>
        <pt x="606" y="-27" on="1"/>
        <pt x="457" y="-27" on="0"/>
        <pt x="232" y="116" on="0"/>
        <pt x="109" y="380" on="0"/>
        <pt x="109" y="557" on="1"/>
        <pt x="109" y="742" on="0"/>
        <pt x="238" y="1012" on="0"/>
        <pt x="469" y="1155" on="0"/>
        <pt x="618" y="1155" on="1"/>
        <pt x="696" y="1155" on="0"/>
        <pt x="832" y="1096" on="0"/>
        <pt x="884" y="1042" on="1"/>
        <pt x="841" y="1173" on="0"/>
        <pt x="679" y="1400" on="0"/>
        <pt x="572" y="1483" on="1"/>
        <pt x="430" y="1323" on="1"/>
        <pt x="341" y="1393" on="1"/>
        <pt x="482" y="1546" on="1"/>
        <pt x="424" y="1583" on="0"/>
        <pt x="299" y="1645" on="0"/>
        <pt x="245" y="1662" on="1"/>
        <pt x="285" y="1759" on="1"/>
        <pt x="356" y="1737" on="0"/>
        <pt x="500" y="1672" on="0"/>
        <pt x="563" y="1634" on="1"/>
        <pt x="596" y="1671" on="0"/>
        <pt x="684" y="1776" on="0"/>
        <pt x="698" y="1793" on="1"/>
        <pt x="788" y="1724" on="1"/>
        <pt x="775" y="1709" on="0"/>
        <pt x="688" y="1610" on="0"/>
        <pt x="653" y="1574" on="1"/>
        <pt x="656" y="1571" on="0"/>
        <pt x="662" y="1567" on="1"/>
      </contour>
      <contour>
        <pt x="949" y="642" on="1"/>
        <pt x="949" y="770" on="0"/>
        <pt x="940" y="851" on="1"/>
        <pt x="926" y="901" on="0"/>
        <pt x="842" y="982" on="0"/>
        <pt x="709" y="1030" on="0"/>
        <pt x="626" y="1030" on="1"/>
        <pt x="517" y="1030" on="0"/>
        <pt x="358" y="915" on="0"/>
        <pt x="275" y="704" on="0"/>
        <pt x="275" y="563" on="1"/>
        <pt x="275" y="414" on="0"/>
        <pt x="363" y="200" on="0"/>
        <pt x="520" y="88" on="0"/>
        <pt x="622" y="88" on="1"/>
        <pt x="711" y="88" on="0"/>
        <pt x="859" y="196" on="0"/>
        <pt x="949" y="415" on="0"/>
        <pt x="949" y="574" on="1"/>
      </contour>
    </TTGlyph>
    <TTGlyph name="exclam" xMin="184" yMin="-16" xMax="417" yMax="1780">
      <contour>
        <pt x="398" y="1780" on="1"/>
        <pt x="380" y="473" on="1"/>
        <pt x="232" y="473" on="1"/>
        <pt x="211" y="1780" on="1"/>
      </contour>
      <contour>
        <pt x="184" y="149" on="0"/>
        <pt x="218" y="212" on="0"/>
        <pt x="274" y="249" on="0"/>
        <pt x="305" y="249" on="1"/>
        <pt x="359" y="249" on="0"/>
        <pt x="417" y="176" on="0"/>
        <pt x="417" y="121" on="1"/>
        <pt x="417" y="82" on="0"/>
        <pt x="383" y="19" on="0"/>
        <pt x="327" y="-16" on="0"/>
        <pt x="295" y="-16" on="1"/>
        <pt x="249" y="-16" on="0"/>
        <pt x="184" y="56" on="0"/>
        <pt x="184" y="112" on="1"/>
      </contour>
    </TTGlyph>
    <TTGlyph name="exclamdbl" xMin="214" yMin="-16" xMax="1118" yMax="1780">
      <component glyphName="exclam" x="30" y="0" flags="0x0"/>
      <component glyphName="exclam" x="701" y="0" flags="0x0"/>
    </TTGlyph>
    <TTGlyph name="exclamdown" xMin="184" yMin="-436" xMax="417" yMax="1360">
      <contour>
        <pt x="417" y="1195" on="0"/>
        <pt x="383" y="1132" on="0"/>
        <pt x="327" y="1095" on="0"/>
        <pt x="296" y="1095" on="1"/>
        <pt x="242" y="1095" on="0"/>
        <pt x="184" y="1168" on="0"/>
        <pt x="184" y="1223" on="1"/>
        <pt x="184" y="1262" on="0"/>
        <pt x="218" y="1325" on="0"/>
        <pt x="274" y="1360" on="0"/>
        <pt x="306" y="1360" on="1"/>
        <pt x="352" y="1360" on="0"/>
        <pt x="417" y="1288" on="0"/>
        <pt x="417" y="1232" on="1"/>
      </contour>
      <contour>
        <pt x="203" y="-436" on="1"/>
        <pt x="221" y="871" on="1"/>
        <pt x="369" y="871" on="1"/>
        <pt x="390" y="-436" on="1"/>
      </contour>
    </TTGlyph>
    <TTGlyph name="f" xMin="76" yMin="0" xMax="800" yMax="1682">
      <contour>
        <pt x="76" y="1014" on="1"/>
        <pt x="76" y="1106" on="1"/>
        <pt x="272" y="1140" on="1"/>
        <pt x="272" y="1232" on="1"/>
        <pt x="272" y="1391" on="0"/>
        <pt x="387" y="1593" on="0"/>
        <pt x="564" y="1682" on="0"/>
        <pt x="664" y="1682" on="1"/>
        <pt x="705" y="1682" on="0"/>
        <pt x="780" y="1669" on="0"/>
        <pt x="800" y="1661" on="1"/>
        <pt x="800" y="1528" on="1"/>
        <pt x="772" y="1538" on="0"/>
        <pt x="698" y="1548" on="0"/>
        <pt x="641" y="1548" on="1"/>
        <pt x="548" y="1548" on="0"/>
        <pt x="439" y="1403" on="0"/>
        <pt x="439" y="1268" on="1"/>
        <pt x="439" y="1140" on="1"/>
        <pt x="742" y="1140" on="1"/>
        <pt x="742" y="1014" on="1"/>
        <pt x="439" y="1014" on="1"/>
        <pt x="439" y="0" on="1"/>
        <pt x="272" y="0" on="1"/>
        <pt x="272" y="1014" on="1"/>
      </contour>
    </TTGlyph>
    <TTGlyph name="f_f" xMin="76" yMin="0" xMax="1601" yMax="1682">
      <component glyphName="f" x="0" y="0" flags="0x0"/>
      <component glyphName="f" x="801" y="0" flags="0x0"/>
    </TTGlyph>
    <TTGlyph name="f_f_i" xMin="76" yMin="0" xMax="2010" yMax="1682">
      <component glyphName="f" x="0" y="0" flags="0x0"/>
      <component glyphName="f" x="801" y="0" flags="0x0"/>
      <component glyphName="dotlessi" x="1602" y="0" flags="0x0"/>
      <component glyphName="dotaccent" x="1730" y="0" flags="0x0"/>
    </TTGlyph>
    <TTGlyph name="f_f_l" xMin="76" yMin="0" xMax="1983" yMax="1682">
      <component glyphName="f" x="0" y="0" flags="0x0"/>
      <component glyphName="f" x="801" y="0" flags="0x0"/>
      <component glyphName="l" x="1602" y="0" flags="0x0"/>
    </TTGlyph>
    <TTGlyph name="ffi_dflt" xMin="178" yMin="0" xMax="2189" yMax="1682">
      <component glyphName="dotlessi" x="0" y="0" flags="0x0"/>
      <component glyphName="dotaccent" x="128" y="0" flags="0x0"/>
      <component glyphName="f" x="588" y="0" flags="0x0"/>
      <component glyphName="f" x="1389" y="0" flags="0x0"/>
    </TTGlyph>
    <TTGlyph name="fi" xMin="76" yMin="0" xMax="1209" yMax="1682">
      <component glyphName="f" x="0" y="0" flags="0x0"/>
      <component glyphName="dotlessi" x="801" y="0" flags="0x0"/>
      <component glyphName="dotaccent" x="929" y="0" flags="0x0"/>
    </TTGlyph>
    <TTGlyph name="fi_trk" xMin="178" yMin="0" xMax="1388" yMax="1682">
      <component glyphName="dotlessi" x="0" y="0" flags="0x0"/>
      <component glyphName="dotaccent" x="128" y="0" flags="0x0"/>
      <component glyphName="f" x="588" y="0" flags="0x0"/>
    </TTGlyph>
    <TTGlyph name="five" xMin="203" yMin="-348" xMax="1071" yMax="1252">
      <contour>
        <pt x="204" y="-222" on="1"/>
        <pt x="251" y="-227" on="0"/>
        <pt x="287" y="-227" on="1"/>
        <pt x="459" y="-227" on="0"/>
        <pt x="741" y="-106" on="0"/>
        <pt x="902" y="102" on="0"/>
        <pt x="902" y="227" on="1"/>
        <pt x="902" y="552" on="0"/>
        <pt x="552" y="552" on="1"/>
        <pt x="418" y="552" on="0"/>
        <pt x="252" y="491" on="1"/>
        <pt x="211" y="516" on="1"/>
        <pt x="272" y="1252" on="1"/>
        <pt x="1022" y="1252" on="1"/>
        <pt x="1006" y="1108" on="1"/>
        <pt x="403" y="1108" on="1"/>
        <pt x="354" y="631" on="1"/>
        <pt x="506" y="677" on="0"/>
        <pt x="631" y="677" on="1"/>
        <pt x="770" y="677" on="0"/>
        <pt x="968" y="571" on="0"/>
        <pt x="1071" y="373" on="0"/>
        <pt x="1071" y="238" on="1"/>
        <pt x="1071" y="92" on="0"/>
        <pt x="892" y="-176" on="0"/>
        <pt x="553" y="-346" on="0"/>
        <pt x="327" y="-348" on="1"/>
        <pt x="244" y="-348" on="0"/>
        <pt x="203" y="-335" on="1"/>
      </contour>
    </TTGlyph>
    <TTGlyph name="fl" xMin="76" yMin="0" xMax="1182" yMax="1682">
      <component glyphName="f" x="0" y="0" flags="0x0"/>
      <component glyphName="l" x="801" y="0" flags="0x0"/>
    </TTGlyph>
    <TTGlyph name="florin" xMin="219" yMin="-356" xMax="1047" yMax="1686">
      <contour>
        <pt x="219" y="1013" on="1"/>
        <pt x="225" y="1101" on="1"/>
        <pt x="450" y="1141" on="1"/>
        <pt x="458" y="1209" on="1"/>
        <pt x="488" y="1456" on="0"/>
        <pt x="724" y="1686" on="0"/>
        <pt x="900" y="1686" on="1"/>
        <pt x="959" y="1686" on="0"/>
        <pt x="1032" y="1675" on="0"/>
        <pt x="1047" y="1669" on="1"/>
        <pt x="1037" y="1532" on="1"/>
        <pt x="1024" y="1540" on="0"/>
        <pt x="942" y="1551" on="0"/>
        <pt x="879" y="1551" on="1"/>
        <pt x="776" y="1551" on="0"/>
        <pt x="643" y="1411" on="0"/>
        <pt x="626" y="1256" on="1"/>
        <pt x="612" y="1141" on="1"/>
        <pt x="932" y="1141" on="1"/>
        <pt x="923" y="1013" on="1"/>
        <pt x="602" y="1013" on="1"/>
        <pt x="489" y="-356" on="1"/>
        <pt x="325" y="-356" on="1"/>
        <pt x="440" y="1013" on="1"/>
      </contour>
    </TTGlyph>
    <TTGlyph name="four" xMin="104" yMin="-376" xMax="1244" yMax="1307">
      <contour>
        <pt x="1244" y="0" on="1"/>
        <pt x="993" y="0" on="1"/>
        <pt x="993" y="-376" on="1"/>
        <pt x="827" y="-376" on="1"/>
        <pt x="827" y="0" on="1"/>
        <pt x="145" y="0" on="1"/>
        <pt x="104" y="79" on="1"/>
        <pt x="148" y="165" on="0"/>
        <pt x="655" y="1224" on="0"/>
        <pt x="689" y="1307" on="1"/>
        <pt x="748" y="1307" on="1"/>
        <pt x="852" y="1243" on="1"/>
        <pt x="819" y="1166" on="0"/>
        <pt x="431" y="389" on="0"/>
        <pt x="357" y="244" on="1"/>
        <pt x="290" y="129" on="1"/>
        <pt x="827" y="129" on="1"/>
        <pt x="840" y="616" on="1"/>
        <pt x="993" y="616" on="1"/>
        <pt x="993" y="129" on="1"/>
        <pt x="1244" y="129" on="1"/>
      </contour>
    </TTGlyph>
    <TTGlyph name="four.numr" xMin="112" yMin="592" xMax="1042" yMax="1779">
      <contour>
        <pt x="849" y="875" on="1"/>
        <pt x="849" y="592" on="1"/>
        <pt x="693" y="592" on="1"/>
        <pt x="694" y="875" on="1"/>
        <pt x="153" y="875" on="1"/>
        <pt x="112" y="947" on="1"/>
        <pt x="586" y="1779" on="1"/>
        <pt x="638" y="1779" on="1"/>
        <pt x="737" y="1720" on="1"/>
        <pt x="353" y="1091" on="1"/>
        <pt x="297" y="991" on="1"/>
        <pt x="694" y="991" on="1"/>
        <pt x="694" y="993" on="1"/>
        <pt x="700" y="1273" on="1"/>
        <pt x="849" y="1289" on="1"/>
        <pt x="849" y="991" on="1"/>
        <pt x="1041" y="991" on="1"/>
        <pt x="1042" y="875" on="1"/>
      </contour>
    </TTGlyph>
    <TTGlyph name="fraction" xMin="160" yMin="0" xMax="851" yMax="1530">
      <contour>
        <pt x="699" y="1530" on="1"/>
        <pt x="851" y="1530" on="1"/>
        <pt x="310" y="0" on="1"/>
        <pt x="160" y="0" on="1"/>
      </contour>
    </TTGlyph>
    <TTGlyph name="franc" xMin="29" yMin="0" xMax="1089" yMax="1522">
      <contour>
        <pt x="29" y="401" on="1"/>
        <pt x="238" y="401" on="1"/>
        <pt x="238" y="1522" on="1"/>
        <pt x="1089" y="1522" on="1"/>
        <pt x="1089" y="1391" on="1"/>
        <pt x="408" y="1391" on="1"/>
        <pt x="408" y="830" on="1"/>
        <pt x="917" y="830" on="1"/>
        <pt x="917" y="699" on="1"/>
        <pt x="408" y="699" on="1"/>
        <pt x="408" y="401" on="1"/>
        <pt x="675" y="401" on="1"/>
        <pt x="675" y="266" on="1"/>
        <pt x="408" y="266" on="1"/>
        <pt x="408" y="0" on="1"/>
        <pt x="238" y="0" on="1"/>
        <pt x="238" y="266" on="1"/>
        <pt x="29" y="266" on="1"/>
      </contour>
    </TTGlyph>
    <TTGlyph name="g" xMin="121" yMin="-517" xMax="1191" yMax="1156">
      <contour>
        <pt x="1191" y="1003" on="1"/>
        <pt x="959" y="1003" on="1"/>
        <pt x="1028" y="910" on="0"/>
        <pt x="1028" y="778" on="1"/>
        <pt x="1028" y="653" on="0"/>
        <pt x="909" y="473" on="0"/>
        <pt x="704" y="380" on="0"/>
        <pt x="577" y="380" on="1"/>
        <pt x="495" y="380" on="0"/>
        <pt x="423" y="401" on="1"/>
        <pt x="392" y="378" on="0"/>
        <pt x="347" y="299" on="0"/>
        <pt x="347" y="259" on="1"/>
        <pt x="347" y="210" on="0"/>
        <pt x="378" y="155" on="0"/>
        <pt x="448" y="132" on="0"/>
        <pt x="510" y="132" on="1"/>
        <pt x="757" y="132" on="1"/>
        <pt x="981" y="132" on="0"/>
        <pt x="1149" y="-24" on="0"/>
        <pt x="1149" y="-151" on="1"/>
        <pt x="1149" y="-261" on="0"/>
        <pt x="1004" y="-427" on="0"/>
        <pt x="754" y="-517" on="0"/>
        <pt x="602" y="-517" on="1"/>
        <pt x="375" y="-517" on="0"/>
        <pt x="121" y="-360" on="0"/>
        <pt x="121" y="-194" on="1"/>
        <pt x="121" y="-115" on="0"/>
        <pt x="217" y="11" on="0"/>
        <pt x="280" y="46" on="1"/>
        <pt x="232" y="73" on="0"/>
        <pt x="194" y="157" on="0"/>
        <pt x="194" y="211" on="1"/>
        <pt x="194" y="270" on="0"/>
        <pt x="269" y="395" on="0"/>
        <pt x="330" y="440" on="1"/>
        <pt x="242" y="489" on="0"/>
        <pt x="142" y="653" on="0"/>
        <pt x="142" y="758" on="1"/>
        <pt x="142" y="891" on="0"/>
        <pt x="262" y="1070" on="0"/>
        <pt x="467" y="1156" on="0"/>
        <pt x="596" y="1156" on="1"/>
        <pt x="754" y="1156" on="0"/>
        <pt x="865" y="1088" on="1"/>
        <pt x="904" y="1108" on="0"/>
        <pt x="1026" y="1137" on="0"/>
        <pt x="1084" y="1137" on="1"/>
        <pt x="1191" y="1137" on="1"/>
      </contour>
      <contour>
        <pt x="712" y="492" on="0"/>
        <pt x="862" y="627" on="0"/>
        <pt x="862" y="772" on="1"/>
        <pt x="862" y="905" on="0"/>
        <pt x="721" y="1042" on="0"/>
        <pt x="595" y="1042" on="1"/>
        <pt x="468" y="1042" on="0"/>
        <pt x="308" y="915" on="0"/>
        <pt x="308" y="766" on="1"/>
        <pt x="308" y="687" on="0"/>
        <pt x="371" y="563" on="0"/>
        <pt x="493" y="492" on="0"/>
        <pt x="580" y="492" on="1"/>
      </contour>
      <contour>
        <pt x="436" y="0" on="0"/>
        <pt x="376" y="10" on="1"/>
        <pt x="284" y="-67" on="0"/>
        <pt x="284" y="-174" on="1"/>
        <pt x="284" y="-293" on="0"/>
        <pt x="441" y="-402" on="0"/>
        <pt x="605" y="-402" on="1"/>
        <pt x="707" y="-402" on="0"/>
        <pt x="882" y="-354" on="0"/>
        <pt x="989" y="-256" on="0"/>
        <pt x="989" y="-186" on="1"/>
        <pt x="989" y="-119" on="0"/>
        <pt x="932" y="-38" on="0"/>
        <pt x="801" y="0" on="0"/>
        <pt x="689" y="0" on="1"/>
        <pt x="535" y="0" on="1"/>
      </contour>
    </TTGlyph>
    <TTGlyph name="gbreve" xMin="121" yMin="-517" xMax="1191" yMax="1694">
      <component glyphName="g" x="0" y="0" flags="0x0"/>
      <component glyphName="breve" x="219" y="0" flags="0x0"/>
    </TTGlyph>
    <TTGlyph name="gcaron" xMin="121" yMin="-517" xMax="1191" yMax="1712">
      <component glyphName="g" x="0" y="0" flags="0x0"/>
      <component glyphName="caron" x="189" y="21" flags="0x4"/>
    </TTGlyph>
    <TTGlyph name="gcircumflex" xMin="121" yMin="-517" xMax="1191" yMax="1692">
      <component glyphName="circumflex" x="187" y="0" flags="0x0"/>
      <component glyphName="g" x="0" y="0" flags="0x0"/>
    </TTGlyph>
    <TTGlyph name="gcommaaccent" xMin="121" yMin="-517" xMax="1191" yMax="1809">
      <contour>
        <pt x="540" y="1347" on="0"/>
        <pt x="481" y="1462" on="0"/>
        <pt x="481" y="1538" on="1"/>
        <pt x="481" y="1604" on="0"/>
        <pt x="530" y="1718" on="0"/>
        <pt x="601" y="1795" on="0"/>
        <pt x="635" y="1809" on="1"/>
        <pt x="692" y="1777" on="1"/>
        <pt x="692" y="1756" on="1"/>
        <pt x="666" y="1736" on="0"/>
        <pt x="624" y="1636" on="0"/>
        <pt x="624" y="1578" on="1"/>
        <pt x="624" y="1527" on="0"/>
        <pt x="670" y="1445" on="0"/>
        <pt x="701" y="1438" on="1"/>
        <pt x="701" y="1400" on="1"/>
        <pt x="582" y="1331" on="1"/>
      </contour>
      <contour>
        <pt x="1191" y="1003" on="1"/>
        <pt x="959" y="1003" on="1"/>
        <pt x="1028" y="910" on="0"/>
        <pt x="1028" y="778" on="1"/>
        <pt x="1028" y="653" on="0"/>
        <pt x="909" y="473" on="0"/>
        <pt x="704" y="380" on="0"/>
        <pt x="577" y="380" on="1"/>
        <pt x="495" y="380" on="0"/>
        <pt x="423" y="401" on="1"/>
        <pt x="392" y="378" on="0"/>
        <pt x="347" y="299" on="0"/>
        <pt x="347" y="259" on="1"/>
        <pt x="347" y="210" on="0"/>
        <pt x="378" y="155" on="0"/>
        <pt x="448" y="132" on="0"/>
        <pt x="510" y="132" on="1"/>
        <pt x="757" y="132" on="1"/>
        <pt x="981" y="132" on="0"/>
        <pt x="1149" y="-24" on="0"/>
        <pt x="1149" y="-151" on="1"/>
        <pt x="1149" y="-261" on="0"/>
        <pt x="1004" y="-427" on="0"/>
        <pt x="754" y="-517" on="0"/>
        <pt x="602" y="-517" on="1"/>
        <pt x="375" y="-517" on="0"/>
        <pt x="121" y="-360" on="0"/>
        <pt x="121" y="-194" on="1"/>
        <pt x="121" y="-115" on="0"/>
        <pt x="217" y="11" on="0"/>
        <pt x="280" y="46" on="1"/>
        <pt x="232" y="73" on="0"/>
        <pt x="194" y="157" on="0"/>
        <pt x="194" y="211" on="1"/>
        <pt x="194" y="270" on="0"/>
        <pt x="269" y="395" on="0"/>
        <pt x="330" y="440" on="1"/>
        <pt x="242" y="489" on="0"/>
        <pt x="142" y="653" on="0"/>
        <pt x="142" y="758" on="1"/>
        <pt x="142" y="891" on="0"/>
        <pt x="262" y="1070" on="0"/>
        <pt x="467" y="1156" on="0"/>
        <pt x="596" y="1156" on="1"/>
        <pt x="754" y="1156" on="0"/>
        <pt x="865" y="1088" on="1"/>
        <pt x="904" y="1108" on="0"/>
        <pt x="1026" y="1137" on="0"/>
        <pt x="1084" y="1137" on="1"/>
        <pt x="1191" y="1137" on="1"/>
      </contour>
      <contour>
        <pt x="712" y="492" on="0"/>
        <pt x="862" y="627" on="0"/>
        <pt x="862" y="772" on="1"/>
        <pt x="862" y="905" on="0"/>
        <pt x="721" y="1042" on="0"/>
        <pt x="595" y="1042" on="1"/>
        <pt x="468" y="1042" on="0"/>
        <pt x="308" y="915" on="0"/>
        <pt x="308" y="766" on="1"/>
        <pt x="308" y="687" on="0"/>
        <pt x="371" y="563" on="0"/>
        <pt x="493" y="492" on="0"/>
        <pt x="580" y="492" on="1"/>
      </contour>
      <contour>
        <pt x="436" y="0" on="0"/>
        <pt x="376" y="10" on="1"/>
        <pt x="284" y="-67" on="0"/>
        <pt x="284" y="-174" on="1"/>
        <pt x="284" y="-293" on="0"/>
        <pt x="441" y="-402" on="0"/>
        <pt x="605" y="-402" on="1"/>
        <pt x="707" y="-402" on="0"/>
        <pt x="882" y="-354" on="0"/>
        <pt x="989" y="-256" on="0"/>
        <pt x="989" y="-186" on="1"/>
        <pt x="989" y="-119" on="0"/>
        <pt x="932" y="-38" on="0"/>
        <pt x="801" y="0" on="0"/>
        <pt x="689" y="0" on="1"/>
        <pt x="535" y="0" on="1"/>
      </contour>
    </TTGlyph>
    <TTGlyph name="gdotaccent" xMin="121" yMin="-517" xMax="1191" yMax="1630">
      <component glyphName="g" x="0" y="0" flags="0x0"/>
      <component glyphName="dotaccent" x="441" y="0" flags="0x0"/>
    </TTGlyph>
    <TTGlyph name="germandbls" xMin="44" yMin="-16" xMax="1227" yMax="1579">
      <contour>
        <pt x="856" y="832" on="0"/>
        <pt x="896" y="762" on="0"/>
        <pt x="955" y="708" on="0"/>
        <pt x="1008" y="667" on="1"/>
        <pt x="1079" y="612" on="0"/>
        <pt x="1165" y="526" on="0"/>
        <pt x="1227" y="397" on="0"/>
        <pt x="1227" y="311" on="1"/>
        <pt x="1227" y="198" on="0"/>
        <pt x="1112" y="51" on="0"/>
        <pt x="933" y="-16" on="0"/>
        <pt x="833" y="-16" on="1"/>
        <pt x="762" y="-16" on="0"/>
        <pt x="634" y="3" on="0"/>
        <pt x="602" y="17" on="1"/>
        <pt x="602" y="149" on="1"/>
        <pt x="638" y="130" on="0"/>
        <pt x="758" y="102" on="0"/>
        <pt x="839" y="102" on="1"/>
        <pt x="897" y="102" on="0"/>
        <pt x="997" y="144" on="0"/>
        <pt x="1058" y="230" on="0"/>
        <pt x="1058" y="293" on="1"/>
        <pt x="1058" y="349" on="0"/>
        <pt x="1013" y="437" on="0"/>
        <pt x="947" y="503" on="0"/>
        <pt x="890" y="550" on="1"/>
        <pt x="828" y="601" on="0"/>
        <pt x="753" y="677" on="0"/>
        <pt x="701" y="785" on="0"/>
        <pt x="701" y="855" on="1"/>
        <pt x="701" y="914" on="0"/>
        <pt x="753" y="1002" on="0"/>
        <pt x="805" y="1060" on="1"/>
        <pt x="842" y="1102" on="0"/>
        <pt x="886" y="1161" on="0"/>
        <pt x="916" y="1239" on="0"/>
        <pt x="916" y="1287" on="1"/>
        <pt x="916" y="1376" on="0"/>
        <pt x="789" y="1460" on="0"/>
        <pt x="689" y="1460" on="1"/>
        <pt x="535" y="1460" on="0"/>
        <pt x="358" y="1228" on="0"/>
        <pt x="358" y="975" on="1"/>
        <pt x="358" y="0" on="1"/>
        <pt x="191" y="0" on="1"/>
        <pt x="191" y="986" on="1"/>
        <pt x="191" y="1014" on="1"/>
        <pt x="44" y="1014" on="1"/>
        <pt x="44" y="1113" on="1"/>
        <pt x="204" y="1143" on="1"/>
        <pt x="230" y="1290" on="0"/>
        <pt x="376" y="1485" on="0"/>
        <pt x="589" y="1579" on="0"/>
        <pt x="717" y="1579" on="1"/>
        <pt x="814" y="1579" on="0"/>
        <pt x="981" y="1519" on="0"/>
        <pt x="1082" y="1396" on="0"/>
        <pt x="1082" y="1308" on="1"/>
        <pt x="1082" y="1246" on="0"/>
        <pt x="1044" y="1148" on="0"/>
        <pt x="990" y="1078" on="0"/>
        <pt x="947" y="1032" on="1"/>
        <pt x="900" y="983" on="0"/>
        <pt x="856" y="915" on="0"/>
        <pt x="856" y="874" on="1"/>
      </contour>
    </TTGlyph>
    <TTGlyph name="grave" xMin="50" yMin="1315" xMax="507" yMax="1781">
      <contour>
        <pt x="347" y="1365" on="0"/>
        <pt x="108" y="1595" on="0"/>
        <pt x="50" y="1678" on="1"/>
        <pt x="170" y="1781" on="1"/>
        <pt x="233" y="1700" on="0"/>
        <pt x="373" y="1535" on="0"/>
        <pt x="483" y="1410" on="1"/>
        <pt x="507" y="1383" on="1"/>
        <pt x="422" y="1315" on="1"/>
      </contour>
    </TTGlyph>
    <TTGlyph name="grave.cap" xMin="50" yMin="1589" xMax="508" yMax="1975">
      <contour>
        <pt x="350" y="1633" on="0"/>
        <pt x="118" y="1801" on="0"/>
        <pt x="50" y="1873" on="1"/>
        <pt x="161" y="1975" on="1"/>
        <pt x="189" y="1944" on="0"/>
        <pt x="469" y="1691" on="0"/>
        <pt x="508" y="1660" on="1"/>
        <pt x="437" y="1589" on="1"/>
      </contour>
    </TTGlyph>
    <TTGlyph name="greater" xMin="235" yMin="254" xMax="1197" yMax="1293">
      <contour>
        <pt x="1197" y="834" on="1"/>
        <pt x="1197" y="712" on="1"/>
        <pt x="235" y="254" on="1"/>
        <pt x="235" y="413" on="1"/>
        <pt x="1024" y="773" on="1"/>
        <pt x="235" y="1137" on="1"/>
        <pt x="235" y="1293" on="1"/>
      </contour>
    </TTGlyph>
    <TTGlyph name="greaterequal" xMin="230" yMin="0" xMax="1195" yMax="1282">
      <contour>
        <pt x="1195" y="834" on="1"/>
        <pt x="1195" y="711" on="1"/>
        <pt x="230" y="263" on="1"/>
        <pt x="230" y="418" on="1"/>
        <pt x="1028" y="773" on="1"/>
        <pt x="230" y="1128" on="1"/>
        <pt x="230" y="1282" on="1"/>
      </contour>
      <contour>
        <pt x="230" y="124" on="1"/>
        <pt x="1195" y="124" on="1"/>
        <pt x="1195" y="0" on="1"/>
        <pt x="230" y="0" on="1"/>
      </contour>
    </TTGlyph>
    <TTGlyph name="gtilde" xMin="121" yMin="-517" xMax="1191" yMax="1638">
      <component glyphName="g" x="0" y="0" flags="0x0"/>
      <component glyphName="tilde" x="146" y="0" flags="0x0"/>
    </TTGlyph>
    <TTGlyph name="guillemotleft" xMin="245" yMin="106" xMax="1668" yMax="1131">
      <component glyphName="guilsinglleft" x="0" y="0" flags="0x0"/>
      <component glyphName="guilsinglleft" x="726" y="0" flags="0x0"/>
    </TTGlyph>
    <TTGlyph name="guillemotright" xMin="262" yMin="106" xMax="1685" yMax="1131">
      <contour>
        <pt x="306" y="1131" on="1"/>
        <pt x="959" y="683" on="1"/>
        <pt x="959" y="542" on="1"/>
        <pt x="306" y="106" on="1"/>
        <pt x="262" y="227" on="1"/>
        <pt x="796" y="615" on="1"/>
        <pt x="262" y="1006" on="1"/>
      </contour>
      <contour>
        <pt x="1685" y="683" on="1"/>
        <pt x="1685" y="542" on="1"/>
        <pt x="1032" y="106" on="1"/>
        <pt x="988" y="227" on="1"/>
        <pt x="1522" y="615" on="1"/>
        <pt x="988" y="1006" on="1"/>
        <pt x="1032" y="1131" on="1"/>
      </contour>
    </TTGlyph>
    <TTGlyph name="guilsinglleft" xMin="245" yMin="106" xMax="942" yMax="1131">
      <contour>
        <pt x="408" y="615" on="1"/>
        <pt x="942" y="227" on="1"/>
        <pt x="898" y="106" on="1"/>
        <pt x="245" y="542" on="1"/>
        <pt x="245" y="683" on="1"/>
        <pt x="898" y="1131" on="1"/>
        <pt x="942" y="1006" on="1"/>
      </contour>
    </TTGlyph>
    <TTGlyph name="guilsinglright" xMin="262" yMin="106" xMax="959" yMax="1131">
      <contour>
        <pt x="959" y="683" on="1"/>
        <pt x="959" y="542" on="1"/>
        <pt x="306" y="106" on="1"/>
        <pt x="262" y="227" on="1"/>
        <pt x="796" y="615" on="1"/>
        <pt x="262" y="1006" on="1"/>
        <pt x="306" y="1131" on="1"/>
      </contour>
    </TTGlyph>
    <TTGlyph name="h" xMin="193" yMin="0" xMax="1124" yMax="1664">
      <contour>
        <pt x="905" y="1157" on="0"/>
        <pt x="1054" y="1063" on="0"/>
        <pt x="1124" y="853" on="0"/>
        <pt x="1123" y="677" on="1"/>
        <pt x="1123" y="0" on="1"/>
        <pt x="956" y="0" on="1"/>
        <pt x="956" y="689" on="1"/>
        <pt x="957" y="815" on="0"/>
        <pt x="910" y="958" on="0"/>
        <pt x="801" y="1020" on="0"/>
        <pt x="703" y="1017" on="1"/>
        <pt x="622" y="1015" on="0"/>
        <pt x="433" y="935" on="0"/>
        <pt x="360" y="879" on="1"/>
        <pt x="360" y="0" on="1"/>
        <pt x="193" y="0" on="1"/>
        <pt x="193" y="1664" on="1"/>
        <pt x="360" y="1664" on="1"/>
        <pt x="360" y="1157" on="1"/>
        <pt x="352" y="1001" on="1"/>
        <pt x="429" y="1061" on="0"/>
        <pt x="667" y="1157" on="0"/>
        <pt x="782" y="1157" on="1"/>
      </contour>
    </TTGlyph>
    <TTGlyph name="hbar" xMin="44" yMin="0" xMax="1124" yMax="1664">
      <contour>
        <pt x="905" y="1157" on="0"/>
        <pt x="1054" y="1063" on="0"/>
        <pt x="1124" y="853" on="0"/>
        <pt x="1123" y="677" on="1"/>
        <pt x="1123" y="0" on="1"/>
        <pt x="956" y="0" on="1"/>
        <pt x="956" y="689" on="1"/>
        <pt x="957" y="815" on="0"/>
        <pt x="910" y="958" on="0"/>
        <pt x="801" y="1020" on="0"/>
        <pt x="703" y="1017" on="1"/>
        <pt x="622" y="1015" on="0"/>
        <pt x="433" y="935" on="0"/>
        <pt x="360" y="879" on="1"/>
        <pt x="360" y="0" on="1"/>
        <pt x="193" y="0" on="1"/>
        <pt x="193" y="1309" on="1"/>
        <pt x="44" y="1309" on="1"/>
        <pt x="44" y="1410" on="1"/>
        <pt x="193" y="1410" on="1"/>
        <pt x="193" y="1664" on="1"/>
        <pt x="360" y="1664" on="1"/>
        <pt x="360" y="1410" on="1"/>
        <pt x="631" y="1410" on="1"/>
        <pt x="631" y="1309" on="1"/>
        <pt x="360" y="1309" on="1"/>
        <pt x="360" y="1157" on="1"/>
        <pt x="352" y="1001" on="1"/>
        <pt x="429" y="1061" on="0"/>
        <pt x="667" y="1157" on="0"/>
        <pt x="782" y="1157" on="1"/>
      </contour>
    </TTGlyph>
    <TTGlyph name="hcircumflex" xMin="193" yMin="0" xMax="1124" yMax="1982">
      <component glyphName="h" x="0" y="0" flags="0x0"/>
      <component glyphName="circumflex.cap" x="357" y="0" flags="0x0"/>
    </TTGlyph>
    <TTGlyph name="hungarumlaut" xMin="47" yMin="1333" xMax="930" yMax="1796">
      <contour>
        <pt x="66" y="1413" on="0"/>
        <pt x="290" y="1761" on="0"/>
        <pt x="311" y="1796" on="1"/>
        <pt x="435" y="1711" on="1"/>
        <pt x="383" y="1624" on="0"/>
        <pt x="191" y="1389" on="0"/>
        <pt x="126" y="1333" on="1"/>
        <pt x="47" y="1387" on="1"/>
      </contour>
      <contour>
        <pt x="560" y="1414" on="0"/>
        <pt x="792" y="1755" on="0"/>
        <pt x="812" y="1787" on="1"/>
        <pt x="930" y="1702" on="1"/>
        <pt x="883" y="1620" on="0"/>
        <pt x="685" y="1388" on="0"/>
        <pt x="617" y="1333" on="1"/>
        <pt x="539" y="1387" on="1"/>
      </contour>
    </TTGlyph>
    <TTGlyph name="hungarumlaut.cap" xMin="54" yMin="1639" xMax="878" yMax="1990">
      <contour>
        <pt x="81" y="1722" on="0"/>
        <pt x="261" y="1959" on="0"/>
        <pt x="280" y="1990" on="1"/>
        <pt x="410" y="1922" on="1"/>
        <pt x="349" y="1837" on="0"/>
        <pt x="213" y="1690" on="0"/>
        <pt x="149" y="1639" on="1"/>
        <pt x="54" y="1692" on="1"/>
      </contour>
      <contour>
        <pt x="549" y="1723" on="0"/>
        <pt x="737" y="1955" on="0"/>
        <pt x="754" y="1981" on="1"/>
        <pt x="878" y="1913" on="1"/>
        <pt x="825" y="1837" on="0"/>
        <pt x="684" y="1690" on="0"/>
        <pt x="617" y="1639" on="1"/>
        <pt x="521" y="1692" on="1"/>
      </contour>
    </TTGlyph>
    <TTGlyph name="hyphen" xMin="247" yMin="705" xMax="1103" yMax="840">
      <contour>
        <pt x="1103" y="840" on="1"/>
        <pt x="1103" y="705" on="1"/>
        <pt x="247" y="705" on="1"/>
        <pt x="247" y="840" on="1"/>
      </contour>
    </TTGlyph>
    <TTGlyph name="i" xMin="178" yMin="0" xMax="408" yMax="1630">
      <component glyphName="dotlessi" x="0" y="0" flags="0x0"/>
      <component glyphName="dotaccent" x="128" y="0" flags="0x0"/>
    </TTGlyph>
    <TTGlyph name="i.cy" xMin="178" yMin="0" xMax="408" yMax="1630">
      <component glyphName="dotlessi" x="0" y="0" flags="0x0"/>
      <component glyphName="dotaccent" x="128" y="0" flags="0x0"/>
    </TTGlyph>
    <TTGlyph name="i.dot" xMin="178" yMin="0" xMax="408" yMax="1630">
      <component glyphName="dotlessi" x="0" y="0" flags="0x0"/>
      <component glyphName="dotaccent" x="128" y="0" flags="0x0"/>
    </TTGlyph>
    <TTGlyph name="iacute" xMin="172" yMin="0" xMax="629" yMax="1781">
      <component glyphName="acute" x="122" y="0" flags="0x0"/>
      <component glyphName="dotlessi" x="0" y="0" flags="0x0"/>
    </TTGlyph>
    <TTGlyph name="ibreve" xMin="-46" yMin="0" xMax="632" yMax="1694">
      <component glyphName="dotlessi" x="0" y="0" flags="0x0"/>
      <component glyphName="breve" x="-94" y="0" flags="0x0"/>
    </TTGlyph>
    <TTGlyph name="icircumflex" xMin="-77" yMin="0" xMax="660" yMax="1692">
      <component glyphName="circumflex" x="-125" y="0" flags="0x0"/>
      <component glyphName="dotlessi" x="0" y="0" flags="0x0"/>
    </TTGlyph>
    <TTGlyph name="idieresis" xMin="-17" yMin="0" xMax="606" yMax="1633">
      <contour>
        <pt x="-17" y="1548" on="0"/>
        <pt x="17" y="1602" on="0"/>
        <pt x="71" y="1633" on="0"/>
        <pt x="101" y="1633" on="1"/>
        <pt x="151" y="1633" on="0"/>
        <pt x="199" y="1577" on="0"/>
        <pt x="199" y="1528" on="1"/>
        <pt x="199" y="1474" on="0"/>
        <pt x="131" y="1408" on="0"/>
        <pt x="83" y="1408" on="1"/>
        <pt x="40" y="1408" on="0"/>
        <pt x="-17" y="1465" on="0"/>
        <pt x="-17" y="1514" on="1"/>
      </contour>
      <contour>
        <pt x="389" y="1548" on="0"/>
        <pt x="422" y="1602" on="0"/>
        <pt x="477" y="1633" on="0"/>
        <pt x="507" y="1633" on="1"/>
        <pt x="557" y="1633" on="0"/>
        <pt x="606" y="1577" on="0"/>
        <pt x="606" y="1528" on="1"/>
        <pt x="606" y="1474" on="0"/>
        <pt x="537" y="1408" on="0"/>
        <pt x="489" y="1408" on="1"/>
        <pt x="446" y="1408" on="0"/>
        <pt x="389" y="1465" on="0"/>
        <pt x="389" y="1514" on="1"/>
      </contour>
      <contour>
        <pt x="377" y="1139" on="1"/>
        <pt x="377" y="0" on="1"/>
        <pt x="211" y="0" on="1"/>
        <pt x="211" y="1139" on="1"/>
      </contour>
    </TTGlyph>
    <TTGlyph name="igrave" xMin="-58" yMin="0" xMax="399" yMax="1781">
      <component glyphName="dotlessi" x="0" y="0" flags="0x0"/>
      <component glyphName="grave" x="-108" y="0" flags="0x0"/>
    </TTGlyph>
    <TTGlyph name="ij" xMin="178" yMin="-507" xMax="1010" yMax="1630">
      <component glyphName="dotlessi" x="0" y="0" flags="0x0"/>
      <component glyphName="dotaccent" x="128" y="0" flags="0x0"/>
      <component glyphName="uni0237" x="588" y="0" flags="0x0"/>
      <component glyphName="dotaccent" x="730" y="0" flags="0x0"/>
    </TTGlyph>
    <TTGlyph name="ij_acutecomb" xMin="172" yMin="-507" xMax="1231" yMax="1781">
      <contour>
        <pt x="289" y="1510" on="0"/>
        <pt x="440" y="1686" on="0"/>
        <pt x="509" y="1781" on="1"/>
        <pt x="629" y="1678" on="1"/>
        <pt x="597" y="1630" on="0"/>
        <pt x="454" y="1480" on="0"/>
        <pt x="302" y="1343" on="0"/>
        <pt x="258" y="1315" on="1"/>
        <pt x="172" y="1383" on="1"/>
      </contour>
      <contour>
        <pt x="891" y="1510" on="0"/>
        <pt x="1042" y="1686" on="0"/>
        <pt x="1111" y="1781" on="1"/>
        <pt x="1231" y="1678" on="1"/>
        <pt x="1199" y="1630" on="0"/>
        <pt x="1056" y="1480" on="0"/>
        <pt x="904" y="1343" on="0"/>
        <pt x="860" y="1315" on="1"/>
        <pt x="774" y="1383" on="1"/>
      </contour>
      <contour>
        <pt x="377" y="1139" on="1"/>
        <pt x="377" y="0" on="1"/>
        <pt x="211" y="0" on="1"/>
        <pt x="211" y="1139" on="1"/>
      </contour>
      <contour>
        <pt x="509" y="-377" on="0"/>
        <pt x="581" y="-389" on="0"/>
        <pt x="609" y="-389" on="1"/>
        <pt x="709" y="-389" on="0"/>
        <pt x="799" y="-224" on="0"/>
        <pt x="799" y="-41" on="1"/>
        <pt x="799" y="1139" on="1"/>
        <pt x="965" y="1139" on="1"/>
        <pt x="965" y="23" on="1"/>
        <pt x="965" y="-253" on="0"/>
        <pt x="798" y="-507" on="0"/>
        <pt x="626" y="-507" on="1"/>
        <pt x="593" y="-507" on="0"/>
        <pt x="503" y="-499" on="0"/>
        <pt x="493" y="-494" on="1"/>
        <pt x="493" y="-370" on="1"/>
      </contour>
    </TTGlyph>
    <TTGlyph name="imacron" xMin="23" yMin="0" xMax="566" yMax="1576">
      <component glyphName="dotlessi" x="0" y="0" flags="0x0"/>
      <component glyphName="macron" x="-27" y="0" flags="0x0"/>
    </TTGlyph>
    <TTGlyph name="infinity" xMin="103" yMin="228" xMax="1739" yMax="1006">
      <contour>
        <pt x="1469" y="1006" on="0"/>
        <pt x="1651" y="900" on="0"/>
        <pt x="1739" y="730" on="0"/>
        <pt x="1739" y="633" on="1"/>
        <pt x="1739" y="509" on="0"/>
        <pt x="1641" y="327" on="0"/>
        <pt x="1454" y="229" on="0"/>
        <pt x="1324" y="229" on="1"/>
        <pt x="1232" y="229" on="0"/>
        <pt x="1086" y="302" on="0"/>
        <pt x="977" y="416" on="0"/>
        <pt x="923" y="496" on="1"/>
        <pt x="847" y="382" on="0"/>
        <pt x="636" y="231" on="0"/>
        <pt x="510" y="230" on="1"/>
        <pt x="385" y="228" on="0"/>
        <pt x="200" y="330" on="0"/>
        <pt x="103" y="501" on="0"/>
        <pt x="103" y="601" on="1"/>
        <pt x="103" y="729" on="0"/>
        <pt x="210" y="911" on="0"/>
        <pt x="396" y="1004" on="0"/>
        <pt x="512" y="1004" on="1"/>
        <pt x="650" y="1004" on="0"/>
        <pt x="842" y="857" on="0"/>
        <pt x="927" y="731" on="1"/>
        <pt x="1003" y="847" on="0"/>
        <pt x="1213" y="1003" on="0"/>
        <pt x="1336" y="1004" on="1"/>
      </contour>
      <contour>
        <pt x="690" y="346" on="0"/>
        <pt x="851" y="605" on="1"/>
        <pt x="801" y="686" on="0"/>
        <pt x="714" y="798" on="0"/>
        <pt x="596" y="879" on="0"/>
        <pt x="527" y="879" on="1"/>
        <pt x="439" y="879" on="0"/>
        <pt x="316" y="805" on="0"/>
        <pt x="254" y="681" on="0"/>
        <pt x="254" y="609" on="1"/>
        <pt x="254" y="539" on="0"/>
        <pt x="311" y="420" on="0"/>
        <pt x="434" y="346" on="0"/>
        <pt x="527" y="346" on="1"/>
      </contour>
      <contour>
        <pt x="1430" y="345" on="0"/>
        <pt x="1537" y="425" on="0"/>
        <pt x="1588" y="551" on="0"/>
        <pt x="1588" y="619" on="1"/>
        <pt x="1588" y="686" on="0"/>
        <pt x="1530" y="805" on="0"/>
        <pt x="1408" y="879" on="0"/>
        <pt x="1318" y="879" on="1"/>
        <pt x="1226" y="879" on="0"/>
        <pt x="1069" y="734" on="0"/>
        <pt x="1001" y="620" on="1"/>
        <pt x="1077" y="500" on="0"/>
        <pt x="1245" y="345" on="0"/>
        <pt x="1350" y="345" on="1"/>
      </contour>
    </TTGlyph>
    <TTGlyph name="integral" xMin="101" yMin="-518" xMax="969" yMax="1684">
      <contour>
        <pt x="165" y="-287" on="1"/>
        <pt x="195" y="-325" on="0"/>
        <pt x="314" y="-393" on="0"/>
        <pt x="401" y="-393" on="1"/>
        <pt x="532" y="-393" on="0"/>
        <pt x="675" y="-228" on="0"/>
        <pt x="675" y="-32" on="1"/>
        <pt x="675" y="60" on="0"/>
        <pt x="618" y="257" on="0"/>
        <pt x="535" y="438" on="0"/>
        <pt x="465" y="573" on="1"/>
        <pt x="393" y="713" on="0"/>
        <pt x="307" y="901" on="0"/>
        <pt x="248" y="1109" on="0"/>
        <pt x="248" y="1208" on="1"/>
        <pt x="248" y="1349" on="0"/>
        <pt x="344" y="1564" on="0"/>
        <pt x="535" y="1684" on="0"/>
        <pt x="673" y="1684" on="1"/>
        <pt x="769" y="1684" on="0"/>
        <pt x="928" y="1621" on="0"/>
        <pt x="969" y="1552" on="1"/>
        <pt x="882" y="1466" on="1"/>
        <pt x="861" y="1502" on="0"/>
        <pt x="750" y="1559" on="0"/>
        <pt x="670" y="1559" on="1"/>
        <pt x="535" y="1559" on="0"/>
        <pt x="402" y="1372" on="0"/>
        <pt x="402" y="1207" on="1"/>
        <pt x="402" y="1115" on="0"/>
        <pt x="458" y="920" on="0"/>
        <pt x="541" y="739" on="0"/>
        <pt x="610" y="606" on="1"/>
        <pt x="681" y="468" on="0"/>
        <pt x="768" y="278" on="0"/>
        <pt x="827" y="69" on="0"/>
        <pt x="827" y="-31" on="1"/>
        <pt x="827" y="-254" on="0"/>
        <pt x="629" y="-518" on="0"/>
        <pt x="421" y="-518" on="1"/>
        <pt x="322" y="-518" on="0"/>
        <pt x="142" y="-447" on="0"/>
        <pt x="101" y="-389" on="1"/>
      </contour>
    </TTGlyph>
    <TTGlyph name="iogonek" xMin="21" yMin="-512" xMax="502" yMax="1630">
      <contour>
        <pt x="244" y="1388" on="0"/>
        <pt x="182" y="1450" on="0"/>
        <pt x="182" y="1502" on="1"/>
        <pt x="182" y="1538" on="0"/>
        <pt x="217" y="1596" on="0"/>
        <pt x="274" y="1630" on="0"/>
        <pt x="305" y="1630" on="1"/>
        <pt x="357" y="1630" on="0"/>
        <pt x="412" y="1568" on="0"/>
        <pt x="412" y="1517" on="1"/>
        <pt x="412" y="1479" on="0"/>
        <pt x="378" y="1420" on="0"/>
        <pt x="321" y="1388" on="0"/>
        <pt x="289" y="1388" on="1"/>
      </contour>
      <contour>
        <pt x="422" y="-397" on="0"/>
        <pt x="502" y="-358" on="1"/>
        <pt x="502" y="-450" on="1"/>
        <pt x="463" y="-480" on="0"/>
        <pt x="340" y="-512" on="0"/>
        <pt x="274" y="-512" on="1"/>
        <pt x="203" y="-512" on="0"/>
        <pt x="88" y="-461" on="0"/>
        <pt x="21" y="-363" on="0"/>
        <pt x="21" y="-296" on="1"/>
        <pt x="21" y="-209" on="0"/>
        <pt x="147" y="-50" on="0"/>
        <pt x="229" y="0" on="1"/>
        <pt x="211" y="0" on="1"/>
        <pt x="211" y="1139" on="1"/>
        <pt x="377" y="1139" on="1"/>
        <pt x="377" y="0" on="1"/>
        <pt x="358" y="0" on="1"/>
        <pt x="285" y="-46" on="0"/>
        <pt x="185" y="-185" on="0"/>
        <pt x="185" y="-265" on="1"/>
        <pt x="185" y="-331" on="0"/>
        <pt x="272" y="-399" on="0"/>
        <pt x="340" y="-399" on="1"/>
      </contour>
    </TTGlyph>
    <TTGlyph name="itilde" xMin="-119" yMin="0" xMax="703" yMax="1638">
      <component glyphName="dotlessi" x="0" y="0" flags="0x0"/>
      <component glyphName="tilde" x="-167" y="0" flags="0x0"/>
    </TTGlyph>
    <TTGlyph name="j" xMin="-95" yMin="-507" xMax="422" yMax="1630">
      <component glyphName="uni0237" x="0" y="0" flags="0x0"/>
      <component glyphName="dotaccent" x="142" y="0" flags="0x0"/>
    </TTGlyph>
    <TTGlyph name="jcircumflex" xMin="-95" yMin="-507" xMax="673" yMax="1692">
      <component glyphName="uni0237" x="0" y="0" flags="0x0"/>
      <component glyphName="circumflex" x="-112" y="0" flags="0x0"/>
    </TTGlyph>
    <TTGlyph name="k" xMin="188" yMin="0" xMax="1134" yMax="1661">
      <contour>
        <pt x="530" y="581" on="1"/>
        <pt x="350" y="402" on="1"/>
        <pt x="354" y="224" on="1"/>
        <pt x="354" y="0" on="1"/>
        <pt x="188" y="0" on="1"/>
        <pt x="188" y="1661" on="1"/>
        <pt x="354" y="1661" on="1"/>
        <pt x="354" y="708" on="1"/>
        <pt x="350" y="585" on="1"/>
        <pt x="887" y="1139" on="1"/>
        <pt x="1085" y="1139" on="1"/>
        <pt x="640" y="692" on="1"/>
        <pt x="1134" y="0" on="1"/>
        <pt x="943" y="0" on="1"/>
      </contour>
    </TTGlyph>
    <TTGlyph name="kcommaaccent" xMin="188" yMin="-560" xMax="1134" yMax="1661">
      <component glyphName="uni0326" x="787" y="0" flags="0x0"/>
      <component glyphName="k" x="0" y="0" flags="0x0"/>
    </TTGlyph>
    <TTGlyph name="kgreenlandic" xMin="197" yMin="0" xMax="1146" yMax="1140">
      <contour>
        <pt x="549" y="555" on="1"/>
        <pt x="362" y="359" on="1"/>
        <pt x="366" y="200" on="1"/>
        <pt x="366" y="0" on="1"/>
        <pt x="199" y="0" on="1"/>
        <pt x="197" y="1140" on="1"/>
        <pt x="364" y="1140" on="1"/>
        <pt x="364" y="640" on="1"/>
        <pt x="361" y="541" on="1"/>
        <pt x="915" y="1139" on="1"/>
        <pt x="1107" y="1139" on="1"/>
        <pt x="657" y="668" on="1"/>
        <pt x="1146" y="0" on="1"/>
        <pt x="955" y="0" on="1"/>
      </contour>
    </TTGlyph>
    <TTGlyph name="l" xMin="214" yMin="0" xMax="381" yMax="1664">
      <contour>
        <pt x="381" y="1664" on="1"/>
        <pt x="381" y="0" on="1"/>
        <pt x="214" y="0" on="1"/>
        <pt x="214" y="1664" on="1"/>
      </contour>
    </TTGlyph>
    <TTGlyph name="lacute" xMin="214" yMin="0" xMax="673" yMax="1975">
      <contour>
        <pt x="254" y="1691" on="0"/>
        <pt x="534" y="1944" on="0"/>
        <pt x="562" y="1975" on="1"/>
        <pt x="673" y="1873" on="1"/>
        <pt x="593" y="1793" on="0"/>
        <pt x="378" y="1634" on="0"/>
        <pt x="287" y="1589" on="1"/>
        <pt x="215" y="1660" on="1"/>
      </contour>
      <contour>
        <pt x="381" y="1533" on="1"/>
        <pt x="381" y="0" on="1"/>
        <pt x="214" y="0" on="1"/>
        <pt x="214" y="1533" on="1"/>
      </contour>
    </TTGlyph>
    <TTGlyph name="lcaron" xMin="214" yMin="0" xMax="769" yMax="1685">
      <component glyphName="l" x="0" y="0" flags="0x0"/>
      <component glyphName="caronvertical" x="504" y="0" flags="0x0"/>
    </TTGlyph>
    <TTGlyph name="lcommaaccent" xMin="184" yMin="-560" xMax="399" yMax="1664">
      <component glyphName="uni0326" x="462" y="0" flags="0x0"/>
      <component glyphName="l" x="0" y="0" flags="0x0"/>
    </TTGlyph>
    <TTGlyph name="ldot" xMin="214" yMin="0" xMax="912" yMax="1664">
      <component glyphName="l" x="0" y="0" flags="0x0"/>
      <component glyphName="period" x="495" y="748" flags="0x4"/>
    </TTGlyph>
    <TTGlyph name="less" xMin="171" yMin="254" xMax="1133" yMax="1293">
      <contour>
        <pt x="1133" y="1137" on="1"/>
        <pt x="344" y="773" on="1"/>
        <pt x="1133" y="413" on="1"/>
        <pt x="1133" y="254" on="1"/>
        <pt x="171" y="712" on="1"/>
        <pt x="171" y="834" on="1"/>
        <pt x="1133" y="1293" on="1"/>
      </contour>
    </TTGlyph>
    <TTGlyph name="lessequal" xMin="173" yMin="0" xMax="1138" yMax="1282">
      <contour>
        <pt x="1138" y="1128" on="1"/>
        <pt x="340" y="773" on="1"/>
        <pt x="1138" y="418" on="1"/>
        <pt x="1138" y="263" on="1"/>
        <pt x="173" y="711" on="1"/>
        <pt x="173" y="834" on="1"/>
        <pt x="1138" y="1282" on="1"/>
      </contour>
      <contour>
        <pt x="173" y="124" on="1"/>
        <pt x="1138" y="124" on="1"/>
        <pt x="1138" y="0" on="1"/>
        <pt x="173" y="0" on="1"/>
      </contour>
    </TTGlyph>
    <TTGlyph name="lira" xMin="141" yMin="-24" xMax="1393" yMax="1538">
      <contour>
        <pt x="355" y="198" on="0"/>
        <pt x="365" y="214" on="1"/>
        <pt x="399" y="271" on="0"/>
        <pt x="442" y="385" on="0"/>
        <pt x="442" y="465" on="1"/>
        <pt x="442" y="595" on="1"/>
        <pt x="209" y="595" on="1"/>
        <pt x="209" y="701" on="1"/>
        <pt x="442" y="701" on="1"/>
        <pt x="442" y="869" on="1"/>
        <pt x="231" y="869" on="1"/>
        <pt x="231" y="975" on="1"/>
        <pt x="442" y="975" on="1"/>
        <pt x="442" y="1057" on="1"/>
        <pt x="442" y="1197" on="0"/>
        <pt x="554" y="1416" on="0"/>
        <pt x="764" y="1538" on="0"/>
        <pt x="905" y="1538" on="1"/>
        <pt x="1114" y="1538" on="0"/>
        <pt x="1234" y="1444" on="1"/>
        <pt x="1154" y="1322" on="1"/>
        <pt x="1106" y="1364" on="0"/>
        <pt x="981" y="1411" on="0"/>
        <pt x="888" y="1411" on="1"/>
        <pt x="812" y="1411" on="0"/>
        <pt x="686" y="1339" on="0"/>
        <pt x="608" y="1172" on="0"/>
        <pt x="609" y="1035" on="1"/>
        <pt x="609" y="975" on="1"/>
        <pt x="1041" y="975" on="1"/>
        <pt x="1041" y="869" on="1"/>
        <pt x="609" y="869" on="1"/>
        <pt x="610" y="701" on="1"/>
        <pt x="1019" y="701" on="1"/>
        <pt x="1019" y="595" on="1"/>
        <pt x="609" y="595" on="1"/>
        <pt x="602" y="271" on="0"/>
        <pt x="504" y="169" on="1"/>
        <pt x="553" y="170" on="0"/>
        <pt x="642" y="154" on="0"/>
        <pt x="707" y="137" on="1"/>
        <pt x="778" y="117" on="0"/>
        <pt x="893" y="96" on="0"/>
        <pt x="962" y="96" on="1"/>
        <pt x="1235" y="96" on="0"/>
        <pt x="1235" y="327" on="1"/>
        <pt x="1235" y="378" on="0"/>
        <pt x="1185" y="481" on="0"/>
        <pt x="1146" y="500" on="1"/>
        <pt x="1265" y="561" on="1"/>
        <pt x="1297" y="542" on="0"/>
        <pt x="1356" y="466" on="0"/>
        <pt x="1393" y="368" on="0"/>
        <pt x="1393" y="317" on="1"/>
        <pt x="1393" y="158" on="0"/>
        <pt x="1193" y="-24" on="0"/>
        <pt x="982" y="-24" on="1"/>
        <pt x="887" y="-24" on="0"/>
        <pt x="729" y="8" on="0"/>
        <pt x="629" y="38" on="1"/>
        <pt x="566" y="57" on="0"/>
        <pt x="484" y="76" on="0"/>
        <pt x="448" y="76" on="1"/>
        <pt x="415" y="76" on="0"/>
        <pt x="391" y="68" on="1"/>
        <pt x="363" y="36" on="0"/>
        <pt x="273" y="-10" on="0"/>
        <pt x="227" y="-10" on="1"/>
        <pt x="196" y="-10" on="0"/>
        <pt x="141" y="27" on="0"/>
        <pt x="141" y="54" on="1"/>
        <pt x="141" y="111" on="0"/>
        <pt x="248" y="188" on="0"/>
        <pt x="353" y="194" on="1"/>
      </contour>
    </TTGlyph>
    <TTGlyph name="logicalnot" xMin="235" yMin="323" xMax="1225" yMax="852">
      <contour>
        <pt x="1225" y="852" on="1"/>
        <pt x="1225" y="323" on="1"/>
        <pt x="1073" y="323" on="1"/>
        <pt x="1073" y="726" on="1"/>
        <pt x="235" y="726" on="1"/>
        <pt x="235" y="852" on="1"/>
      </contour>
    </TTGlyph>
    <TTGlyph name="lozenge" xMin="84" yMin="0" xMax="1159" yMax="1516">
      <contour>
        <pt x="624" y="1516" on="1"/>
        <pt x="1159" y="775" on="1"/>
        <pt x="1159" y="762" on="1"/>
        <pt x="624" y="0" on="1"/>
        <pt x="619" y="0" on="1"/>
        <pt x="84" y="762" on="1"/>
        <pt x="84" y="775" on="1"/>
        <pt x="620" y="1516" on="1"/>
      </contour>
      <contour>
        <pt x="249" y="765" on="1"/>
        <pt x="620" y="224" on="1"/>
        <pt x="623" y="224" on="1"/>
        <pt x="993" y="768" on="1"/>
        <pt x="993" y="772" on="1"/>
        <pt x="623" y="1296" on="1"/>
        <pt x="620" y="1296" on="1"/>
        <pt x="249" y="772" on="1"/>
      </contour>
    </TTGlyph>
    <TTGlyph name="lslash" xMin="15" yMin="0" xMax="573" yMax="1664">
      <contour>
        <pt x="573" y="1025" on="1"/>
        <pt x="381" y="951" on="1"/>
        <pt x="381" y="0" on="1"/>
        <pt x="214" y="0" on="1"/>
        <pt x="214" y="887" on="1"/>
        <pt x="15" y="810" on="1"/>
        <pt x="15" y="925" on="1"/>
        <pt x="214" y="1005" on="1"/>
        <pt x="214" y="1664" on="1"/>
        <pt x="381" y="1664" on="1"/>
        <pt x="381" y="1071" on="1"/>
        <pt x="573" y="1148" on="1"/>
      </contour>
    </TTGlyph>
</ttFont>
